<?xml version="1.0" standalone="no"?>
<!DOCTYPE svg PUBLIC "-//W3C//DTD SVG 20010904//EN"
 "http://www.w3.org/TR/2001/REC-SVG-20010904/DTD/svg10.dtd">
<svg version="1.0" xmlns="http://www.w3.org/2000/svg"
 width="260.000000pt" height="148.000000pt" viewBox="0 0 260.000000 148.000000"
 preserveAspectRatio="xMidYMid meet">

<g transform="translate(0.000000,148.000000) scale(0.100000,-0.100000)"
fill="#000000" stroke="none">
<path d="M693 1320 c-63 -13 -181 -68 -239 -112 -95 -71 -187 -212 -219 -335
-19 -73 -19 -200 0 -281 53 -223 256 -411 477 -441 102 -14 220 1 313 40 39
16 148 75 241 130 279 167 425 235 609 285 84 22 121 26 230 27 135 0 223 -15
365 -63 34 -12 64 -19 67 -17 8 9 -174 96 -234 111 -297 77 -566 12 -1013
-243 -162 -93 -300 -160 -364 -177 -291 -78 -598 175 -599 491 0 138 49 253
153 357 190 190 482 207 687 41 45 -37 56 -41 78 -33 14 5 25 14 25 19 0 5
-26 32 -57 61 -66 58 -192 123 -271 139 -60 13 -187 13 -249 1z"/>
<path d="M1707 889 c-140 -20 -246 -58 -502 -177 -376 -174 -478 -190 -625
-97 -23 14 -44 24 -47 22 -10 -11 37 -98 77 -141 133 -145 316 -125 752 80
332 157 459 194 655 194 134 0 230 -20 378 -80 l120 -49 -48 43 c-175 156
-498 243 -760 205z"/>
</g>
</svg>
