<?xml version="1.0" encoding="utf-8"?>
<!-- Generator: Adobe Illustrator 27.5.0, SVG Export Plug-In . SVG Version: 6.00 Build 0)  -->
<svg version="1.1" xmlns="http://www.w3.org/2000/svg" xmlns:xlink="http://www.w3.org/1999/xlink" x="0px" y="0px"
	 viewBox="0 0 3710 3710" style="enable-background:new 0 0 3710 3710;" xml:space="preserve">
<g id="Background">
	<g>
		<g>
			<rect style="fill:transparent;" width="3710" height="3710"/>
		</g>
	</g>
</g>
<g id="Illustration">
	<g>
		<linearGradient id="SVGID_1_" gradientUnits="userSpaceOnUse" x1="3601.4294" y1="4073.3674" x2="1113.7424" y2="983.8162">
			<stop  offset="0" style="stop-color:#DAE3FE"/>
			<stop  offset="1" style="stop-color:#E9EFFD"/>
		</linearGradient>
		<path style="fill:url(#SVGID_1_);" d="M2920.157,2852.809c-57.312,60.039-111.539,98.757-154.383,129.347
			c-503.625,359.58-1099.546,254.765-1226.196,229.167c-187.022-37.799-548.533-110.862-809.898-416.712
			c-395.424-462.726-333.851-1191.737-27.133-1672.967c56.103-88.025,352.459-576.586,954.798-654.935
			c364.53-47.416,789.454,48.217,1097.173,304.757C3400.446,1309.966,3354.463,2397.833,2920.157,2852.809z"/>
		<g>
			<g>
				<g>
					<g>
						<path style="fill:#BDD0FB;" d="M2901.033,618.075L2901.033,618.075c2.409,2.409,2.629,6.242,0.51,8.911l-69.252,87.229
							l-18.44-18.44l77.7-77.699C2894.169,615.456,2898.415,615.456,2901.033,618.075z"/>
						<path style="fill:#BDD0FB;" d="M2742.852,618.075L2742.852,618.075c-2.409,2.409-2.629,6.242-0.51,8.911l69.252,87.229
							l18.44-18.44l-77.7-77.699C2749.716,615.456,2745.471,615.456,2742.852,618.075z"/>
					</g>
					<path style="fill:#BDD0FB;" d="M2883.976,520.238l-52.444-52.444c-5.296-5.296-13.883-5.296-19.179,0l-52.444,52.444
						c-4.393,4.394-5.24,11.211-2.053,16.545l51.548,81.253l3.413,251.651h18.25l3.413-251.651l51.548-81.253
						C2889.215,531.449,2888.369,524.632,2883.976,520.238z M2854.393,538.892l-22.861,22.861c-5.296,5.296-13.883,5.296-19.179,0
						l-22.861-22.861c-5.296-5.296-5.296-13.883,0-19.179l22.861-22.861c5.296-5.296,13.883-5.296,19.179,0l22.861,22.861
						C2859.689,525.009,2859.689,533.596,2854.393,538.892z"/>
				</g>
				<g>
					<g>
						<path style="fill:#BDD0FB;" d="M2901.033,1180.382L2901.033,1180.382c2.409-2.409,2.629-6.242,0.51-8.911l-69.252-87.229
							l-18.44,18.44l77.7,77.699C2894.169,1183.001,2898.415,1183.001,2901.033,1180.382z"/>
						<path style="fill:#BDD0FB;" d="M2742.852,1180.382L2742.852,1180.382c-2.409-2.409-2.629-6.242-0.51-8.911l69.252-87.229
							l18.44,18.44l-77.7,77.699C2749.716,1183.001,2745.471,1183.001,2742.852,1180.382z"/>
					</g>
					<path style="fill:#BDD0FB;" d="M2886.029,1261.674l-51.548-81.253l-3.413-251.652h-18.25l-3.413,251.652l-51.548,81.253
						c-3.187,5.334-2.34,12.151,2.053,16.545l52.444,52.443c5.296,5.296,13.883,5.296,19.179,0l52.444-52.443
						C2888.369,1273.825,2889.215,1267.008,2886.029,1261.674z M2854.393,1278.744l-22.861,22.86
						c-5.296,5.296-13.883,5.296-19.179,0l-22.861-22.86c-5.296-5.296-5.296-13.883,0-19.179l22.861-22.86
						c5.296-5.296,13.883-5.296,19.179,0l22.861,22.86C2859.689,1264.861,2859.689,1273.448,2854.393,1278.744z"/>
				</g>
			</g>
			<g>
				<g>
					<g>
						<path style="fill:#BDD0FB;" d="M2749.86,616.197L2749.86,616.197c3.291,0.882,5.398,4.091,4.897,7.462l-16.36,110.169
							l-25.19-6.75l28.44-106.139C2742.606,617.361,2746.283,615.238,2749.86,616.197z"/>
						<path style="fill:#BDD0FB;" d="M2612.871,695.287L2612.871,695.287c-0.882,3.291,0.845,6.72,4.014,7.972l103.589,40.916
							l6.75-25.19l-106.14-28.44C2617.507,689.588,2613.83,691.71,2612.871,695.287z"/>
					</g>
					<path style="fill:#BDD0FB;" d="M2686.17,539.997l-71.639-19.196c-7.235-1.938-14.671,2.355-16.61,9.59l-19.196,71.639
						c-1.608,6.002,1.068,12.328,6.494,15.354l85.269,44.593l128.781,216.23l15.805-9.125l-122.87-219.643l4.016-96.142
						C2696.313,547.086,2692.171,541.605,2686.17,539.997z M2669.877,570.943l-8.368,31.228c-1.939,7.235-9.375,11.528-16.61,9.59
						l-31.228-8.367c-7.235-1.939-11.528-9.375-9.59-16.61l8.367-31.228c1.939-7.235,9.375-11.528,16.61-9.589l31.228,8.367
						C2667.522,556.272,2671.816,563.708,2669.877,570.943z"/>
				</g>
				<g>
					<g>
						<path style="fill:#BDD0FB;" d="M3031.014,1103.169L3031.014,1103.169c0.882-3.291-0.844-6.72-4.013-7.972l-103.589-40.916
							l-6.75,25.19l106.14,28.44C3026.379,1108.87,3030.056,1106.747,3031.014,1103.169z"/>
						<path style="fill:#BDD0FB;" d="M2894.025,1182.26L2894.025,1182.26c-3.291-0.882-5.398-4.091-4.897-7.461l16.36-110.169
							l25.19,6.75l-28.44,106.14C2901.279,1181.096,2897.602,1183.219,2894.025,1182.26z"/>
					</g>
					<path style="fill:#BDD0FB;" d="M3058.666,1181.072l-85.269-44.593l-128.781-216.23l-15.805,9.125l122.87,219.643l-4.015,96.142
						c-0.093,6.213,4.049,11.694,10.05,13.302l71.64,19.196c7.235,1.938,14.671-2.355,16.61-9.59l19.196-71.639
						C3066.768,1190.426,3064.092,1184.099,3058.666,1181.072z M3039.803,1211.674l-8.367,31.228
						c-1.939,7.235-9.375,11.528-16.61,9.589l-31.228-8.368c-7.235-1.938-11.528-9.375-9.59-16.61l8.367-31.228
						c1.938-7.235,9.375-11.528,16.61-9.589l31.228,8.367C3037.448,1197.002,3041.741,1204.439,3039.803,1211.674z"/>
				</g>
			</g>
			<g>
				<g>
					<g>
						<path style="fill:#BDD0FB;" d="M2618.002,690.157L2618.002,690.157c3.291-0.882,6.72,0.845,7.972,4.014l40.916,103.589
							l-25.19,6.75l-28.44-106.139C2612.302,694.792,2614.424,691.116,2618.002,690.157z"/>
						<path style="fill:#BDD0FB;" d="M2538.911,827.146L2538.911,827.146c0.882,3.291,4.092,5.398,7.462,4.897l110.169-16.36
							l-6.75-25.19l-106.14,28.44C2540.075,819.892,2537.953,823.569,2538.911,827.146z"/>
					</g>
					<path style="fill:#BDD0FB;" d="M2524.744,656.011l-71.639,19.196c-7.235,1.939-11.528,9.375-9.59,16.61l19.196,71.639
						c1.608,6.002,7.09,10.143,13.302,10.05l96.141-4.016l219.643,122.87l9.125-15.805l-216.23-128.782l-44.593-85.269
						C2537.073,657.079,2530.746,654.403,2524.744,656.011z M2526.107,690.958l8.368,31.228c1.938,7.235-2.355,14.671-9.59,16.61
						l-31.228,8.367c-7.235,1.939-14.671-2.355-16.61-9.589l-8.367-31.228c-1.938-7.235,2.355-14.671,9.59-16.61l31.228-8.367
						C2516.732,679.43,2524.169,683.723,2526.107,690.958z"/>
				</g>
				<g>
					<g>
						<path style="fill:#BDD0FB;" d="M3104.974,971.311L3104.974,971.311c-0.882-3.291-4.091-5.398-7.462-4.897l-110.169,16.36
							l6.75,25.19l106.14-28.44C3103.81,978.565,3105.933,974.888,3104.974,971.311z"/>
						<path style="fill:#BDD0FB;" d="M3025.884,1108.3L3025.884,1108.3c-3.291,0.882-6.72-0.845-7.972-4.014l-40.917-103.589
							l25.19-6.75l28.44,106.14C3031.583,1103.665,3029.461,1107.341,3025.884,1108.3z"/>
					</g>
					<path style="fill:#BDD0FB;" d="M3167.873,1024.951l-96.142,4.016l-219.643-122.87l-9.125,15.805l216.23,128.781l44.593,85.269
						c3.026,5.427,9.353,8.102,15.354,6.495l71.639-19.196c7.235-1.939,11.528-9.375,9.59-16.61l-19.196-71.64
						C3179.566,1029,3174.085,1024.859,3167.873,1024.951z M3166.838,1060.884l8.367,31.228c1.939,7.235-2.354,14.671-9.589,16.61
						l-31.228,8.367c-7.235,1.939-14.671-2.355-16.61-9.589l-8.367-31.228c-1.938-7.235,2.355-14.671,9.59-16.61l31.228-8.367
						C3157.463,1049.356,3164.899,1053.649,3166.838,1060.884z"/>
				</g>
			</g>
			<g>
				<g>
					<g>
						<path style="fill:#BDD0FB;" d="M2540.789,820.138L2540.789,820.138c2.409-2.409,6.242-2.629,8.911-0.51l87.229,69.253
							l-18.44,18.44l-77.699-77.7C2538.17,827.002,2538.17,822.757,2540.789,820.138z"/>
						<path style="fill:#BDD0FB;" d="M2540.789,978.319L2540.789,978.319c2.409,2.409,6.242,2.629,8.911,0.51l87.229-69.252
							l-18.44-18.44l-77.699,77.7C2538.17,971.455,2538.17,975.7,2540.789,978.319z"/>
					</g>
					<path style="fill:#BDD0FB;" d="M2442.953,837.195l-52.444,52.444c-5.296,5.296-5.296,13.883,0,19.179l52.444,52.444
						c4.393,4.393,11.21,5.239,16.544,2.053l81.253-51.549l251.651-3.413v-18.25l-251.651-3.413l-81.253-51.549
						C2454.163,831.956,2447.346,832.802,2442.953,837.195z M2461.606,866.778l22.86,22.861c5.296,5.296,5.296,13.883,0,19.179
						l-22.86,22.86c-5.296,5.296-13.883,5.296-19.179,0l-22.86-22.86c-5.296-5.296-5.296-13.883,0-19.179l22.86-22.861
						C2447.723,861.482,2456.31,861.482,2461.606,866.778z"/>
				</g>
				<g>
					<g>
						<path style="fill:#BDD0FB;" d="M3103.096,820.138L3103.096,820.138c-2.409-2.409-6.242-2.629-8.911-0.51l-87.229,69.253
							l18.44,18.44l77.7-77.7C3105.715,827.002,3105.715,822.757,3103.096,820.138z"/>
						<path style="fill:#BDD0FB;" d="M3103.096,978.319L3103.096,978.319c-2.409,2.409-6.242,2.629-8.911,0.51l-87.229-69.252
							l18.44-18.44l77.7,77.7C3105.715,971.455,3105.715,975.7,3103.096,978.319z"/>
					</g>
					<path style="fill:#BDD0FB;" d="M3184.388,835.142l-81.253,51.549l-251.652,3.413v18.25l251.652,3.413l81.253,51.549
						c5.334,3.186,12.151,2.34,16.545-2.053l52.443-52.444c5.297-5.296,5.297-13.883,0-19.179l-52.443-52.444
						C3196.539,832.802,3189.722,831.956,3184.388,835.142z M3201.458,866.778l22.861,22.861c5.296,5.296,5.296,13.883,0,19.179
						l-22.861,22.86c-5.296,5.296-13.883,5.296-19.179,0l-22.86-22.86c-5.296-5.296-5.296-13.883,0-19.179l22.86-22.861
						C3187.575,861.482,3196.162,861.482,3201.458,866.778z"/>
				</g>
			</g>
			<g>
				<g>
					<g>
						<path style="fill:#BDD0FB;" d="M2538.911,971.311L2538.911,971.311c0.882-3.291,4.092-5.398,7.462-4.897l110.169,16.36
							l-6.75,25.19l-106.14-28.44C2540.075,978.565,2537.953,974.888,2538.911,971.311z"/>
						<path style="fill:#BDD0FB;" d="M2618.002,1108.3L2618.002,1108.3c3.291,0.882,6.72-0.845,7.972-4.014l40.916-103.589
							l-25.19-6.75l-28.44,106.14C2612.302,1103.665,2614.424,1107.341,2618.002,1108.3z"/>
					</g>
					<path style="fill:#BDD0FB;" d="M2462.711,1035.001l-19.196,71.64c-1.938,7.235,2.355,14.671,9.59,16.61l71.639,19.196
						c6.001,1.608,12.328-1.068,15.354-6.495l44.593-85.269l216.23-128.781l-9.125-15.805l-219.643,122.87l-96.141-4.016
						C2469.8,1024.859,2464.319,1029,2462.711,1035.001z M2493.657,1051.294l31.228,8.367c7.235,1.939,11.528,9.375,9.59,16.61
						l-8.368,31.228c-1.938,7.235-9.375,11.528-16.61,9.589l-31.228-8.367c-7.235-1.939-11.528-9.375-9.59-16.61l8.367-31.228
						C2478.986,1053.649,2486.423,1049.356,2493.657,1051.294z"/>
				</g>
				<g>
					<g>
						<path style="fill:#BDD0FB;" d="M3025.884,690.157L3025.884,690.157c-3.291-0.882-6.72,0.845-7.972,4.014l-40.917,103.589
							l25.19,6.75l28.44-106.139C3031.583,694.792,3029.461,691.116,3025.884,690.157z"/>
						<path style="fill:#BDD0FB;" d="M3104.974,827.146L3104.974,827.146c-0.882,3.291-4.091,5.398-7.462,4.897l-110.169-16.36
							l6.75-25.19l106.14,28.44C3103.81,819.892,3105.933,823.569,3104.974,827.146z"/>
					</g>
					<path style="fill:#BDD0FB;" d="M3103.787,662.505l-44.593,85.269l-216.23,128.782l9.125,15.805l219.643-122.87l96.142,4.016
						c6.212,0.092,11.693-4.049,13.302-10.05l19.196-71.639c1.938-7.235-2.355-14.671-9.59-16.61l-71.639-19.196
						C3113.14,654.403,3106.813,657.079,3103.787,662.505z M3134.388,681.368l31.228,8.367c7.235,1.938,11.528,9.375,9.589,16.61
						l-8.367,31.228c-1.939,7.235-9.375,11.528-16.61,9.589L3119,738.795c-7.235-1.938-11.528-9.375-9.59-16.61l8.367-31.228
						C3119.717,683.723,3127.153,679.43,3134.388,681.368z"/>
				</g>
			</g>
			<g>
				<g>
					<g>
						<path style="fill:#BDD0FB;" d="M2612.871,1103.169L2612.871,1103.169c-0.882-3.291,0.845-6.72,4.014-7.972l103.589-40.916
							l6.75,25.19l-106.14,28.44C2617.507,1108.87,2613.83,1106.747,2612.871,1103.169z"/>
						<path style="fill:#BDD0FB;" d="M2749.86,1182.26L2749.86,1182.26c3.291-0.882,5.398-4.091,4.897-7.461l-16.36-110.169
							l-25.19,6.75l28.44,106.14C2742.606,1181.096,2746.283,1183.219,2749.86,1182.26z"/>
					</g>
					<path style="fill:#BDD0FB;" d="M2578.725,1196.427l19.196,71.639c1.939,7.235,9.375,11.528,16.61,9.59l71.639-19.196
						c6.001-1.608,10.143-7.089,10.05-13.302l-4.016-96.142l122.87-219.643l-15.805-9.125l-128.781,216.23l-85.269,44.593
						C2579.793,1184.099,2577.117,1190.426,2578.725,1196.427z M2613.672,1195.064l31.228-8.367
						c7.235-1.938,14.671,2.355,16.61,9.589l8.368,31.228c1.938,7.235-2.355,14.671-9.59,16.61l-31.228,8.368
						c-7.235,1.938-14.671-2.355-16.61-9.589l-8.367-31.228C2602.144,1204.439,2606.437,1197.002,2613.672,1195.064z"/>
				</g>
				<g>
					<g>
						<path style="fill:#BDD0FB;" d="M2894.025,616.197L2894.025,616.197c-3.291,0.882-5.398,4.091-4.897,7.462l16.36,110.169
							l25.19-6.75l-28.44-106.139C2901.279,617.361,2897.602,615.238,2894.025,616.197z"/>
						<path style="fill:#BDD0FB;" d="M3031.014,695.287L3031.014,695.287c0.882,3.291-0.844,6.72-4.013,7.972l-103.589,40.916
							l-6.75-25.19l106.14-28.44C3026.379,689.588,3030.056,691.71,3031.014,695.287z"/>
					</g>
					<path style="fill:#BDD0FB;" d="M2947.665,553.298l4.015,96.142l-122.87,219.643l15.805,9.125l128.781-216.23l85.269-44.593
						c5.427-3.026,8.103-9.353,6.494-15.354l-19.196-71.639c-1.938-7.235-9.375-11.528-16.61-9.59l-71.64,19.196
						C2951.714,541.605,2947.573,547.086,2947.665,553.298z M2983.598,554.333l31.228-8.367c7.235-1.939,14.671,2.355,16.61,9.589
						l8.367,31.228c1.938,7.235-2.355,14.671-9.589,16.61l-31.228,8.367c-7.235,1.939-14.671-2.355-16.61-9.59l-8.367-31.228
						C2972.07,563.708,2976.363,556.272,2983.598,554.333z"/>
				</g>
			</g>
		</g>
		<g>
			<g>
				<path style="fill:#7D97F4;" d="M806.244,1672.38h2234.524c63.409,0,114.811-51.403,114.811-114.811v-476.371
					c0-63.409-51.403-114.811-114.812-114.811H806.244c-63.408,0-114.811,51.403-114.811,114.811v476.372
					C691.432,1620.977,742.835,1672.38,806.244,1672.38z"/>
				
					<rect x="730.148" y="1348.989" transform="matrix(-1 -1.224647e-16 1.224647e-16 -1 3847.0115 2761.7454)" style="fill:#91B3FA;" width="2386.715" height="63.767"/>
				<path style="fill:#91B3FA;" d="M913.648,1216.9h2019.715c18.331,0,33.192,18.837,33.192,42.074v240.496
					c0,17.564-8.607,33.28-21.589,39.419l-180.331,85.288c-3.712,1.755-7.641,2.655-11.603,2.655H1093.979
					c-3.962,0-7.891-0.899-11.603-2.655l-180.331-85.288c-12.982-6.14-21.589-21.855-21.589-39.419v-240.496
					C880.457,1235.737,895.317,1216.9,913.648,1216.9z"/>
				
					<linearGradient id="SVGID_00000135663260495162735050000004404140633495574941_" gradientUnits="userSpaceOnUse" x1="-4646.7466" y1="1204.9291" x2="-4728.3306" y2="1951.7323" gradientTransform="matrix(-1 0 0 1 -2736.9883 0)">
					<stop  offset="0" style="stop-color:#4F52FF"/>
					<stop  offset="1" style="stop-color:#4042E2"/>
				</linearGradient>
				<path style="fill:url(#SVGID_00000135663260495162735050000004404140633495574941_);" d="M934.56,1348.989h1977.893
					c2.209,0,4-1.791,4-4v-28.438c0-2.209-1.791-4-4-4H934.56c-2.209,0-4,1.791-4,4v28.438
					C930.56,1347.198,932.35,1348.989,934.56,1348.989z"/>
				
					<linearGradient id="SVGID_00000036940764273056555070000000070221899340149156_" gradientUnits="userSpaceOnUse" x1="-4640.6572" y1="1205.3506" x2="-4722.2412" y2="1952.1539" gradientTransform="matrix(-1 0 0 1 -2736.9883 0)">
					<stop  offset="0" style="stop-color:#4F52FF"/>
					<stop  offset="1" style="stop-color:#4042E2"/>
				</linearGradient>
				<path style="fill:url(#SVGID_00000036940764273056555070000000070221899340149156_);" d="M935.888,1417.311h1977.893
					c2.209,0,4-1.791,4-4v-28.438c0-2.209-1.791-4-4-4H935.888c-2.209,0-4,1.791-4,4v28.438
					C931.888,1415.52,933.679,1417.311,935.888,1417.311z"/>
				
					<linearGradient id="SVGID_00000069361618371756974900000002052428533092984761_" gradientUnits="userSpaceOnUse" x1="-4634.5679" y1="1205.772" x2="-4716.1519" y2="1952.5768" gradientTransform="matrix(-1 0 0 1 -2736.9883 0)">
					<stop  offset="0" style="stop-color:#4F52FF"/>
					<stop  offset="1" style="stop-color:#4042E2"/>
				</linearGradient>
				<path style="fill:url(#SVGID_00000069361618371756974900000002052428533092984761_);" d="M937.216,1485.633h1977.893
					c2.209,0,4-1.791,4-4v-28.439c0-2.209-1.791-4-4-4H937.216c-2.209,0-4,1.791-4,4v28.439
					C933.216,1483.842,935.007,1485.633,937.216,1485.633z"/>
				<path style="fill:#91B3FA;" d="M2608.054,1039.263h382.603c17.609,0,31.884,14.275,31.884,31.883
					c0,17.609-14.275,31.884-31.884,31.884h-382.603c-17.609,0-31.884-14.275-31.884-31.884
					C2576.171,1053.538,2590.446,1039.263,2608.054,1039.263z"/>
			</g>
		</g>
		<g>
			<path style="fill:#91B3FA;" d="M1965.294,3209.262c0,0,499.469-1047.266,1171.077-1532.535
				c45.147-32.621,108.511-2.633,111.563,52.982C3268.34,2101.594,3223.099,3206.511,1965.294,3209.262z"/>
			<path style="opacity:0.5;fill:#FFFFFF;" d="M2090.591,3161.81c-3.262,2.053-0.594,6.987,2.914,5.39
				c129.342-58.856,648.126-373.23,982.295-1150.63c1.073-2.498-2.547-4.318-3.832-1.923
				C2977.282,2191.136,2606.452,2837.233,2090.591,3161.81z"/>
		</g>
		<g>
			<path style="fill:#BDD0FB;" d="M1981.053,3016.156c0,0,333.784-1251.182,971.385-1920.974
				c42.861-45.025,118.515-25.084,133.239,35.31C3184.133,1534.335,3360.503,2755.86,1981.053,3016.156z"/>
			<path style="opacity:0.5;fill:#FFFFFF;" d="M2108.817,2938.464c-3.159,2.92,0.778,7.787,4.301,5.318
				c129.869-91.031,634.754-542.064,842.377-1463.349c0.667-2.959-3.677-4.216-4.597-1.325
				C2883.112,1692.111,2608.409,2476.835,2108.817,2938.464z"/>
		</g>
		<g>
			
				<linearGradient id="SVGID_00000045604578497447471350000013421907572944885924_" gradientUnits="userSpaceOnUse" x1="584.8514" y1="3457.1826" x2="1938.4542" y2="1977.3108">
				<stop  offset="0" style="stop-color:#4F52FF"/>
				<stop  offset="1" style="stop-color:#4042E2"/>
			</linearGradient>
			<path style="fill:url(#SVGID_00000045604578497447471350000013421907572944885924_);" d="M2454.868,3218.422H576.459
				c-63.599,0-115.156-36.435-115.156-81.379V1742.034c0-43.889,49.248-79.871,111.319-81.334l1950.618-45.949
				c66.675-1.571,121.281,37.099,118.92,84.214l-72.209,1440.958C2567.758,3183.719,2516.881,3218.422,2454.868,3218.422z"/>
			<g>
				
					<ellipse transform="matrix(0.7071 -0.7071 0.7071 0.7071 -1323.4135 1640.6848)" style="fill:#7D97F4;" cx="1318.775" cy="2417.844" rx="628.542" ry="628.542"/>
				
					<linearGradient id="SVGID_00000096746333530149245560000002667466076090793905_" gradientUnits="userSpaceOnUse" x1="1849.272" y1="1925.4482" x2="690.9835" y2="3000.5461">
					<stop  offset="0" style="stop-color:#09005D"/>
					<stop  offset="1" style="stop-color:#1A0F91"/>
				</linearGradient>
				
					<circle style="fill:url(#SVGID_00000096746333530149245560000002667466076090793905_);" cx="1318.775" cy="2417.844" r="589.258"/>
				<g>
					<g>
						
							<linearGradient id="SVGID_00000170274513880054916550000007048930953354290104_" gradientUnits="userSpaceOnUse" x1="1476.4054" y1="1949.4996" x2="1105.9001" y2="2293.3945">
							<stop  offset="0" style="stop-color:#4F52FF"/>
							<stop  offset="1" style="stop-color:#4042E2"/>
						</linearGradient>
						<path style="fill:url(#SVGID_00000170274513880054916550000007048930953354290104_);" d="M1454.842,2082.99
							c0,128.432-68.007,278.671-151.898,278.671s11.851-173.464-151.898-278.671c-102.152-65.632,68.007-186.421,151.898-186.421
							S1454.842,1954.559,1454.842,2082.99z"/>
						
							<linearGradient id="SVGID_00000135667472648359781130000007164516903316151986_" gradientUnits="userSpaceOnUse" x1="561.1683" y1="-2956.4124" x2="190.663" y2="-2612.5176" gradientTransform="matrix(-1 0 0 -1 1698.3412 -105)">
							<stop  offset="0" style="stop-color:#4F52FF"/>
							<stop  offset="1" style="stop-color:#4042E2"/>
						</linearGradient>
						<path style="fill:url(#SVGID_00000135667472648359781130000007164516903316151986_);" d="M1158.736,2717.922
							c0-128.432,68.007-278.671,151.898-278.671c83.891,0-11.851,173.464,151.898,278.671
							c102.152,65.632-68.007,186.421-151.898,186.421C1226.743,2904.343,1158.736,2846.354,1158.736,2717.922z"/>
						
							<linearGradient id="SVGID_00000165215487329712665270000000150352493409584061_" gradientUnits="userSpaceOnUse" x1="-1367.6692" y1="11.6622" x2="-1738.1744" y2="355.557" gradientTransform="matrix(0 -1 1 0 844.1706 863.1706)">
							<stop  offset="0" style="stop-color:#4F52FF"/>
							<stop  offset="1" style="stop-color:#4042E2"/>
						</linearGradient>
						<path style="fill:url(#SVGID_00000165215487329712665270000000150352493409584061_);" d="M989.323,2252.403
							c128.432,0,278.671,68.007,278.671,151.898s-173.464-11.851-278.671,151.898c-65.632,102.152-186.421-68.007-186.421-151.898
							S860.892,2252.403,989.323,2252.403z"/>
						
							<linearGradient id="SVGID_00000083807367573924228670000007980005179745349289_" gradientUnits="userSpaceOnUse" x1="3405.2427" y1="-1018.5749" x2="3034.7375" y2="-674.6801" gradientTransform="matrix(0 1 -1 0 739.1706 -835.1706)">
							<stop  offset="0" style="stop-color:#4F52FF"/>
							<stop  offset="1" style="stop-color:#4042E2"/>
						</linearGradient>
						<path style="fill:url(#SVGID_00000083807367573924228670000007980005179745349289_);" d="M1624.255,2548.509
							c-128.432,0-278.671-68.007-278.671-151.898s173.464,11.851,278.671-151.897c65.632-102.153,186.421,68.007,186.421,151.897
							S1752.687,2548.509,1624.255,2548.509z"/>
						
							<linearGradient id="SVGID_00000162318374782855263460000011714851682607278734_" gradientUnits="userSpaceOnUse" x1="1470.608" y1="2141.4287" x2="1935.278" y2="1393.917">
							<stop  offset="0" style="stop-color:#4F52FF"/>
							<stop  offset="1" style="stop-color:#4042E2"/>
						</linearGradient>
						
							<circle style="fill:url(#SVGID_00000162318374782855263460000011714851682607278734_);" cx="1308.231" cy="2402.644" r="122.541"/>
					</g>
					<g>
						<g>
							<path style="fill:#FFFFFF;" d="M939.479,2117.739c-0.641,0-1.289-0.184-1.865-0.566c-1.549-1.032-1.966-3.124-0.934-4.669
								c39.349-59.011,98.363-102.944,166.174-123.707c1.789-0.552,3.66,0.454,4.206,2.233c0.546,1.779-0.454,3.663-2.233,4.206
								c-66.331,20.313-124.056,63.286-162.543,121.004C941.636,2117.213,940.567,2117.739,939.479,2117.739z"/>
							<path style="fill:#FFFFFF;" d="M981.603,2183.044c-0.602,0-1.21-0.161-1.763-0.5c-1.582-0.973-2.075-3.048-1.102-4.634
								c35.597-57.84,90.369-102.408,154.227-125.492c1.743-0.631,3.68,0.273,4.311,2.022c0.631,1.75-0.273,3.68-2.022,4.311
								c-62.431,22.572-115.979,66.143-150.781,122.691C983.839,2182.475,982.734,2183.044,981.603,2183.044z"/>
						</g>
						<path style="fill:#FFFFFF;" d="M1482.676,2834.588c-1.348,0-2.624-0.815-3.14-2.151c-0.671-1.733,0.191-3.683,1.924-4.357
							c74.358-28.826,134.638-78.998,169.735-141.28c0.911-1.615,2.963-2.2,4.587-1.279c1.618,0.914,2.193,2.966,1.279,4.587
							c-35.86,63.634-97.36,114.865-173.168,144.253C1483.495,2834.516,1483.08,2834.588,1482.676,2834.588z"/>
						<path style="fill:#FFFFFF;" d="M1436.119,2775.472c-1.296,0-2.529-0.75-3.085-2.009c-0.75-1.703,0.023-3.69,1.723-4.439
							c69.376-30.559,124.641-80.777,155.611-141.399c0.848-1.654,2.884-2.308,4.531-1.467c1.654,0.845,2.312,2.874,1.467,4.531
							c-31.674,62-88.103,113.316-158.893,144.496C1437.033,2775.38,1436.569,2775.472,1436.119,2775.472z"/>
					</g>
					<g>
						<g>
							<path style="fill:#FFFFFF;" d="M945.381,2719.188c-0.825,0-1.651-0.299-2.299-0.908
								c-51.822-48.422-85.568-113.796-95.022-184.082c-0.247-1.845,1.046-3.538,2.887-3.788c1.891-0.247,3.542,1.046,3.788,2.887
								c9.247,68.751,42.256,132.701,92.944,180.064c1.358,1.269,1.43,3.4,0.161,4.758
								C947.18,2718.829,946.279,2719.188,945.381,2719.188z"/>
							<path style="fill:#FFFFFF;" d="M1016.668,2688.25c-0.783,0-1.572-0.273-2.207-0.825
								c-51.276-44.529-86.337-105.821-98.728-172.589c-0.339-1.828,0.868-3.588,2.697-3.926c1.818-0.358,3.584,0.865,3.926,2.697
								c12.115,65.275,46.393,125.2,96.518,168.735c1.404,1.22,1.555,3.344,0.335,4.748
								C1018.545,2687.859,1017.608,2688.25,1016.668,2688.25z"/>
						</g>
						<path style="fill:#FFFFFF;" d="M1741.054,2299.862c-1.559,0-2.96-1.089-3.292-2.677
							c-16.343-78.054-56.041-145.693-111.783-190.462c-1.45-1.164-1.684-3.282-0.516-4.732c1.164-1.45,3.282-1.68,4.732-0.516
							c56.955,45.739,97.498,114.756,114.157,194.329c0.381,1.822-0.786,3.604-2.604,3.986
							C1741.514,2299.838,1741.281,2299.862,1741.054,2299.862z"/>
						<path style="fill:#FFFFFF;" d="M1675.15,2336.182c-1.5,0-2.867-1.01-3.259-2.529
							c-18.866-73.424-59.422-136.121-114.197-176.542c-1.496-1.105-1.815-3.213-0.71-4.709c1.105-1.496,3.209-1.812,4.709-0.71
							c56.018,41.339,97.472,105.364,116.722,180.284c0.464,1.802-0.621,3.637-2.424,4.101
							C1675.709,2336.149,1675.43,2336.182,1675.15,2336.182z"/>
					</g>
				</g>
			</g>
			<g>
				<path style="fill:#7D97F4;" d="M2437.046,1953.935H1965.64c-12.718,0-23.028-10.31-23.028-23.028l0,0
					c0-12.719,10.31-23.029,23.028-23.029h471.406c12.719,0,23.029,10.31,23.029,23.029l0,0
					C2460.075,1943.625,2449.765,1953.935,2437.046,1953.935z"/>
				<path style="fill:#7D97F4;" d="M2437.046,2029.793H1965.64c-12.718,0-23.028-10.31-23.028-23.028l0,0
					c0-12.719,10.31-23.029,23.028-23.029h471.406c12.719,0,23.029,10.31,23.029,23.029l0,0
					C2460.075,2019.483,2449.765,2029.793,2437.046,2029.793z"/>
				<path style="fill:#7D97F4;" d="M2437.046,2105.652H1965.64c-12.718,0-23.028-10.31-23.028-23.028l0,0
					c0-12.719,10.31-23.029,23.028-23.029h471.406c12.719,0,23.029,10.31,23.029,23.029l0,0
					C2460.075,2095.342,2449.765,2105.652,2437.046,2105.652z"/>
			</g>
			<g>
				
					<ellipse transform="matrix(0.2669 -0.9637 0.9637 0.2669 -300.6555 3119.031)" style="fill:#7D97F4;" cx="1899.865" cy="1757.142" rx="56.894" ry="56.894"/>
				
					<ellipse transform="matrix(0.7882 -0.6154 0.6154 0.7882 -677.3176 1540.7738)" style="fill:#BDD0FB;" cx="1899.865" cy="1754.432" rx="40.639" ry="40.638"/>
			</g>
			<g>
				
					<ellipse transform="matrix(0.8112 -0.5847 0.5847 0.8112 -633.5186 1551.8485)" style="fill:#7D97F4;" cx="2086.802" cy="1757.142" rx="56.894" ry="56.894"/>
				
					<ellipse transform="matrix(0.5257 -0.8507 0.8507 0.5257 -502.7051 2607.2092)" style="fill:#BDD0FB;" cx="2086.802" cy="1754.432" rx="40.639" ry="40.638"/>
			</g>
			<path style="fill:#BDD0FB;" d="M545.289,2308.776c-1.861,0-3.367-1.506-3.367-3.367v-489.922
				c0-44.555,34.824-81.767,79.28-84.716l414.236-27.462c1.838-0.085,3.459,1.282,3.584,3.137c0.122,1.858-1.282,3.459-3.137,3.584
				l-414.236,27.462c-40.931,2.713-72.993,36.972-72.993,77.995v489.922C548.657,2307.27,547.151,2308.776,545.289,2308.776z"/>
			<path style="fill:#BDD0FB;" d="M2442.019,3151.348H2065.17c-1.861,0-3.367-1.506-3.367-3.367s1.506-3.367,3.367-3.367h376.849
				c32.97,0,59.754-25.811,60.977-58.76l19.379-523.191c0.066-1.858,1.582-3.456,3.489-3.239c1.858,0.069,3.308,1.631,3.239,3.489
				l-19.379,523.191C2508.37,3122.689,2478.629,3151.348,2442.019,3151.348z"/>
		</g>
		<g>
			
				<linearGradient id="SVGID_00000106126478648066849350000011521668188660723879_" gradientUnits="userSpaceOnUse" x1="-5307.084" y1="1758.8306" x2="-5371.9453" y2="2393.928" gradientTransform="matrix(-1 0 0 1 -2304.6357 0)">
				<stop  offset="0" style="stop-color:#FEBBBA"/>
				<stop  offset="1" style="stop-color:#FF928E"/>
			</linearGradient>
			<path style="fill:url(#SVGID_00000106126478648066849350000011521668188660723879_);" d="M3042.708,2256.014
				c10.663-28.349,15.265-62.065,8.25-101.385c43.053-7.493,83.221-22.846,118.466-47.284
				c4.19,60.516-11.879,127.341-67.602,193.621l0,0c-27.052,32.176-63.441,64.225-111.401,95.359l-14.127,30.157l-42.441-52.864
				C2933.853,2373.618,3012.503,2336.314,3042.708,2256.014z"/>
			<g>
				
					<linearGradient id="SVGID_00000075849143647455503980000007368497646470396295_" gradientUnits="userSpaceOnUse" x1="2771.8552" y1="1726.7831" x2="3142.2625" y2="1255.3553">
					<stop  offset="0" style="stop-color:#FEBBBA"/>
					<stop  offset="1" style="stop-color:#FF928E"/>
				</linearGradient>
				<path style="fill:url(#SVGID_00000075849143647455503980000007368497646470396295_);" d="M2445.622,1992.681
					c43.509,7.62,81.594,1.929,115.245-10.553c0.886,7.475,2.148,14.988,3.893,22.55c7.353,33.086,17.479,65.131,31.677,94.672
					c-65.195,9.639-124.072-9.276-167.965-31.847C2427.863,2036.887,2436.223,2011.432,2445.622,1992.681z"/>
				
					<linearGradient id="SVGID_00000018222840181827214280000014879689930196118687_" gradientUnits="userSpaceOnUse" x1="8368.8789" y1="-13152.1689" x2="8136.5435" y2="-12889.5293" gradientTransform="matrix(-1 0 0 1 -2304.6357 0)">
					<stop  offset="0" style="stop-color:#FF928E"/>
					<stop  offset="1" style="stop-color:#FE7062"/>
				</linearGradient>
				<path style="fill:url(#SVGID_00000018222840181827214280000014879689930196118687_);" d="M2560.867,1982.128
					c56.524-20.967,100.531-61.101,136.681-89.546c76.142-59.914,133.929-28.976,133.929-28.976l-82.957,156.884
					c-51.817,48.824-103.69,71.706-152.083,78.86c-14.198-29.54-24.325-61.585-31.677-94.672
					C2563.015,1997.116,2561.753,1989.603,2560.867,1982.128z"/>
				
					<linearGradient id="SVGID_00000182502988790294451170000011589132702290287007_" gradientUnits="userSpaceOnUse" x1="-5603.519" y1="1600.9569" x2="-6151.8262" y2="2302.4673" gradientTransform="matrix(-0.9998 -0.0189 -0.0189 0.9998 -3408.4319 -2.4894)">
					<stop  offset="0" style="stop-color:#FEBBBA"/>
					<stop  offset="1" style="stop-color:#FF928E"/>
				</linearGradient>
				<path style="fill:url(#SVGID_00000182502988790294451170000011589132702290287007_);" d="M2282.635,1917.172l38.37,22.39
					c45.952,30.267,87.276,46.581,124.617,53.119c-9.399,18.751-17.76,44.206-17.15,74.822
					c-48.682-25.033-78.942-54.547-78.942-54.547C2262.71,1956.931,2282.635,1917.172,2282.635,1917.172z"/>
			</g>
			<g>
				
					<linearGradient id="SVGID_00000137822899831522572040000012349673088358511524_" gradientUnits="userSpaceOnUse" x1="381.1766" y1="-8502.9307" x2="1017.5714" y2="-9856.5342" gradientTransform="matrix(-1 0 0 1 -2304.6357 0)">
					<stop  offset="0" style="stop-color:#FF928E"/>
					<stop  offset="1" style="stop-color:#FE7062"/>
				</linearGradient>
				<path style="fill:url(#SVGID_00000137822899831522572040000012349673088358511524_);" d="M2717.536,3002.519l-313.118-1314.752
					l-134.018,25.865l198.629,1336.849c0.443,2.981,0.952,5.956,1.523,8.917l8.631,44.72c14.81,76.74,68.76,130.853,120.503,120.867
					l61.514-11.872c51.743-9.986,81.682-80.29,66.871-157.029l-8.631-44.721C2718.869,3008.402,2718.233,3005.451,2717.536,3002.519
					z M2614.509,3136.477c-34.331,6.626-71.201-34.84-82.351-92.616c-11.151-57.776,7.641-109.984,41.972-116.61
					c34.33-6.625,71.198,34.842,82.349,92.617C2667.629,3077.644,2648.839,3129.852,2614.509,3136.477z"/>
				
					<linearGradient id="SVGID_00000054979329168614676770000016245318979662120356_" gradientUnits="userSpaceOnUse" x1="3228.3247" y1="730.8026" x2="2733.3501" y2="1119.7107">
					<stop  offset="0" style="stop-color:#FF928E"/>
					<stop  offset="1" style="stop-color:#FE7062"/>
				</linearGradient>
				<path style="fill:url(#SVGID_00000054979329168614676770000016245318979662120356_);" d="M2384.548,1221.646l50.08,259.489
					c3.566,18.475-1.646,37.559-14.108,51.659l-63.878,72.27c-18.234,20.629-48.074,26.387-72.676,14.026l-86.183-43.31
					c-16.813-8.449-28.753-24.223-32.319-42.699l-50.08-259.488c-7.554-39.139-58.013-51.755-82.361-20.194
					c-58.25,75.504-84.989,176.484-65.063,279.729c36.015,186.61,206.298,286.897,385.792,252.256
					c179.494-34.641,300.227-191.095,264.212-377.703c-19.926-103.246-82.321-187.024-164.485-235.429
					C2419.134,1152.02,2376.995,1182.506,2384.548,1221.646z"/>
				
					<linearGradient id="SVGID_00000063605628040128592760000014648959580489399699_" gradientUnits="userSpaceOnUse" x1="165.4883" y1="-8604.3242" x2="801.8835" y2="-9957.9277" gradientTransform="matrix(-1 0 0 1 -2304.6357 0)">
					<stop  offset="0" style="stop-color:#FF928E"/>
					<stop  offset="1" style="stop-color:#FE7062"/>
				</linearGradient>
				<path style="fill:url(#SVGID_00000063605628040128592760000014648959580489399699_);" d="M2360.093,1226.366l50.08,259.488
					c3.566,18.476-1.646,37.56-14.107,51.658l-63.88,72.272c-18.233,20.63-48.073,26.388-72.674,14.025l-86.185-43.309
					c-16.813-8.448-28.752-24.223-32.318-42.697l-50.08-259.489c-7.553-39.14-58.012-51.755-82.361-20.196
					c-58.25,75.505-84.987,176.485-65.062,279.73c36.016,186.61,206.298,286.897,385.792,252.256
					c179.493-34.642,300.227-191.094,264.212-377.704c-19.926-103.245-82.322-187.024-164.486-235.427
					C2394.677,1156.738,2352.538,1187.225,2360.093,1226.366z"/>
				
					<linearGradient id="SVGID_00000058586882750283941040000006471904644395398812_" gradientUnits="userSpaceOnUse" x1="398.6061" y1="-8494.7451" x2="1035.0007" y2="-9848.3486" gradientTransform="matrix(-1 0 0 1 -2304.6357 0)">
					<stop  offset="0" style="stop-color:#FF928E"/>
					<stop  offset="1" style="stop-color:#FE7062"/>
				</linearGradient>
				<path style="fill:url(#SVGID_00000058586882750283941040000006471904644395398812_);" d="M2698.028,3006.284l-313.118-1314.752
					l-134.017,25.865l198.629,1336.848c0.443,2.981,0.952,5.956,1.523,8.916l8.631,44.721
					c14.811,76.74,68.76,130.853,120.504,120.867l61.514-11.872c51.742-9.986,81.68-80.289,66.87-157.029l-8.631-44.721
					C2699.361,3012.166,2698.724,3009.216,2698.028,3006.284z M2595.001,3140.243c-34.33,6.625-71.199-34.84-82.351-92.616
					c-11.151-57.777,7.642-109.984,41.971-116.611c34.331-6.626,71.2,34.841,82.349,92.616
					C2648.121,3081.409,2629.332,3133.616,2595.001,3140.243z"/>
			</g>
			
				<linearGradient id="SVGID_00000042732337469580376430000006845368141219499704_" gradientUnits="userSpaceOnUse" x1="2657.4053" y1="1780.9479" x2="3344.3428" y2="1356.6635">
				<stop  offset="0" style="stop-color:#FEBBBA"/>
				<stop  offset="1" style="stop-color:#FF928E"/>
			</linearGradient>
			<path style="fill:url(#SVGID_00000042732337469580376430000006845368141219499704_);" d="M2277.632,1975.045
				c-1.427-8.383,1.025-16.893,6.585-23.326c10.776-12.466,29.395-29.546,42.899-18.034c20.112,17.146-1.926,75.783-1.926,75.783
				l-22.298,34.053l-0.315,21.734C2290.516,2051.13,2283.302,2016.381,2277.632,1975.045z"/>
			
				<linearGradient id="SVGID_00000087405496885986165880000015952825329538590376_" gradientUnits="userSpaceOnUse" x1="-5558.4302" y1="2744.2117" x2="-5554.2524" y2="3203.7412" gradientTransform="matrix(-0.9998 -0.0189 -0.0189 0.9998 -2640.8 12.0052)">
				<stop  offset="0" style="stop-color:#4F52FF"/>
				<stop  offset="1" style="stop-color:#4042E2"/>
			</linearGradient>
			<path style="fill:url(#SVGID_00000087405496885986165880000015952825329538590376_);" d="M2791.686,3238.715
				c0.002-0.93,0.082-1.872,0.339-2.817c15.119-55.494,85.58-88.908,85.58-88.908l27.622,2.691
				c14.977,49.448,12.364,79.552,9.556,92.928c-0.077,0.375-0.198,0.73-0.305,1.093
				C2891.62,3245.31,2844.627,3245.755,2791.686,3238.715z"/>
			
				<linearGradient id="SVGID_00000053545736403118579300000010686967836987544238_" gradientUnits="userSpaceOnUse" x1="-5304.8384" y1="2931.7053" x2="-5759.2251" y2="3288.491" gradientTransform="matrix(-0.9998 -0.0189 -0.0189 0.9998 -2640.8 12.0052)">
				<stop  offset="0" style="stop-color:#4F52FF"/>
				<stop  offset="1" style="stop-color:#4042E2"/>
			</linearGradient>
			<path style="fill:url(#SVGID_00000053545736403118579300000010686967836987544238_);" d="M2914.477,3243.703
				c-1.316,4.46-4.692,7.888-8.946,8.7c-32.588,6.213-84.077-0.254-105.684-3.496c-4.767-0.715-8.177-5.201-8.162-10.191
				C2844.627,3245.755,2891.62,3245.31,2914.477,3243.703z"/>
			
				<linearGradient id="SVGID_00000046314193735630425150000013896431065750138499_" gradientUnits="userSpaceOnUse" x1="-5582.7817" y1="2936.8533" x2="-5606.6406" y2="3145.0745" gradientTransform="matrix(-0.9998 -0.0189 -0.0189 0.9998 -2640.8 12.0052)">
				<stop  offset="0" style="stop-color:#FEBBBA"/>
				<stop  offset="1" style="stop-color:#FF928E"/>
			</linearGradient>
			<path style="fill:url(#SVGID_00000046314193735630425150000013896431065750138499_);" d="M2917.128,3108.69l-12.781,56.179
				c-0.936,4.116-4.171,7.151-8.024,7.44c-4.717,0.353-11.423,0.486-18.145-0.632c-6.028-1.002-10.12-7.224-8.924-13.795
				l9.089-49.924L2917.128,3108.69z"/>
			
				<linearGradient id="SVGID_00000095309835789302606940000000738089813954096830_" gradientUnits="userSpaceOnUse" x1="-5224.1157" y1="3034.5095" x2="-5678.5029" y2="3391.2959" gradientTransform="matrix(-0.9998 -0.0189 -0.0189 0.9998 -2640.8 12.0052)">
				<stop  offset="0" style="stop-color:#4F52FF"/>
				<stop  offset="1" style="stop-color:#4042E2"/>
			</linearGradient>
			<path style="fill:url(#SVGID_00000095309835789302606940000000738089813954096830_);" d="M2671.845,3238.555
				c30.567-0.279,46.436-3.578,54.668-6.764c-0.037,3.038-0.113,6.13-0.273,9.331c-0.169,3.418-2.755,6.104-5.872,6.025
				l-167.722-4.25c-5.352-0.136-8.363-6.403-5.951-11.268C2568.655,3233.861,2624.594,3238.985,2671.845,3238.555z"/>
			
				<linearGradient id="SVGID_00000047773815262616062630000012853821706899899031_" gradientUnits="userSpaceOnUse" x1="-5340.8584" y1="2742.2346" x2="-5336.6807" y2="3201.7683" gradientTransform="matrix(-0.9998 -0.0189 -0.0189 0.9998 -2640.8 12.0052)">
				<stop  offset="0" style="stop-color:#4F52FF"/>
				<stop  offset="1" style="stop-color:#4042E2"/>
			</linearGradient>
			<path style="fill:url(#SVGID_00000047773815262616062630000012853821706899899031_);" d="M2546.695,3231.63
				c0.21-0.424,0.393-0.855,0.688-1.253c15.204-20.419,53.714-60.925,128.607-77.394l35.788-0.455c0,0,15.403,27.983,14.734,79.263
				c-8.231,3.185-24.101,6.484-54.668,6.764C2624.594,3238.985,2568.655,3233.861,2546.695,3231.63z"/>
			
				<linearGradient id="SVGID_00000152978343330623900930000002249360456958818434_" gradientUnits="userSpaceOnUse" x1="-5388.438" y1="2959.1277" x2="-5412.2959" y2="3167.3445" gradientTransform="matrix(-0.9998 -0.0189 -0.0189 0.9998 -2640.8 12.0052)">
				<stop  offset="0" style="stop-color:#FEBBBA"/>
				<stop  offset="1" style="stop-color:#FF928E"/>
			</linearGradient>
			<path style="fill:url(#SVGID_00000152978343330623900930000002249360456958818434_);" d="M2719.433,3098.449
				c-0.447,2.659-6.115,43.086-8.31,58.761c-0.521,3.724-3.28,6.563-6.697,6.905c-6.104,0.613-15.972,1.09-24.561-0.841
				c-4.633-1.043-7.916-5.573-7.818-10.77l1.201-63.604L2719.433,3098.449z"/>
			
				<linearGradient id="SVGID_00000123406956704451689610000014034770512143794057_" gradientUnits="userSpaceOnUse" x1="-5192.3813" y1="1595.2656" x2="-5673.1675" y2="3206.2119" gradientTransform="matrix(-0.9998 -0.0189 -0.0189 0.9998 -2640.8 12.0052)">
				<stop  offset="0" style="stop-color:#09005D"/>
				<stop  offset="1" style="stop-color:#1A0F91"/>
			</linearGradient>
			<path style="fill:url(#SVGID_00000123406956704451689610000014034770512143794057_);" d="M2765.347,2337.096
				c0,0-99.423,412.733-105.654,825.321c-0.113,7.522,57.422,14.158,58.739,7.231c13.435-70.707,102.003-531.245,142.777-595.373
				c0,0-0.92,405.886-12.724,590.378c-0.293,4.587,51.89,19.617,62.787,7.907c0.001,0.004,73.538-449.207,76.553-731.108
				c0.155-14.519-26.049-104.357-26.049-104.357H2765.347z"/>
			
				<linearGradient id="SVGID_00000116211028678019083600000002639651712475770559_" gradientUnits="userSpaceOnUse" x1="-4997.25" y1="1897.1066" x2="-4998.7959" y2="1912.2437" gradientTransform="matrix(-1 0 0 1 -2304.6357 0)">
				<stop  offset="0" style="stop-color:#FDF53F"/>
				<stop  offset="0.6645" style="stop-color:#E57A58"/>
				<stop  offset="1" style="stop-color:#D93C65"/>
			</linearGradient>
			<path style="fill:url(#SVGID_00000116211028678019083600000002639651712475770559_);" d="M2691.794,1898.04
				C2697.945,1890.159,2690.192,1914.053,2691.794,1898.04L2691.794,1898.04z"/>
			
				<linearGradient id="SVGID_00000077299879363417073500000002301622026480683685_" gradientUnits="userSpaceOnUse" x1="8320.0088" y1="-13195.3867" x2="8087.6743" y2="-12932.7471" gradientTransform="matrix(-1 0 0 1 -2304.6357 0)">
				<stop  offset="0" style="stop-color:#FF928E"/>
				<stop  offset="1" style="stop-color:#FE7062"/>
			</linearGradient>
			<path style="fill:url(#SVGID_00000077299879363417073500000002301622026480683685_);" d="M2691.794,1898.04
				c0.149-1.49,0.376-3.315,0.707-5.554c108.768-75.409,269.611-33.163,331.964-24.11c20.445,2.969,38.997,13.426,52.208,29.311
				c31.766,38.196,86.298,116.44,92.751,209.658c-35.244,24.438-75.413,39.791-118.466,47.284
				c-3.589-20.118-10.211-41.699-20.635-64.787c-1.197,5.338-2.652,10.617-4.397,15.807
				c-46.851,139.213-71.29,218.708-71.698,245.57c-0.054,3.647-214.608-5.24-176.608-6.352
				c15.878-0.464-73.971-317.411-120.917-373.662C2653.914,1967.865,2697.945,1890.159,2691.794,1898.04z"/>
			
				<linearGradient id="SVGID_00000133488766770839212680000008704898803849494439_" gradientUnits="userSpaceOnUse" x1="-5530.0459" y1="1605.7676" x2="-5621.1411" y2="1999.4281" gradientTransform="matrix(-0.9998 -0.0189 -0.0189 0.9998 -2640.8 12.0052)">
				<stop  offset="0" style="stop-color:#FEBBBA"/>
				<stop  offset="1" style="stop-color:#FF928E"/>
			</linearGradient>
			<path style="fill:url(#SVGID_00000133488766770839212680000008704898803849494439_);" d="M2926.031,1753.918l9.05,114.772
				c0,0-64.814,18.195-111.062-15.764l34.917-103.496L2926.031,1753.918z"/>
			<g>
				
					<linearGradient id="SVGID_00000077320485285817483750000010768534030452677030_" gradientUnits="userSpaceOnUse" x1="-5346.979" y1="1743.3909" x2="-4709.4038" y2="1591.4109" gradientTransform="matrix(-1 0 0 1 -2304.6357 0)">
					<stop  offset="0" style="stop-color:#FEBBBA"/>
					<stop  offset="1" style="stop-color:#FF928E"/>
				</linearGradient>
				<path style="fill:url(#SVGID_00000077320485285817483750000010768534030452677030_);" d="M2853.716,1621.934
					c-1.579,1.431-67.859,125.73-67.859,125.73l71.777,36.336l80.323-108.477C2937.957,1675.524,2880.144,1597.98,2853.716,1621.934
					z"/>
				
					<linearGradient id="SVGID_00000078044289571908650900000005221833056917520314_" gradientUnits="userSpaceOnUse" x1="-5147.9497" y1="1324.9319" x2="-5188.5352" y2="1877.5251" gradientTransform="matrix(-1 0 0 1 -2304.6357 0)">
					<stop  offset="0" style="stop-color:#09005D"/>
					<stop  offset="1" style="stop-color:#1A0F91"/>
				</linearGradient>
				<path style="fill:url(#SVGID_00000078044289571908650900000005221833056917520314_);" d="M2877.845,1648.544
					c16.1,2.36,24.617,20.144,28.005,29.419c1.228,3.367,0.84,7.093-1.062,10.132l-37.265,59.543
					c-0.567,0.903-1.234,1.716-2.028,2.428c-4.376,3.922-19.31,15.286-30.387-0.78c-9.441-13.694-18.305-26.149-27.958-31.399
					c-5.636-3.067-12.686-0.836-15.684,4.837c-6.175,11.685-18.159,35.517-25.833,58.184c-1.923,5.682,0.912,11.874,6.427,14.231
					c14.555,6.22,43.342,17.514,69,21.55c4.215,0.663,8.432-1.041,11.012-4.439c11.353-14.953,43.347-56.735,54.194-67.139
					c10.077-9.667,28.262-5.607,36.443-3.088c3.106,0.957,6.438,0.587,9.252-1.036c8.441-4.869,23.242-17.113,10.319-38.557
					c-3.213-5.332-1.392-12.32,3.873-15.642c9.433-5.953,19.762-17.268,10.479-36.083c-11.724-23.762-44.957-21.524-63.606-39.028
					c-9.192-8.628-18.226-18.231-30.167-22.277c-2.562-0.868-5.246-1.463-7.951-1.409c-11.733,0.237-29.498,19.573-30.297,31.252
					C2843.472,1635.917,2863.824,1646.488,2877.845,1648.544z"/>
				
					<linearGradient id="SVGID_00000093857840304686861230000006673517144961331642_" gradientUnits="userSpaceOnUse" x1="-5618.6255" y1="1771.7823" x2="-4821.6548" y2="1734.7139" gradientTransform="matrix(-1 0 0 1 -2304.6357 0)">
					<stop  offset="0" style="stop-color:#FEBBBA"/>
					<stop  offset="1" style="stop-color:#FF928E"/>
				</linearGradient>
				<path style="fill:url(#SVGID_00000093857840304686861230000006673517144961331642_);" d="M2892.279,1766.97
					c0,0,14.666-40.402,32.428-38.574c17.762,1.828,31.429,19.815,9.006,39.322
					C2905.819,1791.982,2892.279,1766.97,2892.279,1766.97z"/>
			</g>
			
				<linearGradient id="SVGID_00000044159009921298327200000002926191749925904519_" gradientUnits="userSpaceOnUse" x1="-559.1547" y1="-9089.0088" x2="77.242" y2="-10442.6162" gradientTransform="matrix(-0.9998 -0.0189 -0.0189 0.9998 -2640.8 12.0052)">
				<stop  offset="0" style="stop-color:#FF928E"/>
				<stop  offset="1" style="stop-color:#FE7062"/>
			</linearGradient>
			<path style="fill:url(#SVGID_00000044159009921298327200000002926191749925904519_);" d="M3036.389,2079.479
				c24.66-63.73,17.616-141.383,17.542-142.159l-6.475,0.616c0.071,0.762,6.962,76.925-17.137,139.195L3036.389,2079.479z"/>
			
				<linearGradient id="SVGID_00000178174633088379182680000010402800844935675305_" gradientUnits="userSpaceOnUse" x1="-4562.6099" y1="1721.066" x2="-5137.0591" y2="2451.6165" gradientTransform="matrix(-1 0 0 1 -2304.6357 0)">
				<stop  offset="0" style="stop-color:#09005D"/>
				<stop  offset="1" style="stop-color:#1A0F91"/>
			</linearGradient>
			<path style="fill:url(#SVGID_00000178174633088379182680000010402800844935675305_);" d="M2864.537,2565.978
				c1.445,0.027,2.785-0.917,3.191-2.377c7.674-27.456,61.816-56.766,62.361-57.059c1.583-0.849,2.18-2.821,1.329-4.404
				c-0.85-1.583-2.812-2.181-4.404-1.33c-2.327,1.249-57.133,30.92-65.552,61.042c-0.484,1.73,0.528,3.526,2.257,4.008
				C2863.991,2565.934,2864.268,2565.972,2864.537,2565.978z"/>
			
				<linearGradient id="SVGID_00000180347071576270885980000017616645127810884234_" gradientUnits="userSpaceOnUse" x1="-5053.3921" y1="1755.5618" x2="-5534.1792" y2="3366.5115" gradientTransform="matrix(-1 0 0 1 -2304.6357 0)">
				<stop  offset="0" style="stop-color:#09005D"/>
				<stop  offset="1" style="stop-color:#1A0F91"/>
			</linearGradient>
			<path style="fill:url(#SVGID_00000180347071576270885980000017616645127810884234_);" d="M3018.925,2130.386l-80.051-120.605
				c-0.573-0.863-1.54-1.382-2.576-1.382h-146.562c-2.405,0-4.63,1.27-5.854,3.34l-69.657,117.88
				c-1.209,2.045-1.639,4.458-1.211,6.795c27.576,83.729,54.25,166.125,52.333,206.219c49.953,39.025,137.838,30.871,197.834,12.92
				c3.087-52.314,28.825-134.653,56.781-219.931C3020.32,2133.809,3019.948,2131.927,3018.925,2130.386z"/>
			
				<linearGradient id="SVGID_00000029032574770717647040000010334287007760946071_" gradientUnits="userSpaceOnUse" x1="-5186.1343" y1="1715.9441" x2="-5666.9219" y2="3326.8958" gradientTransform="matrix(-1 0 0 1 -2304.6357 0)">
				<stop  offset="0" style="stop-color:#09005D"/>
				<stop  offset="1" style="stop-color:#1A0F91"/>
			</linearGradient>
			<path style="fill:url(#SVGID_00000029032574770717647040000010334287007760946071_);" d="M2991.758,1864.118l-53.802,154.61
				h-32.379l47.843-160.999c0.471-1.584,2.075-2.544,3.693-2.21l33.707,6.948C2991.568,1862.62,2992.009,1863.397,2991.758,1864.118
				z"/>
			
				<linearGradient id="SVGID_00000118355233102256178060000001093105167535822224_" gradientUnits="userSpaceOnUse" x1="-5050.3159" y1="1756.4799" x2="-5531.1006" y2="3367.4224" gradientTransform="matrix(-1 0 0 1 -2304.6357 0)">
				<stop  offset="0" style="stop-color:#09005D"/>
				<stop  offset="1" style="stop-color:#1A0F91"/>
			</linearGradient>
			<path style="fill:url(#SVGID_00000118355233102256178060000001093105167535822224_);" d="M2807.477,1853.243l13.208,161.211
				l-29.88,3.667l-25.433-160.726c-0.184-1.163,0.654-2.24,1.826-2.347l38.266-3.496
				C2806.49,1851.458,2807.393,1852.218,2807.477,1853.243z"/>
			<g>
				
					<linearGradient id="SVGID_00000134967707943812063870000002155782515485268874_" gradientUnits="userSpaceOnUse" x1="7307.272" y1="1543.921" x2="6811.9043" y2="2091.9878" gradientTransform="matrix(1 0 0 1 -4302.292 0)">
					<stop  offset="0" style="stop-color:#09005D"/>
					<stop  offset="1" style="stop-color:#1A0F91"/>
				</linearGradient>
				<path style="fill:url(#SVGID_00000134967707943812063870000002155782515485268874_);" d="M2812.716,1629.895
					c63.884-120.669,229.461-11.046,152.403,90.606C2907.825,1682.407,2843.084,1625.777,2812.716,1629.895z"/>
				
					<linearGradient id="SVGID_00000075846701353765799810000002568955652110777503_" gradientUnits="userSpaceOnUse" x1="6400.1196" y1="730.6429" x2="6561.7119" y2="730.6429" gradientTransform="matrix(0.9854 0.1702 -0.1702 0.9854 -3425.6477 -177.5386)">
					<stop  offset="0" style="stop-color:#09005D"/>
					<stop  offset="1" style="stop-color:#1A0F91"/>
				</linearGradient>
				<path style="fill:url(#SVGID_00000075846701353765799810000002568955652110777503_);" d="M2816.891,1616.889
					c-129.154-6.574-22.839,41.311,94.782,66.869C2882.395,1652.678,2853.124,1629.513,2816.891,1616.889z"/>
			</g>
		</g>
		<g>
			<g>
				<g style="opacity:0.3;">
					<path style="fill:#BDD0FB;" d="M1315.996,975.313c5.535-0.738,10.848,2.812,12.185,8.359
						c2.93,12.131,5.374,24.572,7.268,36.971c0.921,6.033-3.221,11.671-9.252,12.592c-0.073,0.01-0.143,0.019-0.214,0.029
						c-5.951,0.793-11.467-3.322-12.377-9.283c-1.798-11.781-4.122-23.597-6.903-35.122c-1.433-5.931,2.215-11.903,8.148-13.333
						C1315.232,975.432,1315.615,975.364,1315.996,975.313z M1328.004,1070.813c0.428-0.057,0.865-0.089,1.309-0.096
						c6.101-0.09,11.122,4.783,11.212,10.884c0.183,12.532-0.167,25.197-1.042,37.639c-0.428,6.088-5.685,10.659-11.796,10.25
						c-6.087-0.43-10.673-5.714-10.245-11.796c0.831-11.827,1.163-23.858,0.987-35.768
						C1318.344,1076.267,1322.53,1071.543,1328.004,1070.813z M1318.686,1166.583c1.219-0.162,2.487-0.122,3.759,0.148
						c5.967,1.273,9.777,7.14,8.507,13.108c-2.602,12.233-5.771,24.507-9.418,36.478c-1.782,5.837-7.956,9.12-13.789,7.35
						c-5.836-1.778-9.127-7.953-7.349-13.789c3.464-11.368,6.471-23.02,8.944-34.639
						C1310.338,1170.542,1314.185,1167.182,1318.686,1166.583z M1288.181,1257.883c2.015-0.268,4.127,0.016,6.107,0.937
						c5.533,2.572,7.932,9.144,5.361,14.677c-5.28,11.349-11.112,22.606-17.335,33.458c-3.038,5.285-9.786,7.117-15.082,4.087
						c-5.292-3.035-7.121-9.788-4.087-15.082c5.911-10.305,11.452-20.997,16.465-31.783
						C1281.264,1260.624,1284.563,1258.365,1288.181,1257.883z M1238.083,1340.086c2.826-0.377,5.794,0.334,8.224,2.217
						c4.826,3.737,5.707,10.677,1.97,15.499c-7.645,9.87-15.822,19.554-24.303,28.774c-4.127,4.495-11.117,4.791-15.611,0.657
						c-4.49-4.13-4.784-11.118-0.654-15.613c8.062-8.763,15.833-17.967,23.099-27.347
						C1232.662,1341.88,1235.302,1340.457,1238.083,1340.086z M1171.052,1409.155c3.66-0.488,7.48,0.867,10,3.927
						c3.878,4.712,3.203,11.673-1.506,15.553c-9.654,7.948-19.771,15.583-30.069,22.685c-5.026,3.465-11.904,2.2-15.369-2.824
						c-3.464-5.02-2.2-11.902,2.822-15.367c9.785-6.75,19.396-14.001,28.57-21.554
						C1167.151,1410.215,1169.078,1409.418,1171.052,1409.155z M773.219,1488.71c1.516-0.202,3.096-0.091,4.655,0.381
						c11.361,3.441,23.025,6.432,34.668,8.886c5.969,1.259,9.79,7.12,8.53,13.087c-1.257,5.972-7.117,9.791-13.089,8.532
						c-12.261-2.585-24.547-5.733-36.511-9.354c-5.841-1.769-9.141-7.938-7.372-13.777
						C765.394,1492.182,769.057,1489.265,773.219,1488.71z M1090.435,1461.618c4.543-0.605,9.169,1.678,11.337,6.004
						c2.734,5.457,0.527,12.094-4.927,14.828c-11.181,5.604-22.742,10.789-34.362,15.412c-5.679,2.229-12.095-0.509-14.351-6.181
						c-2.255-5.669,0.513-12.094,6.183-14.352c11.036-4.388,22.014-9.312,32.631-14.633
						C1088.074,1462.133,1089.252,1461.775,1090.435,1461.618z M867.892,1506.039c0.723-0.096,1.466-0.126,2.222-0.074
						c11.85,0.811,23.892,1.117,35.792,0.92c6.102-0.099,11.13,4.765,11.231,10.864c0.099,6.1-4.757,11.157-10.864,11.231
						c-12.52,0.206-25.192-0.117-37.661-0.967c-6.088-0.417-10.688-5.69-10.271-11.776
						C858.703,1510.908,862.793,1506.719,867.892,1506.039z M1000.119,1494.757c5.527-0.736,10.834,2.802,12.181,8.339
						c1.443,5.929-2.193,11.904-8.121,13.352c-12.139,2.954-24.569,5.425-36.945,7.336c-0.076,0.015-0.155,0.025-0.232,0.035
						c-5.942,0.792-11.452-3.311-12.374-9.262c-0.932-6.032,3.198-11.677,9.23-12.607c11.755-1.819,23.561-4.167,35.095-6.976
						C999.341,1494.882,999.732,1494.809,1000.119,1494.757z"/>
					<path style="fill:#BDD0FB;" d="M701.306,1459.6c2.156-0.287,4.42,0.055,6.503,1.127c5.065,2.608,10.269,5.149,15.468,7.565
						c5.534,2.567,7.94,9.139,5.371,14.671c-2.567,5.536-9.14,7.949-14.674,5.369c-5.469-2.536-10.941-5.212-16.273-7.954
						c-5.425-2.791-7.562-9.455-4.771-14.877C694.65,1462.155,697.841,1460.062,701.306,1459.6z"/>
				</g>
				<g style="opacity:0.3;">
					<path style="fill:#BDD0FB;" d="M485.738,1200.77c5.286-0.704,10.449,2.509,12.031,7.779c1.635,5.455,3.413,10.97,5.284,16.385
						c1.992,5.769-1.068,12.059-6.835,14.051c-5.792,2-12.06-1.071-14.051-6.836c-1.968-5.702-3.841-11.509-5.565-17.253
						c-1.752-5.845,1.565-12.003,7.41-13.757C484.584,1200.967,485.163,1200.847,485.738,1200.77z"/>
					<path style="fill:#BDD0FB;" d="M840.543,650.371c5.039-0.672,10.109-1.26,15.208-1.765c6.072-0.6,11.483,3.834,12.085,9.906
						c0.602,6.072-3.859,11.508-9.904,12.087c-11.768,1.167-23.461,2.809-34.887,4.906c-6.009,1.092-11.759-2.869-12.862-8.87
						c-1.103-6.005,2.871-11.764,8.872-12.864C826.124,652.471,833.354,651.329,840.543,650.371z M914.055,646.831
						c0.612-0.081,1.241-0.113,1.88-0.089c12.319,0.452,24.756,1.433,36.964,2.915c6.056,0.734,10.371,6.241,9.637,12.296
						c-0.736,6.059-6.252,10.39-12.3,9.637c-11.595-1.407-23.409-2.336-35.116-2.77c-6.097-0.224-10.858-5.349-10.633-11.444
						C904.688,651.915,908.817,647.529,914.055,646.831z M762.736,668.207c5.163-0.688,10.249,2.366,11.94,7.491
						c1.911,5.797-1.238,12.043-7.033,13.956c-11.086,3.654-22.164,7.834-32.933,12.43c-5.617,2.386-12.104-0.216-14.498-5.827
						c-2.394-5.615,0.216-12.106,5.828-14.5c11.34-4.838,23.009-9.24,34.683-13.09C761.39,668.448,762.065,668.297,762.736,668.207z
						 M1007.771,660.722c1.39-0.185,2.838-0.104,4.277,0.275c11.907,3.146,23.824,6.839,35.417,10.976
						c5.746,2.051,8.741,8.37,6.69,14.116c-2.051,5.751-8.367,8.747-14.118,6.693c-11.008-3.927-22.323-7.435-33.632-10.421
						c-5.9-1.556-9.418-7.605-7.86-13.503C999.723,664.398,1003.466,661.296,1007.771,660.722z M676.675,707.628
						c4.235-0.564,8.599,1.37,10.938,5.269c3.14,5.233,1.443,12.02-3.79,15.16c-10.004,6-19.892,12.517-29.392,19.364
						c-4.95,3.568-11.856,2.451-15.424-2.503c-3.566-4.95-2.446-11.852,2.503-15.419c10-7.211,20.411-14.071,30.945-20.39
						C673.788,708.309,675.225,707.822,676.675,707.628z M601.346,764.981c3.386-0.451,6.933,0.669,9.469,3.331
						c4.207,4.42,4.036,11.414-0.385,15.621c-8.475,8.07-16.709,16.59-24.473,25.323c-4.048,4.567-11.029,4.979-15.597,0.92
						c-4.561-4.055-4.971-11.036-0.918-15.6c8.171-9.191,16.835-18.157,25.755-26.647
						C596.951,766.259,599.113,765.279,601.346,764.981z M540.312,837.391c2.575-0.343,5.279,0.215,7.608,1.777
						c5.068,3.396,6.422,10.26,3.025,15.328c-6.523,9.73-12.706,19.836-18.377,30.048c-2.962,5.332-9.682,7.26-15.023,4.292
						c-5.333-2.964-7.256-9.687-4.292-15.024c5.969-10.744,12.476-21.386,19.338-31.622
						C534.428,839.451,537.279,837.796,540.312,837.391z M496.526,921.383c1.784-0.238,3.65-0.042,5.447,0.654
						c5.689,2.207,8.509,8.606,6.302,14.294c-4.236,10.914-8.051,22.129-11.342,33.339c-1.719,5.854-7.866,9.208-13.711,7.492
						c-5.856-1.719-9.209-7.859-7.49-13.714c3.466-11.808,7.484-23.62,11.942-35.108
						C489.187,924.447,492.661,921.898,496.526,921.383z M472.238,1012.974c1.003-0.134,2.042-0.129,3.093,0.028
						c6.034,0.898,10.199,6.521,9.299,12.554c-1.719,11.549-2.97,23.323-3.712,35.004c-0.388,6.091-5.657,10.707-11.727,10.323
						c-6.09-0.386-10.713-5.639-10.325-11.729c0.782-12.295,2.097-24.692,3.91-36.85
						C463.517,1017.319,467.481,1013.608,472.238,1012.974z M468.667,1107.599c0.225-0.03,0.452-0.051,0.681-0.069
						c6.085-0.436,11.374,4.144,11.809,10.229c0.616,8.591,1.504,17.263,2.639,25.785c0.411,3.084,0.858,6.159,1.333,9.218
						c0.937,6.031-3.192,11.68-9.221,12.614c-6.086,1.068-11.676-3.19-12.614-9.217c-0.501-3.221-0.968-6.45-1.401-9.697
						c-1.194-8.962-2.128-18.09-2.775-27.125C458.697,1113.482,462.924,1108.364,468.667,1107.599z"/>
					<path style="fill:#BDD0FB;" d="M1096.359,695.038c2.178-0.29,4.46,0.063,6.554,1.151c5.305,2.763,10.652,5.69,15.893,8.701
						c5.292,3.039,7.118,9.793,4.078,15.083c-3.041,5.29-9.788,7.121-15.083,4.078c-4.979-2.859-10.058-5.639-15.094-8.264
						c-5.41-2.815-7.514-9.487-4.696-14.9C1089.74,697.57,1092.916,695.497,1096.359,695.038z"/>
				</g>
				<g>
					<path style="fill:#BDD0FB;" d="M1098.51,824.033c-1.606-1.507-3.992-1.831-5.941-0.804l-55.604,29.294
						c-25.416-14.68-53.355-25.414-82.966-31.372l-22.337-58.702c-0.783-2.06-2.787-3.394-4.989-3.325l-75.349,2.376
						c-2.202,0.07-4.117,1.529-4.77,3.632l-18.593,59.993c-29.177,7.813-56.384,20.285-80.824,36.539l-57.34-25.731
						c-2.01-0.902-4.37-0.429-5.878,1.177l-51.599,54.96c-1.509,1.607-1.831,3.993-0.804,5.941l29.293,55.604
						c-14.68,25.415-25.413,53.356-31.371,82.966l-58.703,22.337c-2.059,0.783-3.394,2.786-3.325,4.988l2.377,75.35
						c0.069,2.202,1.528,4.117,3.633,4.769l59.993,18.593c7.813,29.177,20.284,56.385,36.538,80.823l-25.732,57.342
						c-0.901,2.009-0.429,4.37,1.177,5.877l54.961,51.599c1.606,1.509,3.992,1.831,5.941,0.804l55.604-29.294
						c25.415,14.681,53.355,25.414,82.966,31.372l22.337,58.703c0.784,2.058,2.786,3.394,4.988,3.325l75.35-2.377
						c2.202-0.069,4.117-1.528,4.769-3.633l18.593-59.993c29.178-7.812,56.385-20.285,80.824-36.538l57.34,25.731
						c2.01,0.903,4.372,0.429,5.879-1.176l51.599-54.961c1.508-1.606,1.83-3.992,0.804-5.941l-29.293-55.604
						c14.681-25.415,25.413-53.356,31.371-82.966l58.703-22.337c2.058-0.782,3.394-2.787,3.324-4.989l-2.377-75.348
						c-0.07-2.202-1.528-4.118-3.632-4.77l-59.993-18.593c-7.813-29.177-20.285-56.383-36.538-80.823l25.73-57.34
						c0.902-2.01,0.43-4.37-1.176-5.879L1098.51,824.033z"/>
					
						<linearGradient id="SVGID_00000154418966279639588270000007941854782800958115_" gradientUnits="userSpaceOnUse" x1="823.649" y1="1091.1621" x2="975.2178" y2="1091.1621">
						<stop  offset="0" style="stop-color:#DAE3FE"/>
						<stop  offset="1" style="stop-color:#E9EFFD"/>
					</linearGradient>
					<path style="fill:url(#SVGID_00000154418966279639588270000007941854782800958115_);" d="M889.472,1016.022
						c36.615-4.88,72.348,17.723,82.811,54.268c11.499,40.173-11.826,82.206-51.996,93.707c-19.461,5.576-39.926,3.231-57.62-6.589
						c-17.699-9.819-30.515-25.945-36.084-45.405c-11.5-40.174,11.826-82.206,51.995-93.706
						C882.201,1017.261,885.842,1016.506,889.472,1016.022z M906.988,1148.764c2.828-0.377,5.643-0.961,8.436-1.76
						c30.798-8.815,48.681-41.049,39.866-71.845c-8.818-30.8-41.042-48.697-71.847-39.868
						c-30.798,8.815-48.681,41.049-39.867,71.845c4.272,14.922,14.096,27.284,27.667,34.815
						C882.273,1148.069,894.708,1150.4,906.988,1148.764z"/>
					
						<linearGradient id="SVGID_00000084504051270572509810000003015753717976127888_" gradientUnits="userSpaceOnUse" x1="712.1088" y1="1092.4037" x2="1084.7625" y2="1092.4037">
						<stop  offset="0" style="stop-color:#DAE3FE"/>
						<stop  offset="1" style="stop-color:#E9EFFD"/>
					</linearGradient>
					<path style="fill:url(#SVGID_00000084504051270572509810000003015753717976127888_);" d="M873.479,907.739
						c6.288-0.838,12.656-1.365,19.083-1.568l0,0c2.023-0.065,4.047-0.095,6.072-0.095c9.982,0.006,19.948,0.807,29.744,2.388
						c0.133,0.021,0.267,0.043,0.4,0.064c0.378,0.063,0.757,0.126,1.136,0.193c0.737,0.124,1.473,0.257,2.207,0.389
						c1.932,0.352,3.339,1.91,3.588,3.758c0.06,0.449,0.05,0.916-0.035,1.385c-0.438,2.401-2.743,3.984-5.141,3.55
						c-12.355-2.259-25.035-3.199-37.69-2.797c-62.862,1.972-117.147,36.584-147.105,87.024
						c-16.666,28.053-25.802,61.006-24.698,95.969c0.192,6.131,0.693,12.208,1.494,18.205
						c5.384,40.366,24.329,77.344,54.419,105.592c34.562,32.45,79.694,49.498,127.077,48.003
						c97.859-3.097,174.889-85.18,171.802-182.993c-0.19-6.031-0.685-12.03-1.479-17.972c-3.436-25.749-12.467-50.46-26.534-72.327
						c-0.363-0.565-0.582-1.181-0.663-1.805c-0.219-1.643,0.501-3.345,1.99-4.301c2.058-1.315,4.787-0.734,6.109,1.328
						c14.767,22.958,24.253,48.902,27.859,75.934c0.833,6.237,1.352,12.533,1.554,18.863c3.241,102.695-77.7,188.87-180.358,192.11
						c-49.745,1.57-97.122-16.329-133.406-50.395c-31.591-29.655-51.478-68.475-57.132-110.852
						c-0.839-6.297-1.365-12.675-1.569-19.109c-1.568-49.748,16.328-97.126,50.393-133.41
						C792.259,933.274,831.093,913.388,873.479,907.739z"/>
				</g>
			</g>
			<g>
				<g style="opacity:0.3;">
					<path style="fill:#BDD0FB;" d="M1651.261,636.901c2.926-0.39,5.876,1.16,7.135,3.997c2.352,5.294,4.576,10.732,6.608,16.162
						c1.32,3.529-0.468,7.458-4,8.782c-3.53,1.337-7.461-0.471-8.782-4c-1.936-5.174-4.056-10.357-6.299-15.41
						c-1.53-3.44,0.023-7.472,3.466-9.007C1650,637.157,1650.63,636.985,1651.261,636.901z"/>
					<path style="fill:#BDD0FB;" d="M1668.076,686.628c3.428-0.457,6.714,1.747,7.531,5.181c2.315,9.703,4.157,19.635,5.474,29.517
						c0.277,2.081,0.532,4.171,0.768,6.271c0.416,3.75-2.498,7.008-6.023,7.546c-3.746,0.419-7.12-2.278-7.542-6.02
						c-0.224-2.007-0.466-4.006-0.731-5.994c-1.256-9.426-3.013-18.9-5.217-28.152c-0.876-3.668,1.387-7.345,5.052-8.223
						C1667.619,686.703,1667.848,686.658,1668.076,686.628z M1675.948,757.043c0.32-0.043,0.65-0.067,0.979-0.064
						c3.771,0.042,6.794,3.129,6.755,6.898c-0.124,12.091-1,24.282-2.604,36.228c-0.5,3.737-3.954,6.349-7.671,5.856
						c-3.738-0.504-6.356-3.933-5.856-7.67c1.53-11.398,2.364-23.025,2.484-34.557
						C1670.072,760.3,1672.638,757.484,1675.948,757.043z M1666.508,827.264c0.858-0.114,1.752-0.065,2.641,0.166
						c3.644,0.96,5.816,4.698,4.856,8.342c-3.083,11.672-6.927,23.284-11.436,34.5c-1.406,3.502-5.369,5.193-8.877,3.785
						c-3.495-1.403-5.191-5.379-3.787-8.874c4.299-10.698,7.967-21.762,10.904-32.896
						C1661.537,829.533,1663.849,827.618,1666.508,827.264z M1640.093,893.018c1.401-0.187,2.869,0.061,4.2,0.792
						c3.296,1.826,4.492,5.983,2.666,9.279c-5.861,10.583-12.427,20.89-19.524,30.643c-2.22,3.045-6.491,3.709-9.532,1.499
						c-3.048-2.215-3.721-6.482-1.503-9.534c6.765-9.292,13.031-19.129,18.618-29.218
						C1636.107,894.51,1638.023,893.294,1640.093,893.018z M1598.422,950.324c1.955-0.261,4.01,0.326,5.566,1.779
						c2.752,2.571,2.897,6.888,0.327,9.644c-8.25,8.824-17.12,17.227-26.368,24.967c-2.89,2.429-7.194,2.041-9.613-0.85
						c-2.419-2.891-2.038-7.197,0.85-9.612c8.824-7.388,17.286-15.4,25.155-23.824
						C1595.46,951.23,1596.912,950.526,1598.422,950.324z M1544.111,995.774c2.533-0.338,5.155,0.772,6.637,3.062
						c2.045,3.163,1.135,7.385-2.027,9.433c-10.145,6.556-20.797,12.54-31.655,17.779c-3.409,1.631-7.475,0.209-9.113-3.183
						c-1.638-3.392-0.213-7.474,3.18-9.109c10.356-4.997,20.507-10.699,30.179-16.95
						C1542.186,996.24,1543.143,995.903,1544.111,995.774z M1480.353,1026.558c3.17-0.422,6.3,1.439,7.36,4.579
						c1.206,3.571-0.712,7.443-4.282,8.651c-11.406,3.853-23.204,7.038-35.068,9.474c-3.712,0.696-7.303-1.629-8.056-5.32
						c-0.758-3.691,1.622-7.296,5.313-8.056c11.319-2.315,22.571-5.355,33.446-9.029
						C1479.492,1026.713,1479.923,1026.615,1480.353,1026.558z M1375.448,1041.412c0.39-0.052,0.794-0.072,1.203-0.053
						c9.94,0.43,20.077,0.323,30.133-0.318c1.524-0.089,3.019-0.194,4.509-0.318c3.759-0.299,7.049,2.496,7.351,6.254
						c0.31,3.764-2.505,7.164-6.25,7.354c-1.59,0.125-3.178,0.242-4.776,0.334c-10.507,0.667-21.134,0.779-31.557,0.326
						c-3.767-0.164-6.685-3.345-6.521-7.111C1369.685,1044.526,1372.228,1041.841,1375.448,1041.412z"/>
				</g>
				<g style="opacity:0.3;">
					<path style="fill:#BDD0FB;" d="M1346.06,468.943c3.693-0.492,7.108,2.078,7.651,5.777c0.547,3.726-2.033,7.196-5.762,7.74
						c-11.227,1.644-22.448,3.987-33.352,6.966c-3.621,0.953-7.39-1.146-8.382-4.785c-0.993-3.639,1.153-7.388,4.786-8.383
						c11.437-3.117,23.2-5.579,34.967-7.302C1345.968,468.956,1346.03,468.947,1346.06,468.943z M1380.844,465.968
						c0.245-0.033,0.487-0.051,0.739-0.058c11.876-0.306,23.891,0.11,35.711,1.231c3.753,0.36,6.504,3.684,6.147,7.436
						c-0.353,3.758-3.705,6.497-7.435,6.154c-11.279-1.072-22.744-1.466-34.077-1.18c-3.766,0.099-6.898-2.879-6.994-6.645
						C1374.845,469.383,1377.436,466.422,1380.844,465.968z M1278.849,487.312c2.999-0.4,6.008,1.243,7.212,4.175
						c1.429,3.48-0.235,7.467-3.722,8.9c-10.501,4.317-20.825,9.303-30.689,14.833c-3.302,1.831-7.447,0.67-9.287-2.622
						c-1.843-3.284-0.67-7.447,2.617-9.29c10.341-5.795,21.167-11.023,32.175-15.542
						C1277.713,487.537,1278.281,487.388,1278.849,487.312z M1450.244,472.599c0.769-0.103,1.569-0.075,2.373,0.1
						c11.609,2.561,23.176,5.867,34.376,9.826c3.555,1.254,5.416,5.154,4.162,8.71c-1.256,3.542-5.155,5.406-8.707,4.158
						c-10.681-3.773-21.707-6.922-32.775-9.367c-3.679-0.814-6.005-4.456-5.192-8.135
						C1445.118,475.017,1447.483,472.967,1450.244,472.599z M1218.077,521.382c2.394-0.319,4.886,0.646,6.411,2.729
						c2.231,3.043,1.57,7.313-1.468,9.54c-9.136,6.69-17.955,14.01-26.216,21.767c-2.751,2.585-7.07,2.441-9.648-0.308
						c-2.578-2.749-2.442-7.07,0.307-9.648c8.665-8.126,17.911-15.806,27.487-22.823
						C1215.905,521.94,1216.983,521.527,1218.077,521.382z M1167.249,569.037c1.833-0.244,3.755,0.253,5.283,1.529
						c2.891,2.418,3.276,6.723,0.858,9.613c-7.283,8.709-14.101,17.934-20.263,27.414c-2.056,3.165-6.286,4.058-9.441,2.004
						c-3.161-2.053-4.056-6.276-2.004-9.434c6.46-9.943,13.605-19.615,21.237-28.74
						C1164.058,570.061,1165.618,569.254,1167.249,569.037z M1129.298,627.501c1.288-0.172,2.638,0.018,3.893,0.637
						c3.387,1.653,4.789,5.742,3.133,9.129c-4.992,10.192-9.396,20.783-13.09,31.473c-1.234,3.553-5.119,5.449-8.679,4.215
						c-3.562-1.233-5.451-5.116-4.219-8.681c3.878-11.207,8.495-22.316,13.726-33.01
						C1125.106,629.135,1127.112,627.792,1129.298,627.501z"/>
					<path style="fill:#BDD0FB;" d="M1516.267,495.942c1.305-0.174,2.673,0.027,3.94,0.658c5.228,2.604,10.401,5.377,15.38,8.236
						c3.266,1.878,4.396,6.05,2.52,9.319c-1.883,3.256-6.047,4.389-9.319,2.519c-4.747-2.729-9.684-5.372-14.671-7.86
						c-3.374-1.681-4.743-5.781-3.062-9.151C1512.106,497.559,1514.097,496.232,1516.267,495.942z"/>
				</g>
				<g>
					<path style="fill:#BDD0FB;" d="M1522.289,584.074c-1.074-1.009-2.671-1.225-3.975-0.538l-37.208,19.602
						c-17.006-9.823-35.702-17.006-55.517-20.993l-14.947-39.28c-0.524-1.378-1.865-2.271-3.338-2.225l-50.42,1.59
						c-1.474,0.047-2.755,1.023-3.192,2.431l-12.441,40.145c-19.524,5.228-37.73,13.573-54.084,24.45l-38.369-17.218
						c-1.345-0.603-2.925-0.287-3.934,0.788l-34.527,36.777c-1.009,1.076-1.225,2.672-0.538,3.976l19.602,37.207
						c-9.824,17.007-17.006,35.703-20.993,55.518l-39.281,14.946c-1.378,0.524-2.271,1.865-2.225,3.338l1.591,50.421
						c0.046,1.474,1.023,2.756,2.431,3.191l40.145,12.442c5.228,19.524,13.573,37.73,24.45,54.083l-17.218,38.371
						c-0.603,1.344-0.287,2.924,0.787,3.933l36.777,34.528c1.074,1.009,2.671,1.225,3.975,0.538l37.208-19.603
						c17.006,9.824,35.702,17.006,55.517,20.993l14.947,39.282c0.524,1.377,1.864,2.271,3.338,2.225l50.421-1.591
						c1.473-0.046,2.754-1.022,3.191-2.431l12.441-40.145c19.524-5.228,37.731-13.574,54.084-24.45l38.369,17.218
						c1.345,0.604,2.926,0.288,3.934-0.787l34.528-36.777c1.008-1.075,1.225-2.671,0.538-3.976l-19.601-37.207
						c9.824-17.007,17.005-35.703,20.992-55.518l39.282-14.947c1.377-0.523,2.271-1.865,2.224-3.338l-1.59-50.419
						c-0.047-1.474-1.023-2.755-2.431-3.192l-40.145-12.442c-5.228-19.524-13.573-37.729-24.449-54.083l17.218-38.37
						c0.604-1.345,0.287-2.924-0.787-3.934L1522.289,584.074z"/>
					
						<linearGradient id="SVGID_00000122709973787100596480000005990270416181113515_" gradientUnits="userSpaceOnUse" x1="1337.4354" y1="762.8" x2="1440.699" y2="762.8">
						<stop  offset="0" style="stop-color:#DAE3FE"/>
						<stop  offset="1" style="stop-color:#E9EFFD"/>
					</linearGradient>
					<path style="fill:url(#SVGID_00000122709973787100596480000005990270416181113515_);" d="M1382.365,711.628
						c10.912-1.454,21.958,0.616,31.758,6.053c12.055,6.69,20.783,17.675,24.577,30.931c7.834,27.353-8.052,55.986-35.414,63.827
						c-27.413,7.795-56-8.06-63.832-35.42c-3.797-13.256-2.202-27.197,4.488-39.248c6.688-12.058,17.674-20.789,30.933-24.58
						C1377.352,712.484,1379.858,711.962,1382.365,711.628z M1394.071,800.457c1.82-0.243,3.642-0.62,5.459-1.138
						c20.126-5.768,31.81-26.828,26.049-46.955c-2.791-9.746-9.21-17.832-18.077-22.748c-8.871-4.922-19.121-6.084-28.875-3.305l0,0
						c-9.749,2.792-17.832,9.214-22.751,18.078c-4.922,8.872-6.094,19.125-3.302,28.878
						C1357.814,791.574,1375.724,802.902,1394.071,800.457z"/>
					
						<linearGradient id="SVGID_00000158728551333550021360000013436402133758658746_" gradientUnits="userSpaceOnUse" x1="1259.8616" y1="763.6537" x2="1516.9604" y2="763.6537">
						<stop  offset="0" style="stop-color:#DAE3FE"/>
						<stop  offset="1" style="stop-color:#E9EFFD"/>
					</linearGradient>
					<path style="fill:url(#SVGID_00000158728551333550021360000013436402133758658746_);" d="M1371.33,636.242
						c4.28-0.57,8.623-0.927,13.027-1.07c8.747-0.278,17.53,0.333,26.129,1.822c0.386,0.07,0.772,0.14,1.158,0.209
						c2.984,0.543,5.156,2.95,5.54,5.803c0.092,0.693,0.078,1.415-0.054,2.138c-0.676,3.707-4.237,6.145-7.939,5.482
						c-8.015-1.467-16.223-2.073-24.397-1.811l-0.003,0c-0.448,0.013-0.899,0.033-1.344,0.052
						c-19.34,0.796-37.749,6.382-53.927,16.067c-8.781,5.258-16.907,11.733-24.162,19.321c-0.059,0.062-0.118,0.123-0.177,0.185
						c-0.18,0.193-0.36,0.378-0.536,0.569c-21.005,22.377-32.043,51.592-31.074,82.267c0.122,3.97,0.448,7.901,0.965,11.784
						c3.486,26.131,15.752,50.07,35.232,68.362c22.377,21.005,51.592,32.037,82.264,31.069
						c30.654-0.979,59.137-13.824,80.147-36.195c21.005-22.376,32.043-51.592,31.074-82.267c-0.12-3.903-0.443-7.787-0.955-11.631
						c-2.225-16.672-8.071-32.667-17.177-46.821c-0.56-0.873-0.899-1.823-1.024-2.788c-0.338-2.536,0.774-5.166,3.071-6.642
						c3.175-2.03,7.39-1.126,9.433,2.051c10.188,15.839,16.731,33.737,19.223,52.384c0.574,4.307,0.934,8.649,1.072,13.014
						c1.082,34.324-11.266,67.009-34.77,92.044c-23.502,25.029-55.324,39.435-89.661,40.494
						c-34.32,1.085-67.005-11.259-92.037-34.768c-21.796-20.458-35.516-47.241-39.416-76.477c-0.578-4.34-0.943-8.742-1.084-13.18
						C1257.834,701.265,1306.801,644.842,1371.33,636.242z"/>
				</g>
			</g>
		</g>
	</g>
</g>
</svg>
