<?xml version="1.0" encoding="UTF-8"?>
<!DOCTYPE svg PUBLIC "-//W3C//DTD SVG 1.1//EN" "http://www.w3.org/Graphics/SVG/1.1/DTD/svg11.dtd">
<svg xmlns="http://www.w3.org/2000/svg" 
version="1.1" width="440px" height="286px" 
style="shape-rendering:geometricPrecision; text-rendering:geometricPrecision; image-rendering:optimizeQuality; fill-rule:evenodd; clip-rule:evenodd" xmlns:xlink="http://www.w3.org/1999/xlink">


<g><path class="style-op" style="opacity:0.72" fill="#fccc43" d="M 118.5,53.5 C 118.5,53.8333 118.5,54.1667 118.5,54.5C 107.806,54.2912 97.1398,54.6245 86.5,55.5C 89.8683,53.941 93.5349,53.1077 97.5,53C 104.536,52.2803 111.536,52.4469 118.5,53.5 Z"/></g>
<g><path class="style-op" style="opacity:1" fill="#fec010" d="M 118.5,54.5 C 118.966,66.2401 116.299,76.9068 110.5,86.5C 96.1841,79.8553 83.5174,70.8553 72.5,59.5C 76.6795,56.901 81.3462,55.5677 86.5,55.5C 97.1398,54.6245 107.806,54.2912 118.5,54.5 Z"/></g>
<g><path class="style-op" style="opacity:0.361" fill="#f9bf6f" d="M 121.5,53.5 C 123.403,53.7959 125.07,54.4625 126.5,55.5C 124.219,55.9227 122.552,55.256 121.5,53.5 Z"/></g>
<g><path class="style-op" style="opacity:1" fill="#faac18" d="M 126.5,55.5 C 130.884,56.0101 135.218,56.8434 139.5,58C 140.056,58.3826 140.389,58.8826 140.5,59.5C 141.644,72.2255 144.311,84.5588 148.5,96.5C 141.078,95.6556 133.745,94.3222 126.5,92.5C 126.5,80.1667 126.5,67.8333 126.5,55.5 Z"/></g>
<g><path class="style-op" style="opacity:1" fill="#f5921e" d="M 72.5,59.5 C 83.5174,70.8553 96.1841,79.8553 110.5,86.5C 110.5,86.8333 110.5,87.1667 110.5,87.5C 105.848,99.1552 99.5143,109.822 91.5,119.5C 77.1905,103.669 66.3572,85.6686 59,65.5C 57.6703,66.5822 56.1703,67.2488 54.5,67.5C 59.7195,63.2265 65.7195,60.5599 72.5,59.5 Z"/></g>
<g><path class="style-op" style="opacity:1" fill="#fec116" d="M 140.5,59.5 C 161.468,65.9876 178.135,78.3209 190.5,96.5C 177.677,97.4955 164.677,97.8288 151.5,97.5C 150.791,96.596 149.791,96.2627 148.5,96.5C 144.311,84.5588 141.644,72.2255 140.5,59.5 Z"/></g>
<g><path class="style-op" style="opacity:1" fill="#f79d1a" d="M 118.5,53.5 C 119.5,53.5 120.5,53.5 121.5,53.5C 122.552,55.256 124.219,55.9227 126.5,55.5C 126.5,67.8333 126.5,80.1667 126.5,92.5C 126.167,92.5 125.833,92.5 125.5,92.5C 120.578,90.6371 115.578,88.9704 110.5,87.5C 110.5,87.1667 110.5,86.8333 110.5,86.5C 116.299,76.9068 118.966,66.2401 118.5,54.5C 118.5,54.1667 118.5,53.8333 118.5,53.5 Z"/></g>
<g><path class="style-op" style="opacity:1" fill="#f06d20" d="M 91.5,119.5 C 91.8333,120.167 92.1667,120.833 92.5,121.5C 85.776,127.721 79.1093,134.221 72.5,141C 71.552,141.483 70.552,141.649 69.5,141.5C 59.5157,119.492 52.349,96.4924 48,72.5C 47.3292,73.2524 46.4959,73.5858 45.5,73.5C 47.9505,70.7232 50.9505,68.7232 54.5,67.5C 56.1703,67.2488 57.6703,66.5822 59,65.5C 66.3572,85.6686 77.1905,103.669 91.5,119.5 Z"/></g>
<g><path class="style-op" style="opacity:1" fill="#ee4e21" d="M 92.5,121.5 C 100.559,129.563 108.893,137.23 117.5,144.5C 115.901,144.232 114.568,144.566 113.5,145.5C 98.6838,146.185 84.0171,145.185 69.5,142.5C 56.9995,139.744 45.3329,135.077 34.5,128.5C 33.8333,128.5 33.5,128.167 33.5,127.5C 34.1899,113.949 35.3565,100.282 37,86.5C 37.9441,83.3976 39.1108,80.3976 40.5,77.5C 41.5846,75.4131 43.2512,74.0798 45.5,73.5C 46.4959,73.5858 47.3292,73.2524 48,72.5C 52.349,96.4924 59.5157,119.492 69.5,141.5C 70.552,141.649 71.552,141.483 72.5,141C 79.1093,134.221 85.776,127.721 92.5,121.5 Z"/></g>
<g><path class="style-op" style="opacity:0.267" fill="#f2935d" d="M 31.5,85.5 C 31.2623,87.4783 29.9289,89.1449 27.5,90.5C 28.0798,88.2512 29.4131,86.5846 31.5,85.5 Z"/></g>
<g><path class="style-op" style="opacity:1" fill="#f2801f" d="M 110.5,87.5 C 115.578,88.9704 120.578,90.6371 125.5,92.5C 124.559,108.136 122.559,123.636 119.5,139C 119.569,140.986 120.235,142.486 121.5,143.5C 120.791,144.404 119.791,144.737 118.5,144.5C 118.167,144.5 117.833,144.5 117.5,144.5C 108.893,137.23 100.559,129.563 92.5,121.5C 92.1667,120.833 91.8333,120.167 91.5,119.5C 99.5143,109.822 105.848,99.1552 110.5,87.5 Z"/></g>
<g><path class="style-op" style="opacity:1" fill="#f06e23" d="M 40.5,77.5 C 39.1108,80.3976 37.9441,83.3976 37,86.5C 35.3565,100.282 34.1899,113.949 33.5,127.5C 25.7514,123.957 19.0848,118.957 13.5,112.5C 16.6718,104.142 21.3385,96.8092 27.5,90.5C 29.9289,89.1449 31.2623,87.4783 31.5,85.5C 33.8998,82.0969 36.8998,79.4302 40.5,77.5 Z"/></g>
<g><path class="style-op" style="opacity:1" fill="#f5921d" d="M 125.5,92.5 C 125.833,92.5 126.167,92.5 126.5,92.5C 133.745,94.3222 141.078,95.6556 148.5,96.5C 149.791,96.2627 150.791,96.596 151.5,97.5C 149.656,98.2039 149.156,99.5372 150,101.5C 155.007,110.857 160.507,119.857 166.5,128.5C 152.383,136.095 137.383,141.095 121.5,143.5C 120.235,142.486 119.569,140.986 119.5,139C 122.559,123.636 124.559,108.136 125.5,92.5 Z"/></g>
<g><path class="style-op" style="opacity:1" fill="#f28120" d="M 190.5,96.5 C 192.924,99.0078 194.59,102.008 195.5,105.5C 196.785,107.806 196.118,109.639 193.5,111C 186.243,116.754 178.576,121.921 170.5,126.5C 169.614,127.325 169.281,128.325 169.5,129.5C 168.609,128.89 167.609,128.557 166.5,128.5C 160.507,119.857 155.007,110.857 150,101.5C 149.156,99.5372 149.656,98.2039 151.5,97.5C 164.677,97.8288 177.677,97.4955 190.5,96.5 Z"/></g>
<g><path class="style-op" style="opacity:0.877" fill="#282828" d="M 264.5,138.5 C 263.264,140.043 261.598,141.043 259.5,141.5C 258.501,127.85 258.167,114.183 258.5,100.5C 255.167,100.5 251.833,100.5 248.5,100.5C 251.974,99.4751 255.64,98.8084 259.5,98.5C 259.5,112.167 259.5,125.833 259.5,139.5C 261.216,139.371 262.883,139.038 264.5,138.5 Z"/></g>
<g><path class="style-op" style="opacity:0.997" fill="#020202" d="M 411.5,99.5 C 412.833,99.5 414.167,99.5 415.5,99.5C 420.833,99.5 426.167,99.5 431.5,99.5C 431.5,103.5 431.5,107.5 431.5,111.5C 430.576,116.755 427.576,120.088 422.5,121.5C 415.167,121.5 407.833,121.5 400.5,121.5C 400.5,123.167 400.5,124.833 400.5,126.5C 400.5,126.833 400.5,127.167 400.5,127.5C 399.515,131.634 399.182,135.968 399.5,140.5C 407.833,140.5 416.167,140.5 424.5,140.5C 424.5,144.167 424.5,147.833 424.5,151.5C 423.545,155.789 420.878,157.789 416.5,157.5C 410.833,157.5 405.167,157.5 399.5,157.5C 399.5,175.5 399.5,193.5 399.5,211.5C 392.5,211.5 385.5,211.5 378.5,211.5C 378.227,183.484 378.561,155.484 379.5,127.5C 382.281,115.058 389.614,106.725 401.5,102.5C 405.084,102.025 408.417,101.025 411.5,99.5 Z"/></g>
<g><path class="style-op" style="opacity:0.999" fill="#050505" d="M 248.5,100.5 C 251.833,100.5 255.167,100.5 258.5,100.5C 258.167,114.183 258.501,127.85 259.5,141.5C 261.598,141.043 263.264,140.043 264.5,138.5C 280.82,132.333 294.986,135.666 307,148.5C 314.702,161.494 316.036,175.16 311,189.5C 309.386,192.94 307.22,195.94 304.5,198.5C 302.167,200.167 300.167,202.167 298.5,204.5C 296.516,207.164 293.849,208.831 290.5,209.5C 288.102,209.259 286.102,209.926 284.5,211.5C 266.904,215.631 252.737,210.297 242,195.5C 239.579,190.406 238.079,185.072 237.5,179.5C 237.177,154.759 237.51,130.092 238.5,105.5C 241.247,102.793 244.58,101.127 248.5,100.5 Z M 267.5,154.5 C 274.04,153.746 280.04,155.079 285.5,158.5C 288.065,162.297 290.065,166.297 291.5,170.5C 291.5,171.167 291.5,171.833 291.5,172.5C 291.495,176.534 291.162,180.534 290.5,184.5C 290.5,185.167 290.5,185.833 290.5,186.5C 289.079,189.009 287.412,191.343 285.5,193.5C 284.833,193.5 284.167,193.5 283.5,193.5C 278.149,194.02 273.149,193.02 268.5,190.5C 268.167,190.5 267.833,190.5 267.5,190.5C 266.5,188.833 265.167,187.5 263.5,186.5C 263.008,184.181 262.008,182.181 260.5,180.5C 260.034,174.509 259.701,168.509 259.5,162.5C 260.285,160.626 260.952,158.626 261.5,156.5C 263.579,156.029 265.579,155.363 267.5,154.5 Z"/></g>
<g><path class="style-op" style="opacity:0.4" fill="#373737" d="M 411.5,99.5 C 408.417,101.025 405.084,102.025 401.5,102.5C 404.381,100.32 407.714,99.32 411.5,99.5 Z"/></g>
<g><path class="style-op" style="opacity:0.718" fill="#313131" d="M 431.5,111.5 C 431.5,107.5 431.5,103.5 431.5,99.5C 426.167,99.5 420.833,99.5 415.5,99.5C 421.389,98.0876 427.389,97.7543 433.5,98.5C 433.665,102.182 433.499,105.848 433,109.5C 432.722,110.416 432.222,111.082 431.5,111.5 Z"/></g>
<g><path class="style-op" style="opacity:0.118" fill="#282828" d="M 238.5,105.5 C 237.51,130.092 237.177,154.759 237.5,179.5C 236.833,167.338 236.5,155.005 236.5,142.5C 236.501,129.815 237.168,117.481 238.5,105.5 Z"/></g>
<g><path class="style-op" style="opacity:1" fill="#f59220" d="M 195.5,105.5 C 198.54,108.914 200.54,112.914 201.5,117.5C 197.001,125.836 192.001,133.836 186.5,141.5C 185.833,141.5 185.167,141.5 184.5,141.5C 178.898,138.229 173.898,134.229 169.5,129.5C 169.281,128.325 169.614,127.325 170.5,126.5C 178.576,121.921 186.243,116.754 193.5,111C 196.118,109.639 196.785,107.806 195.5,105.5 Z"/></g>
<g><path class="style-op" style="opacity:1" fill="#c7252c" d="M 13.5,112.5 C 19.0848,118.957 25.7514,123.957 33.5,127.5C 33.5,128.167 33.8333,128.5 34.5,128.5C 34.4788,140.266 35.4788,151.933 37.5,163.5C 32.5738,160.079 28.0738,156.079 24,151.5C 18.2549,144.6 12.7549,137.6 7.5,130.5C 8.12835,123.948 10.1283,117.948 13.5,112.5 Z"/></g>
<g><path class="style-op" style="opacity:0.71" fill="#2b2b2b" d="M 422.5,121.5 C 415.687,122.491 408.687,122.825 401.5,122.5C 401.768,124.099 401.434,125.432 400.5,126.5C 400.5,124.833 400.5,123.167 400.5,121.5C 407.833,121.5 415.167,121.5 422.5,121.5 Z"/></g>
<g><path class="style-op" style="opacity:0.998" fill="#ee6420" d="M 201.5,117.5 C 202.404,118.209 202.737,119.209 202.5,120.5C 204.168,129.836 205.835,139.169 207.5,148.5C 199.67,148.334 192.67,146.001 186.5,141.5C 192.001,133.836 197.001,125.836 201.5,117.5 Z"/></g>
<g><path class="style-op" style="opacity:1" fill="#e01f24" d="M 34.5,128.5 C 45.3329,135.077 56.9995,139.744 69.5,142.5C 69.5,142.833 69.5,143.167 69.5,143.5C 60.1179,152.193 49.4512,158.859 37.5,163.5C 35.4788,151.933 34.4788,140.266 34.5,128.5 Z"/></g>
<g><path class="style-op" style="opacity:1" fill="#ee6320" d="M 166.5,128.5 C 167.609,128.557 168.609,128.89 169.5,129.5C 173.898,134.229 178.898,138.229 184.5,141.5C 178.284,151.72 170.284,160.387 160.5,167.5C 160.167,167.5 159.833,167.5 159.5,167.5C 144.73,161.62 131.063,153.953 118.5,144.5C 119.791,144.737 120.791,144.404 121.5,143.5C 137.383,141.095 152.383,136.095 166.5,128.5 Z"/></g>
<g><path class="style-op" style="opacity:0.82" fill="#f38c51" d="M 202.5,120.5 C 207.127,131.736 209.46,143.57 209.5,156C 209.498,159.021 209.164,161.854 208.5,164.5C 208.821,159.305 208.487,154.305 207.5,149.5C 207.5,149.167 207.5,148.833 207.5,148.5C 205.835,139.169 204.168,129.836 202.5,120.5 Z"/></g>
<g><path class="style-op" style="opacity:0.999" fill="#030303" d="M 369.5,150.5 C 368.401,155.399 365.401,158.566 360.5,160C 355.177,160.499 349.844,160.666 344.5,160.5C 343.778,160.918 343.278,161.584 343,162.5C 342.5,178.83 342.333,195.163 342.5,211.5C 335.833,211.5 329.167,211.5 322.5,211.5C 322.5,196.833 322.5,182.167 322.5,167.5C 322.5,167.167 322.5,166.833 322.5,166.5C 324.339,164.347 325.339,161.68 325.5,158.5C 329.529,147.143 337.529,140.476 349.5,138.5C 356.143,137.788 362.809,137.454 369.5,137.5C 369.5,141.833 369.5,146.167 369.5,150.5 Z"/></g>
<g><path class="style-op" style="opacity:1" fill="#912a8e" d="M 7.5,130.5 C 12.7549,137.6 18.2549,144.6 24,151.5C 28.0738,156.079 32.5738,160.079 37.5,163.5C 37.5,163.833 37.5,164.167 37.5,164.5C 32.4287,165.69 27.4287,167.19 22.5,169C 17.1924,169.83 11.8591,170.33 6.5,170.5C 5.83333,170.5 5.16667,170.5 4.5,170.5C 3.22206,159.824 3.38872,149.157 5,138.5C 5.27236,135.618 6.10569,132.951 7.5,130.5 Z"/></g>
<g><path class="style-op" style="opacity:0.817" fill="#2b2b2b" d="M 369.5,150.5 C 369.5,146.167 369.5,141.833 369.5,137.5C 362.809,137.454 356.143,137.788 349.5,138.5C 350.263,137.732 351.263,137.232 352.5,137C 358.825,136.5 365.158,136.334 371.5,136.5C 371.877,141.453 371.211,146.119 369.5,150.5 Z"/></g>
<g><path class="style-op" style="opacity:0.267" fill="#404040" d="M 400.5,127.5 C 400.5,131.5 400.5,135.5 400.5,139.5C 409.167,139.5 417.833,139.5 426.5,139.5C 426.802,143.79 426.136,147.79 424.5,151.5C 424.5,147.833 424.5,144.167 424.5,140.5C 416.167,140.5 407.833,140.5 399.5,140.5C 399.182,135.968 399.515,131.634 400.5,127.5 Z"/></g>
<g><path class="style-op" style="opacity:1" fill="#b7282d" d="M 69.5,143.5 C 70.3764,143.369 71.0431,143.702 71.5,144.5C 80.2244,162.281 90.7244,178.948 103,194.5C 103.483,195.448 103.649,196.448 103.5,197.5C 79.4964,191.331 57.8297,180.664 38.5,165.5C 38.5,164.833 38.1667,164.5 37.5,164.5C 37.5,164.167 37.5,163.833 37.5,163.5C 49.4512,158.859 60.1179,152.193 69.5,143.5 Z"/></g>
<g><path class="style-op" style="opacity:1" fill="#d02128" d="M 69.5,143.5 C 69.5,143.167 69.5,142.833 69.5,142.5C 84.0171,145.185 98.6838,146.185 113.5,145.5C 114.833,145.5 116.167,145.5 117.5,145.5C 115.072,163.212 111.072,180.545 105.5,197.5C 104.833,197.5 104.167,197.5 103.5,197.5C 103.649,196.448 103.483,195.448 103,194.5C 90.7244,178.948 80.2244,162.281 71.5,144.5C 71.0431,143.702 70.3764,143.369 69.5,143.5 Z"/></g>
<g><path class="style-op" style="opacity:1" fill="#f1771d" d="M 184.5,141.5 C 185.167,141.5 185.833,141.5 186.5,141.5C 192.67,146.001 199.67,148.334 207.5,148.5C 207.5,148.833 207.5,149.167 207.5,149.5C 203.083,158.668 198.416,167.668 193.5,176.5C 192.833,176.5 192.167,176.5 191.5,176.5C 180.897,174.522 170.564,171.522 160.5,167.5C 170.284,160.387 178.284,151.72 184.5,141.5 Z"/></g>
<g><path class="style-op" style="opacity:1" fill="#ea2e22" d="M 113.5,145.5 C 114.568,144.566 115.901,144.232 117.5,144.5C 117.833,144.5 118.167,144.5 118.5,144.5C 131.063,153.953 144.73,161.62 159.5,167.5C 143.272,180.616 125.272,190.616 105.5,197.5C 111.072,180.545 115.072,163.212 117.5,145.5C 116.167,145.5 114.833,145.5 113.5,145.5 Z"/></g>
<g><path class="style-op" style="opacity:1" fill="#f4911f" d="M 207.5,149.5 C 208.487,154.305 208.821,159.305 208.5,164.5C 208.5,165.167 208.5,165.833 208.5,166.5C 207.778,166.918 207.278,167.584 207,168.5C 206.502,171.482 206.335,174.482 206.5,177.5C 202.069,177.769 197.735,177.436 193.5,176.5C 198.416,167.668 203.083,158.668 207.5,149.5 Z"/></g>
<g><path class="style-op" style="opacity:0.29" fill="#424242" d="M 267.5,154.5 C 272.882,152.974 278.216,153.474 283.5,156C 284.381,156.708 285.047,157.542 285.5,158.5C 280.04,155.079 274.04,153.746 267.5,154.5 Z"/></g>
<g><path class="style-op" style="opacity:0.196" fill="#3b3b3b" d="M 379.5,127.5 C 378.561,155.484 378.227,183.484 378.5,211.5C 385.5,211.5 392.5,211.5 399.5,211.5C 399.5,211.833 399.5,212.167 399.5,212.5C 392.167,212.5 384.833,212.5 377.5,212.5C 377.333,185.498 377.5,158.498 378,131.5C 378.21,129.942 378.71,128.609 379.5,127.5 Z"/></g>
<g><path class="style-op" style="opacity:0.008" fill="#9f9f9f" d="M 261.5,156.5 C 260.952,158.626 260.285,160.626 259.5,162.5C 259.5,160.833 259.5,159.167 259.5,157.5C 259.842,156.662 260.508,156.328 261.5,156.5 Z"/></g>
<g><path class="style-op" style="opacity:0.307" fill="#3c3c3c" d="M 259.5,157.5 C 259.5,159.167 259.5,160.833 259.5,162.5C 259.701,168.509 260.034,174.509 260.5,180.5C 258.975,176.272 258.308,171.772 258.5,167C 258.502,163.648 258.835,160.482 259.5,157.5 Z"/></g>
<g><path class="style-op" style="opacity:0.149" fill="#515151" d="M 285.5,158.5 C 289.579,161.324 291.579,165.324 291.5,170.5C 290.065,166.297 288.065,162.297 285.5,158.5 Z"/></g>
<g><path class="style-op" style="opacity:0.1" fill="#8b8b8b" d="M 416.5,157.5 C 411.36,158.488 406.026,158.821 400.5,158.5C 400.83,176.674 400.497,194.674 399.5,212.5C 399.5,212.167 399.5,211.833 399.5,211.5C 399.5,193.5 399.5,175.5 399.5,157.5C 405.167,157.5 410.833,157.5 416.5,157.5 Z"/></g>
<g><path class="style-op" style="opacity:0.867" fill="#2f2f2f" d="M 325.5,158.5 C 325.339,161.68 324.339,164.347 322.5,166.5C 322.345,163.284 323.345,160.617 325.5,158.5 Z"/></g>
<g><path class="style-op" style="opacity:1" fill="#2b3794" d="M 37.5,164.5 C 38.1667,164.5 38.5,164.833 38.5,165.5C 41.3751,180.918 45.7084,195.918 51.5,210.5C 43.5393,205.509 35.8726,200.009 28.5,194C 21.9648,187.297 15.2982,180.797 8.5,174.5C 7.39952,173.395 6.73286,172.062 6.5,170.5C 11.8591,170.33 17.1924,169.83 22.5,169C 27.4287,167.19 32.4287,165.69 37.5,164.5 Z"/></g>
<g><path class="style-op" style="opacity:1" fill="#80298d" d="M 38.5,165.5 C 57.8297,180.664 79.4964,191.331 103.5,197.5C 98.796,200.132 93.796,202.298 88.5,204C 76.7013,206.92 65.0346,209.754 53.5,212.5C 52.8333,212.167 52.1667,211.833 51.5,211.5C 51.5,211.167 51.5,210.833 51.5,210.5C 45.7084,195.918 41.3751,180.918 38.5,165.5 Z"/></g>
<g><path class="style-op" style="opacity:1" fill="#d02228" d="M 159.5,167.5 C 159.833,167.5 160.167,167.5 160.5,167.5C 170.564,171.522 180.897,174.522 191.5,176.5C 186.317,184.195 180.651,191.528 174.5,198.5C 172.214,198.595 170.214,199.262 168.5,200.5C 157.236,202.133 145.903,202.8 134.5,202.5C 129.384,201.194 124.051,200.527 118.5,200.5C 114.384,200.459 110.384,199.793 106.5,198.5C 106.167,198.5 105.833,198.5 105.5,198.5C 105.5,198.167 105.5,197.833 105.5,197.5C 125.272,190.616 143.272,180.616 159.5,167.5 Z"/></g>
<g><path class="style-op" style="opacity:0.543" fill="#f7ab56" d="M 208.5,166.5 C 208.354,170.387 207.687,174.054 206.5,177.5C 206.335,174.482 206.502,171.482 207,168.5C 207.278,167.584 207.778,166.918 208.5,166.5 Z"/></g>
<g><path class="style-op" style="opacity:0.592" fill="#272727" d="M 344.5,160.5 C 344.667,177.503 344.5,194.503 344,211.5C 336.587,212.481 329.087,212.814 321.5,212.5C 321.171,197.324 321.504,182.324 322.5,167.5C 322.5,182.167 322.5,196.833 322.5,211.5C 329.167,211.5 335.833,211.5 342.5,211.5C 342.333,195.163 342.5,178.83 343,162.5C 343.278,161.584 343.778,160.918 344.5,160.5 Z"/></g>
<g><path class="style-op" style="opacity:1" fill="#e04127" d="M 191.5,176.5 C 192.167,176.5 192.833,176.5 193.5,176.5C 197.735,177.436 202.069,177.769 206.5,177.5C 206.435,180.428 205.768,183.095 204.5,185.5C 195.25,191.456 185.25,195.789 174.5,198.5C 180.651,191.528 186.317,184.195 191.5,176.5 Z"/></g>
<g><path class="style-op" style="opacity:1" fill="#2c64ad" d="M 4.5,170.5 C 5.16667,170.5 5.83333,170.5 6.5,170.5C 6.73286,172.062 7.39952,173.395 8.5,174.5C 8.39297,176.903 9.39297,178.736 11.5,180C 8.74187,182.402 9.07521,184.402 12.5,186C 11.572,186.388 10.9054,187.055 10.5,188C 12.0793,192.906 13.746,197.739 15.5,202.5C 9.86651,192.602 6.19985,181.936 4.5,170.5 Z"/></g>
<g><path class="style-op" style="opacity:0.38" fill="#3b3b3b" d="M 291.5,172.5 C 292.16,173.964 292.493,175.631 292.5,177.5C 292.684,180.205 292.017,182.538 290.5,184.5C 291.162,180.534 291.495,176.534 291.5,172.5 Z"/></g>
<g><path class="style-op" style="opacity:1" fill="#0151a3" d="M 8.5,174.5 C 15.2982,180.797 21.9648,187.297 28.5,194C 35.8726,200.009 43.5393,205.509 51.5,210.5C 51.5,210.833 51.5,211.167 51.5,211.5C 41.6076,212.984 31.6076,213.651 21.5,213.5C 21.5,213.167 21.5,212.833 21.5,212.5C 19.9998,208.827 17.9998,205.494 15.5,202.5C 13.746,197.739 12.0793,192.906 10.5,188C 10.9054,187.055 11.572,186.388 12.5,186C 9.07521,184.402 8.74187,182.402 11.5,180C 9.39297,178.736 8.39297,176.903 8.5,174.5 Z"/></g>
<g><path class="style-op" style="opacity:0.576" fill="#494949" d="M 263.5,186.5 C 265.167,187.5 266.5,188.833 267.5,190.5C 265.167,190.167 263.833,188.833 263.5,186.5 Z"/></g>
<g><path class="style-op" style="opacity:0.804" fill="#3f3f3f" d="M 290.5,186.5 C 290.983,190.577 289.316,192.91 285.5,193.5C 287.412,191.343 289.079,189.009 290.5,186.5 Z"/></g>
<g><path class="style-op" style="opacity:0.494" fill="#676767" d="M 268.5,190.5 C 273.149,193.02 278.149,194.02 283.5,193.5C 278.856,194.907 274.189,194.573 269.5,192.5C 268.702,192.043 268.369,191.376 268.5,190.5 Z"/></g>
<g><path class="style-op" style="opacity:1" fill="#9b2e4e" d="M 204.5,185.5 C 196.537,211.788 180.537,231.455 156.5,244.5C 149.871,239.846 143.204,235.179 136.5,230.5C 136.5,230.167 136.5,229.833 136.5,229.5C 149.453,221.727 161.12,212.227 171.5,201C 170.552,200.517 169.552,200.351 168.5,200.5C 170.214,199.262 172.214,198.595 174.5,198.5C 185.25,195.789 195.25,191.456 204.5,185.5 Z"/></g>
<g><path class="style-op" style="opacity:1" fill="#97238c" d="M 103.5,197.5 C 104.167,197.5 104.833,197.5 105.5,197.5C 105.5,197.833 105.5,198.167 105.5,198.5C 101.395,209.402 97.2286,220.402 93,231.5C 92.4387,232.022 91.772,232.355 91,232.5C 77.6471,227.243 65.1471,220.576 53.5,212.5C 65.0346,209.754 76.7013,206.92 88.5,204C 93.796,202.298 98.796,200.132 103.5,197.5 Z"/></g>
<g><path class="style-op" style="opacity:1" fill="#80298c" d="M 106.5,198.5 C 110.384,199.793 114.384,200.459 118.5,200.5C 123.598,201.957 128.931,202.624 134.5,202.5C 145.903,202.8 157.236,202.133 168.5,200.5C 169.552,200.351 170.552,200.517 171.5,201C 161.12,212.227 149.453,221.727 136.5,229.5C 125.128,220.462 115.128,210.129 106.5,198.5 Z"/></g>
<g><path class="style-op" style="opacity:1" fill="#244099" d="M 105.5,198.5 C 105.833,198.5 106.167,198.5 106.5,198.5C 115.128,210.129 125.128,220.462 136.5,229.5C 136.5,229.833 136.5,230.167 136.5,230.5C 129.729,233.72 123.063,237.22 116.5,241C 118.635,242.381 120.968,243.381 123.5,244C 130.491,245.213 137.491,246.38 144.5,247.5C 146.03,247.64 147.03,248.307 147.5,249.5C 127.009,257.921 106.009,259.921 84.5,255.5C 84.5774,254.25 85.244,253.417 86.5,253C 96.057,249.888 105.39,246.221 114.5,242C 107.251,239.081 99.9173,236.248 92.5,233.5C 89.3293,240.514 85.6627,247.18 81.5,253.5C 68.9302,242.022 59.5969,228.355 53.5,212.5C 65.1471,220.576 77.6471,227.243 91,232.5C 91.772,232.355 92.4387,232.022 93,231.5C 97.2286,220.402 101.395,209.402 105.5,198.5 Z"/></g>
<g><path class="style-op" style="opacity:1" fill="#be223f" d="M 118.5,200.5 C 124.051,200.527 129.384,201.194 134.5,202.5C 128.931,202.624 123.598,201.957 118.5,200.5 Z"/></g>
<g><path class="style-op" style="opacity:0.016" fill="#404040" d="M 304.5,198.5 C 303.5,201.5 301.5,203.5 298.5,204.5C 300.167,202.167 302.167,200.167 304.5,198.5 Z"/></g>
<g><path class="style-op" style="opacity:0.165" fill="#4a81bb" d="M 15.5,202.5 C 17.9998,205.494 19.9998,208.827 21.5,212.5C 18.4977,209.839 16.4977,206.505 15.5,202.5 Z"/></g>
<g><path class="style-op" style="opacity:0.329" fill="#434343" d="M 290.5,209.5 C 288.786,210.738 286.786,211.405 284.5,211.5C 286.102,209.926 288.102,209.259 290.5,209.5 Z"/></g>
<g><path class="style-op" style="opacity:0.999" fill="#0b67b1" d="M 51.5,211.5 C 52.1667,211.833 52.8333,212.167 53.5,212.5C 59.5969,228.355 68.9302,242.022 81.5,253.5C 85.6627,247.18 89.3293,240.514 92.5,233.5C 99.9173,236.248 107.251,239.081 114.5,242C 105.39,246.221 96.057,249.888 86.5,253C 85.244,253.417 84.5774,254.25 84.5,255.5C 68.107,252.469 53.7737,245.469 41.5,234.5C 39.1002,231.097 36.1002,228.43 32.5,226.5C 28.4874,222.485 24.8207,218.152 21.5,213.5C 31.6076,213.651 41.6076,212.984 51.5,211.5 Z"/></g>
<g><path class="style-op" style="opacity:0.494" fill="#518cbf" d="M 32.5,226.5 C 36.1002,228.43 39.1002,231.097 41.5,234.5C 37.8998,232.57 34.8998,229.903 32.5,226.5 Z"/></g>
<g><path class="style-op" style="opacity:1" fill="#0951a2" d="M 136.5,230.5 C 143.204,235.179 149.871,239.846 156.5,244.5C 153.987,246.926 150.987,248.592 147.5,249.5C 147.03,248.307 146.03,247.64 144.5,247.5C 137.491,246.38 130.491,245.213 123.5,244C 120.968,243.381 118.635,242.381 116.5,241C 123.063,237.22 129.729,233.72 136.5,230.5 Z"/></g>
</svg>
