<?xml version="1.0" encoding="utf-8"?>
<!-- Generator: Adobe Illustrator 19.2.0, SVG Export Plug-In . SVG Version: 6.00 Build 0)  -->
<svg version="1.1" id="Layer_1" xmlns="http://www.w3.org/2000/svg" xmlns:xlink="http://www.w3.org/1999/xlink" x="0px" y="0px"
	 viewBox="0 0 1197.1 396" style="enable-background:new 0 0 1197.1 396;" xml:space="preserve">
<style type="text/css">
	.st0{fill:none;}
	.st1{fill:#black;}
</style>
<line class="st0" x1="-33.1" y1="-41.8" x2="-33.1" y2="329.6"/>
<g>
	<g>
		<path class="st1" d="M169.8,259.2c0.4,0.8,1.7,1.7,2.7,1.7l0,0h1.7l0,0c1,0,2.9,0,3.9,0l0,0h1.7l0,0c1,0,2.3-0.8,2.7-1.7l0,0
			l29.8-75.8l0,0c1.9-3.9,3.3-3.7,3.3,0.6l0,0v46.4l0,0c0,4.6-2.5,8.1-5.4,8.1c-2.9,0-5.2,3.5-5.2,8.1l0,0v19.2h50.6v-13.7l0.2-5.4
			l0,0c0-4.6-2.5-8.1-5.4-8.1c-2.5,0-4.4-2.3-5.2-5.4l0,0v-77.2c0-4.4,2.1-7.9,5.2-7.9c2.9,0,5.4-3.7,5.4-8.1l0,0v-21.2h-46
			l-34.3,82.4l-34.3-82.4H94.7v21.2l0,0c0,4.4,2.3,8.1,5.2,8.1c3.1,0,5.4,3.5,5.4,7.9l0,0v74.5l0,0c0,4.6-2.3,8.1-5.4,8.1
			c-2.9,0-5.2,3.5-5.2,8.1l0,0l-0.2,19.2h50.8v-19.2l0,0c0-4.6-2.3-8.1-5.2-8.1c-2.9,0-5.4-3.5-5.4-8.1l0,0V184l0,0
			c0-4.4,1.5-4.6,3.3-0.6l0,0L169.8,259.2L169.8,259.2z"/>
		<path class="st1" d="M175.9,24.8c91.6,0,166.3,74.7,166.3,166.3c0,91.6-74.7,166.3-166.3,166.3c-91.6,0-166.3-74.7-166.3-166.3
			C9.5,99.5,84.3,24.8,175.9,24.8L175.9,24.8z M175.9,57.9c-73.3,0-133.2,59.7-133.2,133.2c0,73.3,59.9,133.2,133.2,133.2
			c73.5,0,133.2-59.9,133.2-133.2C309.1,117.6,249.3,57.9,175.9,57.9z"/>
	</g>
	<g>
		<path class="st1" d="M497.3,249.6h32.5v108h-21v-73.1c0-2.1,0-5,0.1-8.8s0.1-6.7,0.1-8.8l-20.5,90.7h-21.9L446.2,267
			c0,2.1,0,5,0.1,8.8c0,3.8,0.1,6.7,0.1,8.8v73.1h-21v-108h32.9l19.7,85L497.3,249.6z"/>
		<path class="st1" d="M580.7,309.1c3.9-0.5,6.7-1.1,8.3-1.8c3-1.3,4.5-3.2,4.5-5.9c0-3.3-1.2-5.5-3.5-6.8
			c-2.3-1.2-5.7-1.9-10.1-1.9c-5,0-8.5,1.2-10.6,3.7c-1.5,1.8-2.5,4.3-3,7.3h-20.2c0.4-7,2.4-12.7,5.9-17.2
			c5.5-7,15.1-10.6,28.6-10.6c8.8,0,16.6,1.7,23.4,5.2c6.8,3.5,10.2,10,10.2,19.6v36.6c0,2.5,0,5.6,0.1,9.2c0.1,2.7,0.6,4.6,1.2,5.6
			c0.7,1,1.7,1.8,3.1,2.4v3.1H596c-0.6-1.6-1.1-3.1-1.3-4.5c-0.2-1.4-0.4-3-0.6-4.8c-2.9,3.1-6.2,5.8-10,8
			c-4.5,2.6-9.6,3.9-15.3,3.9c-7.3,0-13.3-2.1-18-6.2c-4.7-4.1-7.1-10-7.1-17.6c0-9.8,3.8-16.9,11.4-21.3c4.2-2.4,10.3-4.1,18.5-5.1
			L580.7,309.1z M593.4,318.8c-1.3,0.8-2.7,1.5-4,2s-3.2,1-5.6,1.4l-4.8,0.9c-4.5,0.8-7.7,1.7-9.6,2.9c-3.3,1.9-4.9,4.9-4.9,8.9
			c0,3.6,1,6.1,3,7.7c2,1.6,4.5,2.4,7.3,2.4c4.6,0,8.8-1.3,12.6-4c3.8-2.6,5.8-7.5,6-14.4V318.8z"/>
		<path class="st1" d="M680.3,306.4c-0.4-3-1.4-5.7-3-8.1c-2.4-3.2-6-4.8-10.9-4.8c-7.1,0-11.9,3.5-14.5,10.5
			c-1.4,3.7-2.1,8.6-2.1,14.8c0,5.9,0.7,10.6,2.1,14.1c2.5,6.6,7.2,10,14.1,10c4.9,0,8.4-1.3,10.4-4c2.1-2.6,3.3-6.1,3.7-10.3h21.3
			c-0.5,6.4-2.8,12.4-6.9,18c-6.6,9.1-16.3,13.7-29.1,13.7c-12.9,0-22.3-3.8-28.4-11.4c-6.1-7.6-9.1-17.5-9.1-29.7
			c0-13.7,3.4-24.4,10.1-32c6.7-7.6,15.9-11.4,27.7-11.4c10,0,18.2,2.2,24.6,6.7c6.4,4.5,10.2,12.4,11.3,23.8H680.3z"/>
		<path class="st1" d="M715.8,250h20.5v58.3l26.3-30.1h26L760,307.9l29.7,49.8h-25.4L745,323.5l-8.7,9v25.1h-20.5V250z"/>
		<path class="st1" d="M851.6,279.4c5.6,2.5,10.2,6.4,13.8,11.8c3.3,4.7,5.4,10.3,6.4,16.5c0.6,3.7,0.8,9,0.7,15.9h-58.2
			c0.3,8,3.1,13.6,8.4,16.9c3.2,2,7,3,11.5,3c4.8,0,8.6-1.2,11.6-3.7c1.6-1.3,3.1-3.2,4.3-5.5h21.3c-0.6,4.7-3.1,9.6-7.7,14.4
			c-7.2,7.8-17.2,11.7-30.1,11.7c-10.6,0-20-3.3-28.1-9.8c-8.1-6.6-12.2-17.2-12.2-32c0-13.8,3.7-24.5,11-31.8
			c7.3-7.4,16.9-11.1,28.6-11.1C839.7,275.7,846,276.9,851.6,279.4z M820.3,297.4c-3,3-4.8,7.2-5.6,12.4h36
			c-0.4-5.5-2.2-9.8-5.6-12.6c-3.3-2.9-7.5-4.3-12.4-4.3C827.4,292.9,823.3,294.4,820.3,297.4z"/>
		<path class="st1" d="M947.4,282.4c5.2,4.3,7.8,11.5,7.8,21.5v53.8h-21.4v-48.6c0-4.2-0.6-7.4-1.7-9.7c-2-4.1-5.9-6.2-11.6-6.2
			c-7,0-11.9,3-14.5,9c-1.4,3.2-2,7.2-2,12.2v43.2h-20.9v-79.7h20.2v11.7c2.7-4.1,5.2-7.1,7.6-8.9c4.3-3.2,9.7-4.8,16.3-4.8
			C935.4,275.9,942.2,278,947.4,282.4z"/>
		<path class="st1" d="M970.1,294.8v-17h63.2v17.4l-39.2,45.4h40.6v17.2h-67.4v-16.3l39.6-46.6H970.1z"/>
		<path class="st1" d="M1071.2,268.2H1050V249h21.2V268.2z M1050,277.8h21.2v79.9H1050V277.8z"/>
		<path class="st1" d="M1143.5,279.4c5.6,2.5,10.2,6.4,13.8,11.8c3.3,4.7,5.4,10.3,6.4,16.5c0.6,3.7,0.8,9,0.7,15.9h-58.2
			c0.3,8,3.1,13.6,8.4,16.9c3.2,2,7,3,11.5,3c4.8,0,8.6-1.2,11.6-3.7c1.6-1.3,3.1-3.2,4.3-5.5h21.3c-0.6,4.7-3.1,9.6-7.7,14.4
			c-7.2,7.8-17.2,11.7-30.1,11.7c-10.6,0-20-3.3-28.1-9.8c-8.1-6.6-12.2-17.2-12.2-32c0-13.8,3.7-24.5,11-31.8
			c7.3-7.4,16.9-11.1,28.6-11.1C1131.7,275.7,1137.9,276.9,1143.5,279.4z M1112.2,297.4c-3,3-4.8,7.2-5.6,12.4h36
			c-0.4-5.5-2.2-9.8-5.6-12.6c-3.3-2.9-7.5-4.3-12.4-4.3C1119.4,292.9,1115.2,294.4,1112.2,297.4z"/>
	</g>
	<g>
		<path class="st1" d="M425.3,136.7V58.2h16.3v29.9h30.5V58.2h16.3v78.5h-16.3v-35.1h-30.5v35.1H425.3z"/>
		<path class="st1" d="M551.4,129.6c-4.9,6-12.3,9.1-22.3,9.1c-10,0-17.4-3-22.3-9.1c-4.9-6-7.4-13.3-7.4-21.8
			c0-8.4,2.5-15.6,7.4-21.8s12.3-9.2,22.3-9.2c10,0,17.4,3.1,22.3,9.2s7.4,13.4,7.4,21.8C558.7,116.3,556.3,123.6,551.4,129.6z
			 M539.2,121.2c2.4-3.2,3.6-7.6,3.6-13.5c0-5.8-1.2-10.3-3.6-13.4c-2.4-3.1-5.8-4.7-10.2-4.7c-4.4,0-7.9,1.6-10.3,4.7
			c-2.4,3.1-3.6,7.6-3.6,13.4c0,5.8,1.2,10.3,3.6,13.5c2.4,3.2,5.8,4.7,10.3,4.7C533.5,126,536.9,124.4,539.2,121.2z"/>
		<path class="st1" d="M581.4,118.2c0.3,2.7,1,4.6,2.1,5.8c1.9,2,5.4,3,10.5,3c3,0,5.4-0.4,7.1-1.3c1.8-0.9,2.6-2.2,2.6-4
			c0-1.7-0.7-3-2.1-3.9c-1.4-0.9-6.7-2.4-15.9-4.6c-6.6-1.6-11.2-3.7-13.9-6.1c-2.7-2.4-4-5.9-4-10.4c0-5.4,2.1-10,6.3-13.8
			c4.2-3.9,10.2-5.8,17.8-5.8c7.3,0,13.2,1.4,17.7,4.3c4.6,2.9,7.2,7.9,7.9,15h-15.2c-0.2-2-0.8-3.5-1.7-4.6
			c-1.7-2.1-4.5-3.1-8.5-3.1c-3.3,0-5.7,0.5-7.1,1.5c-1.4,1-2.1,2.2-2.1,3.6c0,1.7,0.7,3,2.2,3.8c1.5,0.8,6.8,2.2,15.9,4.2
			c6,1.4,10.6,3.6,13.6,6.4c3,2.9,4.5,6.6,4.5,10.9c0,5.8-2.1,10.4-6.4,14.1c-4.3,3.6-10.9,5.5-19.9,5.5c-9.1,0-15.9-1.9-20.3-5.8
			c-4.4-3.9-6.5-8.8-6.5-14.7H581.4z"/>
		<path class="st1" d="M679.1,84.9c4.7,5,7.1,12.4,7.1,22.1c0,10.2-2.3,18-6.9,23.4c-4.6,5.4-10.6,8-17.9,8c-4.6,0-8.5-1.2-11.6-3.5
			c-1.7-1.3-3.3-3.1-4.9-5.6v30.3h-15V78.7h14.5v8.6c1.6-2.5,3.4-4.5,5.3-6c3.4-2.6,7.4-3.9,12.1-3.9
			C668.6,77.4,674.4,79.9,679.1,84.9z M667.5,95.8c-2.1-3.4-5.4-5.2-10-5.2c-5.6,0-9.4,2.6-11.5,7.8c-1.1,2.8-1.6,6.3-1.6,10.5
			c0,6.7,1.8,11.5,5.4,14.2c2.2,1.6,4.7,2.4,7.6,2.4c4.3,0,7.5-1.6,9.8-4.9c2.2-3.3,3.4-7.6,3.4-13.1
			C670.6,103.2,669.5,99.3,667.5,95.8z"/>
		<path class="st1" d="M712.5,71.7h-15.4v-14h15.4V71.7z M697.1,78.7h15.4v58.1h-15.4V78.7z"/>
		<path class="st1" d="M721.3,90V79.2h8.1V63h15v16.2h9.4V90h-9.4v30.7c0,2.4,0.3,3.9,0.9,4.4c0.6,0.6,2.5,0.9,5.5,0.9
			c0.5,0,0.9,0,1.5,0c0.5,0,1,0,1.5-0.1v11.3l-7.2,0.3c-7.2,0.2-12.1-1-14.7-3.7c-1.7-1.7-2.6-4.4-2.6-8V90H721.3z"/>
		<path class="st1" d="M786.6,101.4c2.8-0.4,4.8-0.8,6.1-1.3c2.2-0.9,3.3-2.4,3.3-4.3c0-2.4-0.8-4-2.5-4.9s-4.1-1.4-7.4-1.4
			c-3.6,0-6.2,0.9-7.7,2.7c-1.1,1.3-1.8,3.1-2.2,5.3h-14.6c0.3-5.1,1.7-9.3,4.3-12.5c4-5.1,10.9-7.7,20.8-7.7c6.4,0,12.1,1.3,17,3.8
			c5,2.5,7.4,7.3,7.4,14.3V122c0,1.8,0,4.1,0.1,6.7c0.1,2,0.4,3.3,0.9,4c0.5,0.7,1.2,1.3,2.2,1.8v2.2h-16.5c-0.5-1.2-0.8-2.3-1-3.3
			c-0.2-1-0.3-2.2-0.4-3.5c-2.1,2.3-4.5,4.2-7.3,5.8c-3.3,1.9-7,2.8-11.1,2.8c-5.3,0-9.7-1.5-13.1-4.5s-5.2-7.3-5.2-12.8
			c0-7.1,2.8-12.3,8.3-15.5c3-1.7,7.5-3,13.4-3.7L786.6,101.4z M795.8,108.5c-1,0.6-2,1.1-2.9,1.5c-1,0.4-2.3,0.7-4.1,1l-3.5,0.6
			c-3.2,0.6-5.6,1.3-7,2.1c-2.4,1.4-3.6,3.5-3.6,6.4c0,2.6,0.7,4.5,2.2,5.6c1.5,1.2,3.2,1.7,5.3,1.7c3.3,0,6.4-1,9.2-2.9
			c2.8-1.9,4.2-5.4,4.4-10.5V108.5z"/>
		<path class="st1" d="M839.7,136.7h-15.2V58.2h15.2V136.7z"/>
	</g>
	<g>
		<path class="st1" d="M425.3,175.8h9.8V204c0,3.2,0.4,5.5,1.1,6.9c1.2,2.6,3.7,3.9,7.6,3.9c3.9,0,6.4-1.3,7.6-3.9
			c0.7-1.5,1.1-3.8,1.1-6.9v-28.3h9.8V204c0,4.9-0.8,8.7-2.3,11.4c-2.8,5-8.2,7.5-16.2,7.5c-8,0-13.4-2.5-16.2-7.5
			c-1.5-2.7-2.3-6.5-2.3-11.4V175.8z"/>
		<path class="st1" d="M498.2,189.7c2.2,1.8,3.3,4.9,3.3,9.2v22.9h-9.1v-20.7c0-1.8-0.2-3.2-0.7-4.1c-0.9-1.7-2.5-2.6-5-2.6
			c-3,0-5.1,1.3-6.2,3.8c-0.6,1.4-0.9,3.1-0.9,5.2v18.4h-8.9v-34h8.6v5c1.1-1.7,2.2-3,3.2-3.8c1.8-1.4,4.1-2.1,6.9-2.1
			C493.1,186.9,496,187.9,498.2,189.7z"/>
		<path class="st1" d="M519,183.7h-9v-8.2h9V183.7z M510,187.7h9v34h-9V187.7z"/>
		<path class="st1" d="M548.6,187.7h9.6l-12.3,34h-9.4l-12.2-34h10l7.1,25.1L548.6,187.7z"/>
		<path class="st1" d="M585.3,188.4c2.4,1.1,4.3,2.7,5.9,5c1.4,2,2.3,4.4,2.7,7c0.2,1.6,0.3,3.8,0.3,6.8h-24.8
			c0.1,3.4,1.3,5.8,3.6,7.2c1.4,0.9,3,1.3,4.9,1.3c2,0,3.7-0.5,4.9-1.6c0.7-0.6,1.3-1.3,1.8-2.3h9.1c-0.2,2-1.3,4.1-3.3,6.2
			c-3,3.3-7.3,5-12.8,5c-4.5,0-8.5-1.4-12-4.2c-3.5-2.8-5.2-7.3-5.2-13.6c0-5.9,1.6-10.4,4.7-13.6c3.1-3.1,7.2-4.7,12.2-4.7
			C580.3,186.8,583,187.4,585.3,188.4z M572,196.1c-1.3,1.3-2,3.1-2.4,5.3H585c-0.2-2.4-1-4.2-2.4-5.4c-1.4-1.2-3.2-1.8-5.3-1.8
			C575.1,194.2,573.3,194.8,572,196.1z"/>
		<path class="st1" d="M617.6,187c0.1,0,0.4,0,0.8,0v9.1c-0.6-0.1-1.1-0.1-1.5-0.1c-0.4,0-0.8,0-1.1,0c-3.6,0-6,1.2-7.2,3.5
			c-0.7,1.3-1,3.3-1,6.1v16.3h-9v-34h8.5v5.9c1.4-2.3,2.6-3.8,3.6-4.7c1.7-1.4,3.8-2.1,6.5-2.1C617.4,186.9,617.5,186.9,617.6,187z"
			/>
		<path class="st1" d="M630.5,210.9c0.2,1.6,0.6,2.7,1.2,3.4c1.1,1.2,3.2,1.8,6.1,1.8c1.8,0,3.2-0.3,4.2-0.8c1-0.5,1.6-1.3,1.6-2.3
			c0-1-0.4-1.8-1.3-2.3c-0.8-0.5-3.9-1.4-9.3-2.7c-3.9-1-6.6-2.2-8.2-3.6c-1.6-1.4-2.4-3.5-2.4-6.1c0-3.1,1.2-5.8,3.7-8.1
			c2.5-2.3,6-3.4,10.4-3.4c4.3,0,7.7,0.8,10.4,2.5c2.7,1.7,4.2,4.6,4.6,8.8h-8.9c-0.1-1.1-0.4-2.1-1-2.7c-1-1.2-2.7-1.8-5-1.8
			c-1.9,0-3.3,0.3-4.1,0.9c-0.8,0.6-1.2,1.3-1.2,2.1c0,1,0.4,1.8,1.3,2.2c0.9,0.5,4,1.3,9.3,2.5c3.5,0.8,6.2,2.1,8,3.8
			c1.7,1.7,2.6,3.8,2.6,6.4c0,3.4-1.3,6.1-3.8,8.3c-2.5,2.1-6.4,3.2-11.7,3.2c-5.4,0-9.3-1.1-11.9-3.4s-3.8-5.1-3.8-8.6H630.5z"/>
		<path class="st1" d="M668.3,183.7h-9v-8.2h9V183.7z M659.3,187.7h9v34h-9V187.7z"/>
		<path class="st1" d="M673.5,194.4v-6.3h4.7v-9.5h8.8v9.5h5.5v6.3H687v18c0,1.4,0.2,2.3,0.5,2.6s1.4,0.5,3.2,0.5c0.3,0,0.6,0,0.9,0
			c0.3,0,0.6,0,0.9,0v6.7l-4.2,0.2c-4.2,0.1-7.1-0.6-8.6-2.2c-1-1-1.5-2.6-1.5-4.7v-21H673.5z"/>
		<path class="st1" d="M711.7,201.1c1.7-0.2,2.8-0.5,3.6-0.8c1.3-0.5,1.9-1.4,1.9-2.5c0-1.4-0.5-2.4-1.5-2.9c-1-0.5-2.4-0.8-4.3-0.8
			c-2.1,0-3.6,0.5-4.5,1.6c-0.6,0.8-1.1,1.8-1.3,3.1H697c0.2-3,1-5.4,2.5-7.3c2.4-3,6.4-4.5,12.2-4.5c3.7,0,7.1,0.7,10,2.2
			c2.9,1.5,4.4,4.3,4.4,8.4v15.6c0,1.1,0,2.4,0.1,3.9c0.1,1.2,0.2,2,0.5,2.4c0.3,0.4,0.7,0.8,1.3,1v1.3h-9.7
			c-0.3-0.7-0.5-1.3-0.6-1.9c-0.1-0.6-0.2-1.3-0.2-2.1c-1.2,1.3-2.7,2.5-4.3,3.4c-1.9,1.1-4.1,1.7-6.5,1.7c-3.1,0-5.7-0.9-7.7-2.6
			c-2-1.8-3-4.3-3-7.5c0-4.2,1.6-7.2,4.9-9.1c1.8-1,4.4-1.7,7.9-2.2L711.7,201.1z M717.2,205.2c-0.6,0.4-1.1,0.6-1.7,0.9
			c-0.6,0.2-1.4,0.4-2.4,0.6l-2,0.4c-1.9,0.3-3.3,0.7-4.1,1.2c-1.4,0.8-2.1,2.1-2.1,3.8c0,1.5,0.4,2.6,1.3,3.3c0.9,0.7,1.9,1,3.1,1
			c1.9,0,3.7-0.6,5.4-1.7c1.6-1.1,2.5-3.2,2.6-6.2V205.2z M722.7,173.8l-9.5,9.3h-6.4l6-9.3H722.7z"/>
		<path class="st1" d="M752.7,187c0.1,0,0.4,0,0.8,0v9.1c-0.6-0.1-1.1-0.1-1.5-0.1c-0.4,0-0.8,0-1.1,0c-3.6,0-6,1.2-7.2,3.5
			c-0.7,1.3-1,3.3-1,6.1v16.3h-9v-34h8.5v5.9c1.4-2.3,2.6-3.8,3.6-4.7c1.7-1.4,3.8-2.1,6.5-2.1C752.5,186.9,752.6,186.9,752.7,187z"
			/>
		<path class="st1" d="M767.8,183.7h-9v-8.2h9V183.7z M758.8,187.7h9v34h-9V187.7z"/>
		<path class="st1" d="M804.8,217.6c-2.9,3.5-7.2,5.3-13.1,5.3s-10.2-1.8-13.1-5.3c-2.9-3.5-4.3-7.8-4.3-12.8
			c0-4.9,1.4-9.2,4.3-12.8c2.9-3.6,7.2-5.4,13.1-5.4s10.2,1.8,13.1,5.4c2.9,3.6,4.3,7.9,4.3,12.8
			C809.2,209.8,807.7,214.1,804.8,217.6z M797.7,212.7c1.4-1.9,2.1-4.5,2.1-7.9c0-3.4-0.7-6-2.1-7.9c-1.4-1.8-3.4-2.8-6-2.8
			s-4.6,0.9-6,2.8s-2.1,4.5-2.1,7.9c0,3.4,0.7,6,2.1,7.9s3.4,2.8,6,2.8S796.3,214.6,797.7,212.7z"/>
		<path class="st1" d="M868,183.9h-24.4v9.8H866v8h-22.4v11.8h25.5v8.3h-34.9v-46H868V183.9z"/>
		<path class="st1" d="M896.9,187.7h9.6l-12.3,34h-9.4l-12.2-34h10l7.1,25.1L896.9,187.7z"/>
		<path class="st1" d="M925,201.1c1.7-0.2,2.8-0.5,3.6-0.8c1.3-0.5,1.9-1.4,1.9-2.5c0-1.4-0.5-2.4-1.5-2.9c-1-0.5-2.4-0.8-4.3-0.8
			c-2.1,0-3.6,0.5-4.5,1.6c-0.6,0.8-1.1,1.8-1.3,3.1h-8.6c0.2-3,1-5.4,2.5-7.3c2.4-3,6.4-4.5,12.2-4.5c3.7,0,7.1,0.7,10,2.2
			c2.9,1.5,4.4,4.3,4.4,8.4v15.6c0,1.1,0,2.4,0.1,3.9c0.1,1.2,0.2,2,0.5,2.4c0.3,0.4,0.7,0.8,1.3,1v1.3h-9.7
			c-0.3-0.7-0.5-1.3-0.6-1.9c-0.1-0.6-0.2-1.3-0.2-2.1c-1.2,1.3-2.7,2.5-4.3,3.4c-1.9,1.1-4.1,1.7-6.5,1.7c-3.1,0-5.7-0.9-7.7-2.6
			c-2-1.8-3-4.3-3-7.5c0-4.2,1.6-7.2,4.9-9.1c1.8-1,4.4-1.7,7.9-2.2L925,201.1z M930.4,205.2c-0.6,0.4-1.1,0.6-1.7,0.9
			c-0.6,0.2-1.4,0.4-2.4,0.6l-2,0.4c-1.9,0.3-3.3,0.7-4.1,1.2c-1.4,0.8-2.1,2.1-2.1,3.8c0,1.5,0.4,2.6,1.3,3.3c0.9,0.7,1.9,1,3.1,1
			c1.9,0,3.7-0.6,5.4-1.7c1.6-1.1,2.5-3.2,2.6-6.2V205.2z"/>
		<path class="st1" d="M974.5,189.7c2.2,1.8,3.3,4.9,3.3,9.2v22.9h-9.1v-20.7c0-1.8-0.2-3.2-0.7-4.1c-0.9-1.7-2.5-2.6-5-2.6
			c-3,0-5.1,1.3-6.2,3.8c-0.6,1.4-0.9,3.1-0.9,5.2v18.4h-8.9v-34h8.6v5c1.1-1.7,2.2-3,3.2-3.8c1.8-1.4,4.1-2.1,6.9-2.1
			C969.4,186.9,972.3,187.9,974.5,189.7z"/>
		<path class="st1" d="M1003,187.7c2.2,0.9,3.9,2.5,5.2,4.9v-4.9h8.7V220c0,4.4-0.7,7.7-2.2,9.9c-2.5,3.8-7.4,5.7-14.6,5.7
			c-4.4,0-7.9-0.9-10.6-2.6c-2.7-1.7-4.3-4.3-4.6-7.7h9.7c0.2,1,0.7,1.8,1.2,2.2c1,0.8,2.6,1.2,4.8,1.2c3.2,0,5.3-1.1,6.4-3.2
			c0.7-1.4,1.1-3.7,1.1-6.9v-2.2c-0.9,1.5-1.8,2.6-2.7,3.3c-1.8,1.4-4.1,2-6.9,2c-4.4,0-7.9-1.5-10.5-4.6c-2.6-3.1-3.9-7.2-3.9-12.5
			c0-5.1,1.3-9.3,3.8-12.8c2.5-3.4,6.1-5.2,10.7-5.2C1000.2,186.9,1001.7,187.2,1003,187.7z M1006,212.1c1.4-1.6,2.1-4.1,2.1-7.5
			c0-3.2-0.7-5.7-2-7.4c-1.4-1.7-3.2-2.5-5.5-2.5c-3.1,0-5.3,1.5-6.4,4.4c-0.6,1.6-0.9,3.5-0.9,5.8c0,2,0.3,3.7,1,5.3
			c1.2,2.9,3.4,4.3,6.5,4.3C1002.8,214.5,1004.6,213.7,1006,212.1z"/>
		<path class="st1" d="M1047.4,188.4c2.4,1.1,4.3,2.7,5.9,5c1.4,2,2.3,4.4,2.7,7c0.2,1.6,0.3,3.8,0.3,6.8h-24.8
			c0.1,3.4,1.3,5.8,3.6,7.2c1.4,0.9,3,1.3,4.9,1.3c2,0,3.7-0.5,4.9-1.6c0.7-0.6,1.3-1.3,1.8-2.3h9.1c-0.2,2-1.3,4.1-3.3,6.2
			c-3,3.3-7.3,5-12.8,5c-4.5,0-8.5-1.4-12-4.2c-3.5-2.8-5.2-7.3-5.2-13.6c0-5.9,1.6-10.4,4.7-13.6c3.1-3.1,7.2-4.7,12.2-4.7
			C1042.3,186.8,1045,187.4,1047.4,188.4z M1034.1,196.1c-1.3,1.3-2,3.1-2.4,5.3h15.3c-0.2-2.4-1-4.2-2.4-5.4
			c-1.4-1.2-3.2-1.8-5.3-1.8C1037.1,194.2,1035.3,194.8,1034.1,196.1z M1049.9,173.8l-9.5,9.3h-6.4l6-9.3H1049.9z"/>
		<path class="st1" d="M1069.9,221.8h-8.9v-46h8.9V221.8z"/>
		<path class="st1" d="M1087.7,183.7h-9v-8.2h9V183.7z M1078.7,187.7h9v34h-9V187.7z"/>
		<path class="st1" d="M1116.7,200c-0.2-1.3-0.6-2.4-1.3-3.4c-1-1.4-2.6-2.1-4.7-2.1c-3,0-5.1,1.5-6.2,4.5c-0.6,1.6-0.9,3.7-0.9,6.3
			c0,2.5,0.3,4.5,0.9,6c1.1,2.8,3.1,4.2,6,4.2c2.1,0,3.6-0.6,4.4-1.7c0.9-1.1,1.4-2.6,1.6-4.4h9.1c-0.2,2.7-1.2,5.3-2.9,7.7
			c-2.8,3.9-6.9,5.8-12.4,5.8c-5.5,0-9.5-1.6-12.1-4.9c-2.6-3.2-3.9-7.5-3.9-12.6c0-5.8,1.4-10.4,4.3-13.6c2.9-3.2,6.8-4.9,11.8-4.9
			c4.3,0,7.8,1,10.5,2.9c2.7,1.9,4.3,5.3,4.8,10.1H1116.7z"/>
		<path class="st1" d="M1160.3,217.6c-2.9,3.5-7.2,5.3-13.1,5.3c-5.8,0-10.2-1.8-13.1-5.3c-2.9-3.5-4.3-7.8-4.3-12.8
			c0-4.9,1.4-9.2,4.3-12.8c2.9-3.6,7.2-5.4,13.1-5.4c5.8,0,10.2,1.8,13.1,5.4c2.9,3.6,4.3,7.9,4.3,12.8
			C1164.6,209.8,1163.1,214.1,1160.3,217.6z M1153.1,212.7c1.4-1.9,2.1-4.5,2.1-7.9c0-3.4-0.7-6-2.1-7.9c-1.4-1.8-3.4-2.8-6-2.8
			c-2.6,0-4.6,0.9-6,2.8c-1.4,1.8-2.1,4.5-2.1,7.9c0,3.4,0.7,6,2.1,7.9c1.4,1.9,3.4,2.8,6,2.8
			C1149.7,215.5,1151.7,214.6,1153.1,212.7z"/>
	</g>
</g>
</svg>
