<?xml version="1.0" encoding="UTF-8"?>
<!DOCTYPE svg PUBLIC "-//W3C//DTD SVG 1.1//EN" "http://www.w3.org/Graphics/SVG/1.1/DTD/svg11.dtd">
<svg xmlns="http://www.w3.org/2000/svg" version="1.1" width="1600px" height="1500px" style="shape-rendering:geometricPrecision; text-rendering:geometricPrecision; image-rendering:optimizeQuality; fill-rule:evenodd; clip-rule:evenodd" xmlns:xlink="http://www.w3.org/1999/xlink">
<g><path style="opacity:0.974" fill="black" d="M 896.5,396.5 C 896.5,353.5 896.5,310.5 896.5,267.5C 924.273,259.472 952.273,251.805 980.5,244.5C 981.167,244.833 981.833,245.167 982.5,245.5C 954.059,296.059 925.392,346.392 896.5,396.5 Z"/></g>
<g><path style="opacity:0.978" fill="black" d="M 652.5,284.5 C 652.5,312.167 652.5,339.833 652.5,367.5C 604.706,326.877 557.039,286.043 509.5,245C 515.9,245.681 522.234,247.014 528.5,249C 570.041,260.548 611.374,272.381 652.5,284.5 Z"/></g>
<g><path style="opacity:0.991" fill="black" d="M 896.5,267.5 C 896.5,310.5 896.5,353.5 896.5,396.5C 866.083,451.003 835.416,505.337 804.5,559.5C 804.5,470.167 804.5,380.833 804.5,291.5C 835.088,283.186 865.754,275.186 896.5,267.5 Z"/></g>
<g><path style="opacity:0.992" fill="black" d="M 804.5,291.5 C 804.5,380.833 804.5,470.167 804.5,559.5C 789.086,587.329 773.42,614.996 757.5,642.5C 754.524,647.102 751.524,651.769 748.5,656.5C 744.825,651.803 741.158,647.136 737.5,642.5C 734.248,637.666 731.248,632.666 728.5,627.5C 728.5,592.167 728.5,556.833 728.5,521.5C 737.417,524.863 746.417,527.696 755.5,530C 746.313,522.969 737.313,515.803 728.5,508.5C 728.5,490.833 728.5,473.167 728.5,455.5C 743.733,461.851 759.066,467.685 774.5,473C 758.973,459.635 743.64,446.135 728.5,432.5C 728.5,390.167 728.5,347.833 728.5,305.5C 732.482,306.492 736.482,307.492 740.5,308.5C 761.852,302.829 783.185,297.162 804.5,291.5 Z"/></g>
<g><path style="opacity:0.988" fill="black" d="M 652.5,284.5 C 678.019,290.879 703.352,297.879 728.5,305.5C 728.5,347.833 728.5,390.167 728.5,432.5C 702.572,411.576 677.239,389.909 652.5,367.5C 652.5,339.833 652.5,312.167 652.5,284.5 Z"/></g>
<g><path style="opacity:0.954" fill="black" d="M 728.5,455.5 C 728.5,473.167 728.5,490.833 728.5,508.5C 683.016,473.25 637.682,437.75 592.5,402C 593.5,401.333 594.5,401.333 595.5,402C 639.859,419.849 684.192,437.682 728.5,455.5 Z"/></g>
<g><path style="opacity:0.979" fill="black" d="M 728.5,521.5 C 728.5,556.833 728.5,592.167 728.5,627.5C 698.363,581.842 668.363,536.009 638.5,490C 668.734,499.579 698.734,510.079 728.5,521.5 Z"/></g>
<g><path style="opacity:0.956" fill="black" d="M 737.5,642.5 C 741.158,647.136 744.825,651.803 748.5,656.5C 751.524,651.769 754.524,647.102 757.5,642.5C 780.357,642.714 803.024,644.881 825.5,649C 830.933,649.969 835.766,652.136 840,655.5C 840.667,657.167 840.667,658.833 840,660.5C 830.757,665.219 820.924,668.052 810.5,669C 769.167,673.667 727.833,673.667 686.5,669C 677.947,667.89 669.614,665.89 661.5,663C 656.457,661.131 655.457,658.131 658.5,654C 670.94,648.757 683.94,645.757 697.5,645C 710.813,643.795 724.146,642.962 737.5,642.5 Z"/></g>
<g><path style="opacity:0.96" fill="black" d="M 949.5,947.5 C 939.987,948.418 930.321,950.251 920.5,953C 916.179,953.499 911.846,953.666 907.5,953.5C 904.729,950.608 901.729,947.942 898.5,945.5C 898.266,941.231 897.099,937.231 895,933.5C 892.919,932.667 890.752,932.667 888.5,933.5C 865.768,901.573 859.601,866.573 870,828.5C 882.585,791.581 907.085,766.081 943.5,752C 995.854,733.996 1041.02,744.829 1079,784.5C 1083.75,790.086 1087.92,796.086 1091.5,802.5C 1086.1,806.561 1080.44,810.227 1074.5,813.5C 1045.65,759.451 1004.32,747.284 950.5,777C 926.806,795.207 913.639,819.374 911,849.5C 907.354,881.266 915.354,909.599 935,934.5C 939.623,939.202 944.457,943.535 949.5,947.5 Z"/></g>
<g><path style="opacity:0.955" fill="black" d="M 850.5,959.5 C 838.346,960.875 826.346,963.542 814.5,967.5C 805.126,945.748 795.459,924.081 785.5,902.5C 754.167,901.167 722.833,901.167 691.5,902.5C 680.333,926.167 669.167,949.833 658,973.5C 651.223,974.811 644.39,974.811 637.5,973.5C 672.978,898.712 708.311,823.878 743.5,749C 747.091,748.211 750.591,748.378 754,749.5C 786.455,819.407 818.621,889.407 850.5,959.5 Z M 738.5,801.5 C 751.478,829.398 764.478,857.398 777.5,885.5C 751.173,886.667 724.84,886.833 698.5,886C 712.246,858.009 725.58,829.842 738.5,801.5 Z"/></g>
<g><path style="opacity:0.978" fill="black" d="M 198.5,749.5 C 227.502,749.333 256.502,749.5 285.5,750C 303.741,751.632 320.075,757.965 334.5,769C 354.27,788.421 359.436,811.255 350,837.5C 340.898,854.92 326.731,866.086 307.5,871C 292.337,874.306 277.003,875.306 261.5,874C 253.134,873.412 244.8,872.579 236.5,871.5C 236.5,905.833 236.5,940.167 236.5,974.5C 223.833,974.5 211.167,974.5 198.5,974.5C 198.5,899.5 198.5,824.5 198.5,749.5 Z M 236.5,766.5 C 246.839,766.334 257.172,766.5 267.5,767C 300.949,772.795 315.782,792.629 312,826.5C 305.707,850.503 290.04,862.503 265,862.5C 255.291,861.924 245.791,860.258 236.5,857.5C 236.5,827.167 236.5,796.833 236.5,766.5 Z"/></g>
<g><path style="opacity:0.972" fill="black" d="M 398.5,749.5 C 411.5,749.5 424.5,749.5 437.5,749.5C 437.5,819.5 437.5,889.5 437.5,959.5C 489.167,959.5 540.833,959.5 592.5,959.5C 592.5,964.5 592.5,969.5 592.5,974.5C 527.833,974.5 463.167,974.5 398.5,974.5C 398.5,899.5 398.5,824.5 398.5,749.5 Z"/></g>
<g><path style="opacity:0.973" fill="black" d="M 1142.5,749.5 C 1194.83,749.5 1247.17,749.5 1299.5,749.5C 1299.5,754.5 1299.5,759.5 1299.5,764.5C 1260.17,764.5 1220.83,764.5 1181.5,764.5C 1181.5,791.167 1181.5,817.833 1181.5,844.5C 1207.83,844.5 1234.17,844.5 1260.5,844.5C 1260.5,849.5 1260.5,854.5 1260.5,859.5C 1234.17,859.5 1207.83,859.5 1181.5,859.5C 1181.5,892.833 1181.5,926.167 1181.5,959.5C 1220.83,959.5 1260.17,959.5 1299.5,959.5C 1299.5,964.5 1299.5,969.5 1299.5,974.5C 1247.17,974.5 1194.83,974.5 1142.5,974.5C 1142.5,899.5 1142.5,824.5 1142.5,749.5 Z"/></g>
<g><path style="opacity:0.929" fill="black" d="M 928.5,966.5 C 942.697,963.826 957.031,960.826 971.5,957.5C 998.595,967.439 1023.6,963.606 1046.5,946C 1057.96,935.849 1067.63,924.349 1075.5,911.5C 1081.24,914.41 1086.57,917.91 1091.5,922C 1063.5,966.495 1023.16,985.495 970.5,979C 955.774,977.146 941.774,972.979 928.5,966.5 Z"/></g>
<g><path style="opacity:0.914" fill="black" d="M 898.5,945.5 C 897.944,949.23 896.278,952.397 893.5,955C 898.199,955.052 902.866,954.552 907.5,953.5C 911.846,953.666 916.179,953.499 920.5,953C 930.321,950.251 939.987,948.418 949.5,947.5C 953.01,946.273 956.51,944.94 960,943.5C 960.873,943.735 961.707,944.069 962.5,944.5C 970.467,941.894 978.467,939.394 986.5,937C 990.191,936.58 993.858,936.08 997.5,935.5C 997.719,936.675 997.386,937.675 996.5,938.5C 993.065,939.367 989.731,940.534 986.5,942C 987.448,942.483 988.448,942.649 989.5,942.5C 988.392,944.695 988.559,946.695 990,948.5C 991.494,947.253 992.994,947.253 994.5,948.5C 994.291,949.086 993.957,949.586 993.5,950C 985.963,952.012 978.63,954.512 971.5,957.5C 957.031,960.826 942.697,963.826 928.5,966.5C 915.071,969.748 901.071,971.582 886.5,972C 885.069,972.465 883.903,973.299 883,974.5C 867.245,1004.01 852.578,1034.01 839,1064.5C 832.539,1081.22 826.872,1098.22 822,1115.5C 819.618,1123.74 819.118,1132.07 820.5,1140.5C 824.519,1141.72 828.519,1141.55 832.5,1140C 838.17,1137.17 843.503,1133.83 848.5,1130C 870.141,1108.69 891.474,1087.03 912.5,1065C 912.167,1064.67 911.833,1064.33 911.5,1064C 912.09,1062.49 912.756,1060.99 913.5,1059.5C 915.996,1058.42 918.33,1057.09 920.5,1055.5C 921.293,1055.93 922.127,1056.26 923,1056.5C 927.483,1055.44 931.983,1054.44 936.5,1053.5C 937.672,1053.08 938.672,1052.41 939.5,1051.5C 940.251,1052.38 940.751,1053.38 941,1054.5C 942.516,1051.99 944.682,1051.16 947.5,1052C 955.142,1053.81 960.475,1058.31 963.5,1065.5C 970.765,1063.18 978.099,1061.18 985.5,1059.5C 986.449,1051.7 990.449,1045.86 997.5,1042C 1006.57,1041.11 1010.41,1045.61 1009,1055.5C 1005.01,1057.57 1001.51,1060.24 998.5,1063.5C 998.833,1064.17 999.167,1064.83 999.5,1065.5C 998.167,1066.5 996.833,1067.5 995.5,1068.5C 997.836,1073.18 1000.67,1077.51 1004,1081.5C 1009.68,1088.01 1015.51,1094.34 1021.5,1100.5C 1038.67,1091.83 1054.17,1080.83 1068,1067.5C 1068.33,1066.5 1068.67,1065.5 1069,1064.5C 1071.88,1062.73 1074.54,1060.73 1077,1058.5C 1081.07,1059.38 1085.07,1059.05 1089,1057.5C 1089.49,1058.55 1089.33,1059.55 1088.5,1060.5C 1091.15,1062.59 1091.99,1065.26 1091,1068.5C 1072.63,1086.68 1051.97,1101.68 1029,1113.5C 1029.41,1118.22 1030.41,1123.22 1032,1128.5C 1032.67,1133.83 1032.67,1139.17 1032,1144.5C 1027.96,1156.7 1019.8,1164.7 1007.5,1168.5C 998.692,1173.89 989.192,1175.55 979,1173.5C 977.779,1172.73 976.779,1171.73 976,1170.5C 970.398,1157.18 973.064,1145.51 984,1135.5C 986.36,1132.64 988.527,1129.64 990.5,1126.5C 997.869,1121.14 1004.87,1115.31 1011.5,1109C 1005.79,1101.74 999.953,1094.57 994,1087.5C 990.888,1082.93 988.055,1078.26 985.5,1073.5C 979.354,1076.24 973.02,1078.41 966.5,1080C 959.071,1098.43 946.405,1112.1 928.5,1121C 924.859,1122.27 921.192,1123.44 917.5,1124.5C 904.669,1125.87 896.502,1120.2 893,1107.5C 879.412,1123.76 864.578,1138.59 848.5,1152C 839.791,1157.16 830.791,1158.49 821.5,1156C 816.451,1154.28 812.618,1151.12 810,1146.5C 806.93,1136.71 805.93,1126.71 807,1116.5C 809.688,1105.75 812.355,1095.08 815,1084.5C 802.633,1096.2 789.133,1106.37 774.5,1115C 759.939,1118.45 753.439,1112.61 755,1097.5C 759.517,1087.63 764.684,1078.13 770.5,1069C 770.167,1068.83 769.833,1068.67 769.5,1068.5C 754.313,1081.52 738.98,1094.35 723.5,1107C 708.834,1115.47 700.834,1111.47 699.5,1095C 700.762,1089.79 701.928,1084.63 703,1079.5C 684.942,1094.12 665.442,1106.62 644.5,1117C 633.071,1122.74 621.737,1122.74 610.5,1117C 603.963,1111.76 600.796,1104.92 601,1096.5C 578.983,1106.5 563.983,1100.17 556,1077.5C 554.907,1079.97 553.24,1081.97 551,1083.5C 550.383,1084.45 550.549,1085.28 551.5,1086C 550.584,1086.37 549.75,1086.87 549,1087.5C 546.112,1093.87 542.279,1099.54 537.5,1104.5C 531.545,1117.52 523.211,1129.02 512.5,1139C 507.589,1140.49 502.589,1140.83 497.5,1140C 493.071,1134.17 491.071,1127.5 491.5,1120C 491.667,1117.83 491.833,1115.67 492,1113.5C 495.448,1101.07 498.782,1088.73 502,1076.5C 483.396,1092.75 462.896,1106.25 440.5,1117C 410.81,1127.69 396.143,1117.53 396.5,1086.5C 397.48,1084.48 398.814,1082.65 400.5,1081C 399.833,1080.67 399.167,1080.33 398.5,1080C 408.253,1066.9 419.587,1054.9 432.5,1044C 450.976,1031.32 459.809,1035.82 459,1057.5C 457.262,1061.24 454.762,1064.41 451.5,1067C 439.269,1076.28 425.769,1081.78 411,1083.5C 408.278,1089 406.445,1094.5 405.5,1100C 407.286,1105.23 410.952,1107.4 416.5,1106.5C 428.985,1104.87 439.985,1100.7 449.5,1094C 457.404,1088.79 465.737,1084.12 474.5,1080C 486.91,1070.38 499.41,1060.88 512,1051.5C 512.735,1049.13 513.568,1046.8 514.5,1044.5C 517.126,1043.55 519.792,1043.55 522.5,1044.5C 523.596,1050.13 524.096,1055.8 524,1061.5C 517.183,1077.62 511.349,1094.12 506.5,1111C 506.957,1111.41 507.291,1111.91 507.5,1112.5C 506.04,1115.03 505.54,1117.7 506,1120.5C 509,1117.5 512,1114.5 515,1111.5C 519.56,1103.61 524.893,1096.27 531,1089.5C 537.608,1077.7 544.608,1066.7 552,1056.5C 553.795,1050.59 556.962,1045.59 561.5,1041.5C 566.429,1042.43 568.763,1045.43 568.5,1050.5C 568.473,1056.82 567.64,1063.15 566,1069.5C 571.134,1083.75 580.634,1087.58 594.5,1081C 597.661,1079.59 600.661,1077.92 603.5,1076C 613.024,1066.48 622.691,1056.81 632.5,1047C 637.217,1042.97 642.551,1039.97 648.5,1038C 652.317,1036.98 655.817,1037.48 659,1039.5C 667.039,1052.03 664.539,1062.2 651.5,1070C 641.89,1076.36 631.556,1080.2 620.5,1081.5C 618.188,1084.98 615.354,1087.98 612,1090.5C 611.358,1092.76 610.525,1094.93 609.5,1097C 609.355,1104 613.022,1107.17 620.5,1106.5C 630.463,1105.51 639.797,1102.51 648.5,1097.5C 658.1,1091.09 668.1,1085.25 678.5,1080C 690.191,1070.97 701.857,1061.97 713.5,1053C 715.797,1052.98 718.131,1053.15 720.5,1053.5C 721.74,1057.15 723.407,1060.65 725.5,1064C 721.969,1073.87 717.969,1083.87 713.5,1094C 713.833,1094.17 714.167,1094.33 714.5,1094.5C 717.975,1092.19 721.308,1089.69 724.5,1087C 729.266,1081.23 734.933,1076.57 741.5,1073C 749.355,1063.47 758.688,1055.81 769.5,1050C 774.234,1045.59 779.234,1041.59 784.5,1038C 786.167,1037.33 787.833,1037.33 789.5,1038C 791.333,1040.5 793.167,1043 795,1045.5C 795.584,1048.26 795.25,1050.92 794,1053.5C 784.77,1068.8 775.937,1084.3 767.5,1100C 772.796,1098.18 777.796,1095.51 782.5,1092C 796.925,1079.89 811.592,1068.23 826.5,1057C 838.13,1028.92 851.13,1001.75 865.5,975.5C 859.23,975.114 852.897,975.614 846.5,977C 836.411,979.522 826.411,982.356 816.5,985.5C 808.583,982.799 806.083,977.465 809,969.5C 810.725,968.536 812.559,967.869 814.5,967.5C 826.346,963.542 838.346,960.875 850.5,959.5C 858.874,959.273 867.207,958.106 875.5,956C 880.224,948.718 884.557,941.218 888.5,933.5C 890.752,932.667 892.919,932.667 895,933.5C 897.099,937.231 898.266,941.231 898.5,945.5 Z M 898.5,945.5 C 901.729,947.942 904.729,950.608 907.5,953.5C 902.866,954.552 898.199,955.052 893.5,955C 896.278,952.397 897.944,949.23 898.5,945.5 Z M 446.5,1046.5 C 447.833,1046.5 449.167,1046.5 450.5,1046.5C 449.909,1049.61 448.242,1052.11 445.5,1054C 439.963,1058.43 433.963,1061.76 427.5,1064C 433.344,1057.66 439.678,1051.82 446.5,1046.5 Z M 650.5,1046.5 C 651.833,1046.5 653.167,1046.5 654.5,1046.5C 653.909,1049.61 652.242,1052.11 649.5,1054C 643.963,1058.43 637.963,1061.76 631.5,1064C 633.046,1061.74 634.712,1059.58 636.5,1057.5C 641.203,1053.79 645.87,1050.12 650.5,1046.5 Z M 942.5,1061.5 C 945.461,1060.8 948.461,1061.3 951.5,1063C 953.037,1064.11 953.703,1065.61 953.5,1067.5C 949.818,1067.67 946.152,1067.5 942.5,1067C 944.863,1064.92 944.863,1063.08 942.5,1061.5 Z M 920.5,1077.5 C 929.909,1080.53 939.576,1082.36 949.5,1083C 940.142,1095.03 928.476,1104.03 914.5,1110C 904.791,1112.29 901.291,1108.79 904,1099.5C 905.861,1097.11 907.194,1094.45 908,1091.5C 912.003,1086.66 916.17,1082 920.5,1077.5 Z M 1017.5,1123.5 C 1018.5,1123.47 1019.16,1123.97 1019.5,1125C 1021.51,1132.1 1020.34,1138.6 1016,1144.5C 1007.78,1152.99 997.942,1157.32 986.5,1157.5C 993.609,1145.23 1002.94,1135.06 1014.5,1127C 1015.45,1126.52 1016.45,1126.35 1017.5,1126.5C 1017.5,1125.5 1017.5,1124.5 1017.5,1123.5 Z"/></g>
<g><path style="opacity:0.49" fill="black" d="M 989.5,942.5 C 991.288,941.378 993.288,941.211 995.5,942C 993.544,943.612 991.544,943.778 989.5,942.5 Z"/></g>
<g><path style="opacity:1" fill="black" d="M 919.5,957.5 C 920.776,958.386 920.776,959.386 919.5,960.5C 918.913,959.767 918.913,958.767 919.5,957.5 Z"/></g>
</svg>
