<?xml version="1.0" encoding="utf-8"?>
<!-- Generator: Adobe Illustrator 23.0.0, SVG Export Plug-In . SVG Version: 6.00 Build 0)  -->
<svg version="1.1" id="Camada_1" xmlns="http://www.w3.org/2000/svg" xmlns:xlink="http://www.w3.org/1999/xlink" x="0px" y="0px"
	 viewBox="0 0 99.2 60.1" style="enable-background:new 0 0 99.2 60.1;" xml:space="preserve">
<style type="text/css">
	.st0{fill:#9D9D9C;}
	.st1{font-family:'ArialMT';}
	.st2{font-size:7.5614px;}
	.st3{fill:#13A538;}
	.st4{fill-rule:evenodd;clip-rule:evenodd;fill:#1A355C;}
</style>
<g>
	<text transform="matrix(1 0 0 1 2.0311 46.6389)" class="st0 st1 st2">uma empresa Solabia Group</text>
	<path class="st3" d="M78.4,49.7h-4.7c0,0-0.4,0.4-0.6,0.6C67.7,55.1,60.7,58,53,58c-4.4,0-8.7-0.7-12.5-2.5l0,0.1
		c4.4,2.2,9.4,3.5,14.7,3.5c8.7,0,16.6-3.3,22.6-8.8l0,0C78.1,49.9,78.4,49.7,78.4,49.7z"/>
	<path class="st3" d="M65.7,49.7c0,0,0,0.3-0.4,0.6c-2.2,2.2-5,2.8-9.3,2.8c-4,0-6.3-2.5-6.3-2.5l-1.6,2c0.5,0.3,3,1.9,7.1,1.9
		c6.7,0,9.5-2.6,10.5-4.2c0.2-0.3,0.3-0.7,0.3-0.7S65.7,49.7,65.7,49.7z"/>
</g>
<polygon class="st4" points="38.5,38.5 39.4,33.2 41.1,33.2 40.4,37.2 42.4,37.2 42.2,38.5 "/>
<path class="st4" d="M46.3,33.2h-1.7l-2.5,5.3h1.2l0.5-1.1h1.6l0.1,1.1h1.5L46.3,33.2z M44.3,36.4l0.8-1.8l0.2,1.8H44.3z"/>
<path class="st4" d="M51.1,35.8c0.3-0.1,0.6-0.2,0.9-0.4c0.2-0.2,0.3-0.5,0.3-0.9c0-0.4-0.2-0.8-0.4-1c-0.3-0.2-0.8-0.3-1.4-0.3
	h-2.2l-1,5.3h2.8c0.6,0,1.1-0.2,1.4-0.4c0.3-0.3,0.5-0.6,0.5-1.1c0-0.3-0.1-0.6-0.2-0.8C51.6,36,51.4,35.9,51.1,35.8z M50.3,37.2
	c-0.1,0.1-0.3,0.1-0.6,0.1h-0.8l0.2-1.1h0.7c0.3,0,0.4,0.1,0.5,0.2s0.2,0.2,0.2,0.4C50.5,37,50.4,37.2,50.3,37.2z M50.6,35.1
	c-0.1,0.1-0.3,0.1-0.5,0.1h-0.8l0.2-1h0.7c0.2,0,0.3,0,0.4,0.1c0.1,0.1,0.2,0.2,0.2,0.3C50.8,34.9,50.7,35,50.6,35.1z"/>
<path class="st4" d="M57.1,33.7c-0.4-0.4-1-0.7-1.6-0.7c-0.3,0-0.7,0.1-1,0.2c-0.3,0.1-0.6,0.3-0.8,0.5c-0.3,0.3-0.6,0.7-0.8,1.1
	c-0.2,0.4-0.3,0.9-0.3,1.3c0,0.4,0.1,0.7,0.2,1.1c0.2,0.3,0.4,0.6,0.7,0.9c0.2,0.1,0.4,0.3,0.6,0.3c0.2,0.1,0.5,0.1,0.8,0.1
	c0.4,0,0.8-0.1,1.1-0.3c0.3-0.2,0.6-0.4,0.9-0.7c0.3-0.3,0.4-0.7,0.6-1.1c0.1-0.4,0.2-0.8,0.2-1.2C57.7,34.7,57.5,34.1,57.1,33.7z
	 M56,36.1c-0.1,0.3-0.2,0.6-0.3,0.8c-0.1,0.2-0.2,0.3-0.3,0.4c-0.1,0.1-0.2,0.1-0.4,0.1c-0.2,0-0.4-0.1-0.5-0.2s-0.2-0.4-0.2-0.7
	c0-0.1,0-0.3,0-0.4c0-0.2,0.1-0.3,0.1-0.5c0-0.2,0.1-0.3,0.1-0.5c0.1-0.2,0.1-0.3,0.2-0.4c0.1-0.1,0.2-0.3,0.3-0.3
	c0.1-0.1,0.2-0.1,0.3-0.1c0.2,0,0.4,0.1,0.5,0.2c0.1,0.1,0.2,0.3,0.2,0.6C56.1,35.5,56,35.8,56,36.1z"/>
<path class="st4" d="M62.6,33.6c-0.3-0.3-0.8-0.4-1.4-0.4h-2.3l-1,5.3h1.5l0.4-2.1h0.7l0.4,2.1h1.5l-0.6-2.3
	c0.3-0.1,0.6-0.3,0.8-0.6c0.2-0.3,0.3-0.6,0.3-1C63.1,34.2,62.9,33.8,62.6,33.6z M61.3,35.3c-0.2,0.1-0.4,0.2-0.6,0.2h-0.7l0.2-1.2
	h0.5c0.3,0,0.5,0.1,0.6,0.2c0.1,0.1,0.2,0.3,0.2,0.4C61.5,35,61.4,35.2,61.3,35.3z"/>
<path class="st4" d="M67.8,36.7c-0.2,0.6-0.5,1.1-0.9,1.4c-0.4,0.3-0.9,0.5-1.4,0.5c-0.7,0-1.2-0.2-1.6-0.6c-0.4-0.4-0.6-1-0.6-1.7
	c0-0.4,0-0.7,0.2-1.1c0.1-0.3,0.2-0.6,0.4-0.9c0.3-0.4,0.6-0.7,1-0.9c0.4-0.2,0.8-0.3,1.3-0.3c0.6,0,1.1,0.2,1.5,0.6
	c0.3,0.4,0.5,0.9,0.5,1.6l-1.5,0v-0.1c0-0.3-0.1-0.5-0.2-0.7c-0.1-0.2-0.3-0.3-0.5-0.3c-0.1,0-0.3,0.1-0.3,0.1
	c-0.1,0.1-0.2,0.2-0.3,0.3c-0.2,0.2-0.3,0.5-0.3,0.9c-0.1,0.3-0.1,0.6-0.1,1c0,0.3,0,0.4,0.2,0.6c0.1,0.2,0.3,0.2,0.5,0.2
	c0.2,0,0.3-0.1,0.5-0.2c0.1-0.2,0.3-0.4,0.3-0.6L67.8,36.7z"/>
<polygon class="st4" points="68.1,38.5 69.1,33.2 70.7,33.2 70,37.2 72,37.2 71.8,38.5 "/>
<polygon class="st4" points="72.4,38.5 73.3,33.2 75,33.2 74.1,38.5 "/>
<polygon class="st4" points="75,38.5 75.9,33.2 77.4,33.2 78.8,36.2 79.4,33.2 80.5,33.2 79.6,38.5 78.4,38.5 76.8,35.2 76.2,38.5 
	"/>
<path class="st4" d="M62.8,6.7c0-0.5-0.1-1-0.3-1.5c-0.5-1.5-1.8-2.8-3.3-3h-51l-0.2,2H9c0.3,0,0.5,0,0.8,0.1c1,0,1.3,0.5,1,2.5
	L2,32.5l1.6,0.7l1.6-3.3c0.5-1.4,2-2,3.5-2c0.6,0,1.3,0.1,1.8,0.3c3.8,1.8,6.9,3.6,10.1,6.3c3.4,3,7.4,4.6,11.9,3.9
	c2.2-0.3,3.9-2.5,3.5-4.8c-0.3-1.8-0.7-3-3.4-3.6c-2-0.2-3.7-0.1-5.7,0.3c-4.2,0.8-9.4-1.1-8.6-2.6l7.1-21.7
	c0.3-0.6,0.7-1.1,1.3-1.5c0.5-0.4,1.1-0.6,1.6-0.6C30.5,4,32.9,3.7,32,7.1l-7.3,23l0.7,0.2c0.9-0.8,1.8-1.6,3.4-1.6
	c0.5,0,1,0.1,1.6,0.2c5.8,1.5,15.9,3.4,24.4-1.3c3.5-2,6.7-6.6,5.4-10.4c-0.7-2.2-3.2-2.6-5.4-3.3l4.6-2.2
	C61.3,10.5,62.8,8.7,62.8,6.7z M45.4,18.4l-2.8,8.3c0,0.1-0.1,0.2-0.1,0.3c-0.3,0.6-1.1,0.9-1.7,0.5c-0.6-0.3-0.9-1.1-0.5-1.7
	l2.8-8.1c0-0.1,0-0.2,0.1-0.3c0.3-0.6,1-0.9,1.6-0.7C45.4,17,45.6,17.5,45.4,18.4z M49.4,5.6L46.9,13c-0.2,0.3-0.6,0.5-0.9,0.5
	c-0.1,0-0.1,0-0.2,0c-0.6-0.1-1.1-0.7-0.9-1.3l2.5-7.3c0.4-0.5,0.8-0.8,1.4-0.6C49.3,4.5,49.6,5.1,49.4,5.6z"/>
</svg>
