<svg xmlns="http://www.w3.org/2000/svg" viewBox="0 0 1000 156.1" style="enable-background:new 0 0 1000 156.1" xml:space="preserve"><path d="M321.1 505.7v20.5h999.5v-20.5H321.1zm280.4 39c-19 0-29.1 8.2-29.1 22.5 0 7.7 2.9 13.4 8.1 16.7 4.9 3 10.5 4.2 16.6 5.5 13.9 3 20.2 4.3 20.2 11.1 0 6.2-4.6 9.2-13.6 9.2-10.3 0-15.9-3.4-17-11.7h-15.3c.8 15.4 11.7 24.7 30.9 24.7 19.4 0 30-9 30-24.1 0-7.5-3.1-13.2-9.1-16.6-4.7-2.6-10.5-4-17.7-5.9-12.4-3-18.1-2.9-18.1-9.8 0-5.6 4.4-9.1 12.5-9.1 9.4 0 14.6 3.8 15.2 11.1H630c-.6-14.8-11-23.6-28.5-23.6zm688.5 0c-18.8 0-28.9 8.2-28.9 22.5 0 7.7 2.8 13.4 8.3 16.7 4.9 3 10.5 4.2 16.6 5.5 13.7 3 19.8 4.3 19.8 11.1 0 6.2-4.2 9.2-13.4 9.2-10.4 0-16.1-3.4-17.2-11.7h-15.3c.9 15.4 11.9 24.7 31.1 24.7 19.4 0 30.2-9 30.2-24.1 0-7.5-3-13.2-9.2-16.6-4.7-2.6-10.5-4-17.7-5.9-12.4-3-18.1-2.9-18.1-9.8 0-5.6 4.6-9.1 12.7-9.1 9.2 0 14.3 3.8 14.8 11.1h14.8c-.7-14.8-10.8-23.6-28.5-23.6zm-881.1.3c-22.6 0-36.7 15-36.7 38.9s14.2 38.8 36.7 38.8c22.4 0 36.7-14.8 36.7-38.8 0-23.8-14.3-38.9-36.7-38.9zm610.1 0c-23.5 0-36.4 13.7-36.4 38.9 0 24.8 13.1 38.8 35.2 38.8 19.6 0 32.2-10.8 33.3-27.3h-15c-1.9 8.8-7.9 13.8-17.3 13.8-13 0-20.3-9-20.3-25.2 0-16.6 7.1-25.5 20.6-25.5 9.8 0 15.6 4.5 16.9 12.8h15.2c-1.3-16.6-12.8-26.3-32.2-26.3zm-697.9 1.9v73.8h52v-13.6h-36.7v-60.2h-15.3zm159.8 0v51.4c0 8.3-1.5 11.6-8.4 11.6-5.8 0-9.1-2.4-9.1-7.7v-8.9h-15v5.6c0 7.1.2 12 4.8 16.9 4.3 4.5 10.9 6.9 19.4 6.9 9.2 0 16.4-2.6 20.2-7.5 3.6-4.5 3.8-9.5 3.8-16.1v-52.2h-15.7zm45.3 0-26.7 73.8h16.4l4.8-15.2H550l5 15.2h16.3l-27-73.8h-18.1zm166.4 0-26.7 73.8H682l4.8-15.2H716l5 15.2h16.3l-26.9-73.8H692.6zm48.5 0v73.8h14.5v-59.5l15.3 59.5h15.9l15.2-59.5v59.5h14.5v-73.8h-23l-14.7 56.3-15-56.3h-22.7zm84.5 0v73.8H882v-13.6h-41.3V588h35.9v-12.5h-35.9v-15.9h39.4v-12.7h-54.5zm63.9 0v73.8h15.6v-28.6h16.4c8.5 0 10.9 2.9 11.1 11.6l.2 7.8c.2 4 .8 7.1 1.9 9.2h16.9v-2.3c-2.8-1.5-2.8-4-3-8.3l-.2-8.6c-.4-8.9-2.2-13.7-9.4-16.1 7.1-2.4 11.1-8.5 11.1-17.5 0-14.3-7.7-20.9-24.1-20.9h-36.5zm69.1 0v73.8H974v-73.8h-15.4zm117.6 0-26.9 73.8h16.4l4.8-15.2h29.2l5 15.2h16.3l-26.9-73.8h-17.9zm48.5 0v73.8h15.3V570l30.8 50.6h15.9v-73.8h-15.2v50.8l-30.5-50.8h-16.3zm92.3 0-26.7 73.8h16.1l5-15.2h29l5.2 15.2h16.3l-27-73.8H1217zm-808.1 11.3c13.2 0 21.1 9.4 21.1 25.8s-7.9 25.5-21.1 25.5-21.1-9.1-21.1-25.5c0-16.6 7.9-25.8 21.1-25.8zm496.2 1.4H923.9c7.1 0 10.8 3.5 10.8 9.8 0 6.8-3.7 9.8-11.6 9.8h-18v-19.6zm-369.8 2.2 10.3 31.4h-20.8l10.5-31.4zm166.1 0 10.5 31.4h-20.8l10.3-31.4zm383.7 0 10.5 31.4h-20.8l10.3-31.4zm140.8 0 10.5 31.4h-21l10.5-31.4zm-904.8 79.5v20.5h999.5v-20.5H321.1z" style="fill:#ea1d2a" transform="translate(-321.063 -505.656)"/></svg>