<?xml version="1.0" encoding="UTF-8"?>
<!DOCTYPE svg PUBLIC "-//W3C//DTD SVG 1.1//EN" "http://www.w3.org/Graphics/SVG/1.1/DTD/svg11.dtd">
<svg xmlns="http://www.w3.org/2000/svg" version="1.1" width="3000px" height="3682px" style="shape-rendering:geometricPrecision; text-rendering:geometricPrecision; image-rendering:optimizeQuality; fill-rule:evenodd; clip-rule:evenodd" xmlns:xlink="http://www.w3.org/1999/xlink">
<g><path style="opacity:0.997" fill="#3e4095" d="M -0.5,1934.5 C -0.5,1932.83 -0.5,1931.17 -0.5,1929.5C 51.786,1738.37 103.786,1547.03 155.5,1355.5C 253.165,1354.33 350.832,1354.17 448.5,1355C 491.668,1355.1 532.335,1365.1 570.5,1385C 624.336,1418.14 651.003,1466.64 650.5,1530.5C 642.821,1640 587.654,1714 485,1752.5C 435.79,1768.51 385.29,1777.01 333.5,1778C 297.5,1778.33 261.5,1778.67 225.5,1779C 223.333,1779.83 221.833,1781.33 221,1783.5C 212.469,1817.96 203.469,1852.29 194,1886.5C 185.841,1907.99 170.674,1921.82 148.5,1928C 139.64,1930.42 130.64,1932.09 121.5,1933C 80.8342,1935.14 40.1675,1935.64 -0.5,1934.5 Z M 308.5,1475.5 C 343.183,1475.13 377.85,1475.63 412.5,1477C 435.569,1478.45 454.402,1487.95 469,1505.5C 479.021,1521.31 481.688,1538.31 477,1556.5C 466.583,1588.58 446.416,1612.42 416.5,1628C 397.14,1636.92 376.807,1641.92 355.5,1643C 323.5,1643.67 291.5,1643.67 259.5,1643C 274.526,1588.25 289.359,1533.42 304,1478.5C 305.31,1477.1 306.81,1476.1 308.5,1475.5 Z"/></g>
<g><path style="opacity:0.997" fill="#3e4095" d="M 2999.5,1354.5 C 2999.5,1355.83 2999.5,1357.17 2999.5,1358.5C 2946.7,1550.01 2894.04,1741.68 2841.5,1933.5C 2782.84,1934.5 2724.17,1934.83 2665.5,1934.5C 2668.03,1921.03 2671.2,1907.7 2675,1894.5C 2720.16,1730.21 2765.16,1565.88 2810,1401.5C 2813,1385.65 2820.5,1372.49 2832.5,1362C 2838.3,1358.27 2844.63,1355.94 2851.5,1355C 2900.83,1354.5 2950.17,1354.33 2999.5,1354.5 Z"/></g>
<g><path style="opacity:0.997" fill="#3e4095" d="M 1648.5,1359.5 C 1707.17,1359.33 1765.83,1359.5 1824.5,1360C 1825.31,1360.31 1825.97,1360.81 1826.5,1361.5C 1829.5,1369.33 1832,1377.33 1834,1385.5C 1851.59,1456.11 1868.92,1526.77 1886,1597.5C 1889.88,1613.04 1894.38,1628.38 1899.5,1643.5C 1968.13,1563.58 2036.3,1483.24 2104,1402.5C 2124.73,1378.55 2150.9,1364.71 2182.5,1361C 2243.15,1359.55 2303.82,1359.05 2364.5,1359.5C 2364.51,1361.31 2364.01,1362.98 2363,1364.5C 2276.94,1463.92 2189.94,1562.58 2102,1660.5C 2017.37,1758.13 1932.37,1855.46 1847,1952.5C 1836.12,1964.92 1824.79,1976.92 1813,1988.5C 1756.54,1779.32 1700.7,1569.98 1645.5,1360.5C 1646.79,1360.74 1647.79,1360.4 1648.5,1359.5 Z"/></g>
<g><path style="opacity:0.997" fill="#3e4095" d="M 879.5,1488.5 C 918.226,1486.33 956.559,1489.16 994.5,1497C 1083.25,1517.95 1119.09,1573.45 1102,1663.5C 1099.14,1677.94 1095.81,1692.27 1092,1706.5C 1072.31,1777.89 1053.65,1849.56 1036,1921.5C 1034.91,1925.78 1033.24,1929.78 1031,1933.5C 1000.93,1916.51 969.101,1912.35 935.5,1921C 914.921,1926.98 894.255,1932.64 873.5,1938C 817.666,1949.82 762,1949.16 706.5,1936C 674.168,1927.76 646.335,1911.93 623,1888.5C 590.669,1849.84 584.336,1807.17 604,1760.5C 625.715,1719.46 658.215,1690.29 701.5,1673C 744.77,1656.48 789.603,1648.32 836,1648.5C 858.58,1648.87 881.08,1650.37 903.5,1653C 916.849,1655.84 930.182,1658.67 943.5,1661.5C 957.882,1626.77 947.215,1603.94 911.5,1593C 886.513,1586.94 861.18,1584.94 835.5,1587C 821.792,1587.91 808.125,1589.25 794.5,1591C 769.778,1595.01 745.111,1599.01 720.5,1603C 728.893,1574.27 737.059,1545.43 745,1516.5C 745.639,1513.89 746.806,1511.55 748.5,1509.5C 753.933,1506.97 759.6,1505.13 765.5,1504C 803.373,1496.74 841.373,1491.57 879.5,1488.5 Z M 836.5,1741.5 C 865.591,1741.79 893.924,1746.45 921.5,1755.5C 914.928,1786.94 897.595,1810.77 869.5,1827C 838.495,1843.5 806.495,1845.83 773.5,1834C 760.887,1828.39 752.054,1819.22 747,1806.5C 744.972,1794.92 747.639,1784.59 755,1775.5C 768.896,1760.13 786.063,1750.3 806.5,1746C 816.557,1743.87 826.557,1742.37 836.5,1741.5 Z"/></g>
<g><path style="opacity:0.997" fill="#3e4095" d="M 1429.5,1488.5 C 1471.21,1485.25 1511.54,1491.09 1550.5,1506C 1633.48,1545.46 1664.98,1610.29 1645,1700.5C 1624.98,1777.92 1604.65,1855.25 1584,1932.5C 1583.5,1933 1583,1933.5 1582.5,1934C 1527.83,1934.5 1473.17,1934.67 1418.5,1934.5C 1419.54,1925.36 1421.37,1916.36 1424,1907.5C 1443.31,1836.25 1462.31,1764.92 1481,1693.5C 1490.84,1648.01 1472.51,1625.01 1426,1624.5C 1388.14,1623.91 1361.14,1640.58 1345,1674.5C 1340.74,1684.95 1337.07,1695.62 1334,1706.5C 1315.84,1782.63 1296.68,1858.46 1276.5,1934C 1220.83,1934.83 1165.16,1934.67 1109.5,1933.5C 1144.97,1797.61 1180.14,1661.61 1215,1525.5C 1216.94,1516.74 1219.94,1508.4 1224,1500.5C 1251.29,1515.02 1280.13,1519.18 1310.5,1513C 1330.78,1507.46 1351.12,1502.13 1371.5,1497C 1390.84,1493.17 1410.17,1490.34 1429.5,1488.5 Z"/></g>
<g><path style="opacity:0.997" fill="#3e4095" d="M 2465.5,1488.5 C 2487.18,1488.3 2508.85,1488.8 2530.5,1490C 2572.57,1492.24 2610.57,1505.57 2644.5,1530C 2688.19,1567.08 2701.02,1612.91 2683,1667.5C 2666.42,1705.41 2639.59,1733.58 2602.5,1752C 2552.63,1776.01 2499.96,1787.17 2444.5,1785.5C 2408.18,1786.24 2372.68,1781.24 2338,1770.5C 2336.89,1770.59 2335.89,1770.92 2335,1771.5C 2330.06,1804.77 2343.23,1827.94 2374.5,1841C 2398.74,1849.66 2423.74,1853.49 2449.5,1852.5C 2502.33,1852.1 2553.49,1842.77 2603,1824.5C 2603.2,1827.51 2602.87,1830.51 2602,1833.5C 2594.66,1863.34 2585.83,1892.68 2575.5,1921.5C 2536.49,1936 2496.16,1943.84 2454.5,1945C 2412.55,1947.38 2370.89,1945.05 2329.5,1938C 2275.34,1926.18 2231.5,1898.35 2198,1854.5C 2169.68,1808.89 2160.35,1759.55 2170,1706.5C 2174.12,1681.94 2182.45,1658.94 2195,1637.5C 2217.41,1599.76 2247.24,1569.26 2284.5,1546C 2339.59,1510.25 2399.93,1491.08 2465.5,1488.5 Z M 2469.5,1592.5 C 2489.14,1592.07 2507.14,1597.24 2523.5,1608C 2540.39,1624.07 2541.89,1641.57 2528,1660.5C 2514.41,1674.72 2497.91,1683.88 2478.5,1688C 2451.51,1693.95 2424.51,1693.95 2397.5,1688C 2381.96,1685.33 2366.62,1681.83 2351.5,1677.5C 2368.6,1632.26 2400.93,1604.76 2448.5,1595C 2455.65,1594.16 2462.65,1593.33 2469.5,1592.5 Z"/></g>
<g><path style="opacity:0.981" fill="#3d4095" d="M 2162.5,2042.5 C 2173.74,2040.17 2181.58,2044.17 2186,2054.5C 2186.76,2056.77 2186.59,2058.94 2185.5,2061C 2173.67,2067.75 2162,2074.75 2150.5,2082C 2141.86,2087.78 2132.53,2089.78 2122.5,2088C 2120.33,2086.5 2118.17,2085 2116,2083.5C 2113.46,2078.9 2114.29,2075.07 2118.5,2072C 2129.78,2064.39 2140.78,2056.39 2151.5,2048C 2155.26,2046.12 2158.93,2044.29 2162.5,2042.5 Z"/></g>
<g><path style="opacity:0.99" fill="#3e4095" d="M 2312.5,2100.5 C 2331.11,2099.25 2348.11,2103.75 2363.5,2114C 2377.95,2127.51 2378.95,2141.85 2366.5,2157C 2361.84,2160.33 2356.68,2162.5 2351,2163.5C 2349.74,2163.24 2348.74,2162.57 2348,2161.5C 2340.28,2141.55 2325.78,2133.39 2304.5,2137C 2288.97,2141.19 2276.81,2150.03 2268,2163.5C 2250.17,2190.5 2242.17,2220.17 2244,2252.5C 2246.94,2270.78 2257.61,2280.78 2276,2282.5C 2296.69,2279.9 2314.19,2271.07 2328.5,2256C 2329.83,2255.33 2331.17,2255.33 2332.5,2256C 2348.16,2272.1 2346.82,2286.76 2328.5,2300C 2298.93,2318.03 2267.59,2322.03 2234.5,2312C 2215.86,2303.35 2204.7,2288.85 2201,2268.5C 2194.88,2219.29 2207.55,2175.63 2239,2137.5C 2258.92,2115.95 2283.42,2103.62 2312.5,2100.5 Z"/></g>
<g><path style="opacity:0.99" fill="#3e4095" d="M 2720.5,2100.5 C 2741.64,2099.03 2760.64,2104.53 2777.5,2117C 2783.6,2125.44 2784.1,2134.27 2779,2143.5C 2775.07,2149.43 2769.9,2153.93 2763.5,2157C 2762.17,2157.67 2760.83,2157.67 2759.5,2157C 2744.73,2138.19 2726.4,2133.52 2704.5,2143C 2693.39,2151.43 2691.56,2161.6 2699,2173.5C 2701.83,2176.33 2704.67,2179.17 2707.5,2182C 2718.17,2189.33 2728.83,2196.67 2739.5,2204C 2756.08,2216.4 2762.91,2232.9 2760,2253.5C 2753.05,2291.11 2730.55,2312.28 2692.5,2317C 2672.72,2319.03 2653.39,2317.03 2634.5,2311C 2616.04,2303.25 2611.2,2290.41 2620,2272.5C 2623.82,2266.02 2629.32,2262.19 2636.5,2261C 2655.27,2281.53 2677.27,2286.2 2702.5,2275C 2718.86,2259.79 2718.19,2245.12 2700.5,2231C 2685.99,2222.99 2672.83,2213.16 2661,2201.5C 2642.66,2170.36 2646.83,2142.53 2673.5,2118C 2687.58,2107.7 2703.25,2101.86 2720.5,2100.5 Z"/></g>
<g><path style="opacity:0.99" fill="#3e4095" d="M 1557.5,2103.5 C 1564.46,2103.06 1571.13,2104.23 1577.5,2107C 1581.89,2110.07 1584.73,2114.24 1586,2119.5C 1590.5,2183.84 1595,2248.17 1599.5,2312.5C 1584.83,2312.5 1570.17,2312.5 1555.5,2312.5C 1555.24,2297.81 1554.58,2283.14 1553.5,2268.5C 1532.83,2268.33 1512.16,2268.5 1491.5,2269C 1483.5,2283.33 1475.5,2297.67 1467.5,2312C 1453.17,2312.67 1438.83,2312.67 1424.5,2312C 1461.18,2245.46 1499.02,2179.63 1538,2114.5C 1542.72,2107.56 1549.22,2103.89 1557.5,2103.5 Z M 1549.5,2159.5 C 1550.32,2162.31 1550.82,2165.31 1551,2168.5C 1551.5,2190.5 1551.67,2212.5 1551.5,2234.5C 1537.82,2234.83 1524.15,2234.5 1510.5,2233.5C 1523,2208.5 1536,2183.83 1549.5,2159.5 Z"/></g>
<g><path style="opacity:0.99" fill="#3e4095" d="M 1690.5,2103.5 C 1709.86,2103.12 1729.2,2103.62 1748.5,2105C 1781.47,2111.96 1795.63,2132.13 1791,2165.5C 1787.4,2189.57 1775.23,2207.74 1754.5,2220C 1748.37,2222.25 1742.7,2225.25 1737.5,2229C 1743.59,2250.62 1750.09,2272.12 1757,2293.5C 1758.66,2298.77 1759.66,2304.11 1760,2309.5C 1748.76,2315.4 1736.93,2317.23 1724.5,2315C 1716.89,2310.64 1712.06,2304.14 1710,2295.5C 1705.07,2275.22 1699.24,2255.22 1692.5,2235.5C 1690.17,2235.17 1687.83,2234.83 1685.5,2234.5C 1682.71,2234.57 1680.21,2235.24 1678,2236.5C 1671.06,2261.82 1664.22,2287.16 1657.5,2312.5C 1643.83,2312.5 1630.17,2312.5 1616.5,2312.5C 1616.57,2305 1617.73,2297.67 1620,2290.5C 1636.69,2229.74 1653.69,2169.08 1671,2108.5C 1671.37,2107.58 1671.87,2106.75 1672.5,2106C 1678.66,2105.25 1684.66,2104.42 1690.5,2103.5 Z M 1705.5,2136.5 C 1742.16,2133.63 1753.33,2148.96 1739,2182.5C 1733.44,2191.03 1725.61,2196.2 1715.5,2198C 1706.56,2199.49 1697.56,2200.33 1688.5,2200.5C 1692.95,2178.82 1698.62,2157.49 1705.5,2136.5 Z"/></g>
<g><path style="opacity:0.989" fill="#3e4095" d="M 1863.5,2103.5 C 1872.35,2101.91 1879.85,2104.25 1886,2110.5C 1886.67,2111.83 1887.33,2113.17 1888,2114.5C 1893.32,2150.41 1897.99,2186.41 1902,2222.5C 1902.41,2222.96 1902.91,2223.29 1903.5,2223.5C 1927.67,2187.83 1951.83,2152.17 1976,2116.5C 1983.38,2107.65 1992.88,2103.31 2004.5,2103.5C 2010.2,2103.98 2015.86,2104.65 2021.5,2105.5C 2021.18,2112.55 2020.35,2119.55 2019,2126.5C 2005.72,2188.42 1992.88,2250.42 1980.5,2312.5C 1967.17,2312.5 1953.83,2312.5 1940.5,2312.5C 1948.66,2270.85 1956.5,2229.18 1964,2187.5C 1945.5,2214.67 1927,2241.83 1908.5,2269C 1896.59,2269.82 1884.76,2269.65 1873,2268.5C 1869.52,2242.81 1865.85,2217.14 1862,2191.5C 1861.59,2191.04 1861.09,2190.71 1860.5,2190.5C 1846.64,2230.75 1832.97,2271.08 1819.5,2311.5C 1806.18,2312.5 1792.85,2312.83 1779.5,2312.5C 1802.5,2243.83 1825.5,2175.17 1848.5,2106.5C 1853.7,2105.86 1858.7,2104.86 1863.5,2103.5 Z"/></g>
<g><path style="opacity:0.99" fill="#3e4095" d="M 2134.5,2103.5 C 2144.63,2102.21 2153.13,2105.21 2160,2112.5C 2161.56,2114.96 2162.56,2117.62 2163,2120.5C 2167.24,2176.17 2171.58,2231.84 2176,2287.5C 2176.5,2295.83 2176.67,2304.16 2176.5,2312.5C 2161.83,2312.5 2147.17,2312.5 2132.5,2312.5C 2132.26,2297.8 2131.59,2283.14 2130.5,2268.5C 2109.83,2268.33 2089.16,2268.5 2068.5,2269C 2060.71,2282.75 2053.04,2296.59 2045.5,2310.5C 2040.48,2312.07 2035.31,2313.07 2030,2313.5C 2020.54,2312.54 2011.04,2312.21 2001.5,2312.5C 2002.09,2309.31 2003.26,2306.31 2005,2303.5C 2042.71,2238.58 2080.54,2173.75 2118.5,2109C 2123.72,2106.43 2129.05,2104.6 2134.5,2103.5 Z M 2126.5,2160.5 C 2127.33,2165.32 2127.83,2170.32 2128,2175.5C 2128.5,2195.16 2128.67,2214.83 2128.5,2234.5C 2114.82,2234.83 2101.15,2234.5 2087.5,2233.5C 2099.23,2208.38 2112.23,2184.04 2126.5,2160.5 Z"/></g>
<g><path style="opacity:0.99" fill="#3e4095" d="M 2557.5,2103.5 C 2565.26,2103.02 2572.59,2104.52 2579.5,2108C 2582.81,2110.78 2584.97,2114.28 2586,2118.5C 2590.83,2174.45 2595.16,2230.45 2599,2286.5C 2599.5,2295.16 2599.67,2303.83 2599.5,2312.5C 2585.17,2312.5 2570.83,2312.5 2556.5,2312.5C 2555.98,2298.48 2555.15,2284.48 2554,2270.5C 2553.25,2269.87 2552.42,2269.37 2551.5,2269C 2542,2268.83 2532.5,2268.67 2523,2268.5C 2512.43,2268.37 2501.93,2268.87 2491.5,2270C 2489.64,2271.56 2488.14,2273.39 2487,2275.5C 2480.98,2287.71 2474.81,2299.88 2468.5,2312C 2453.82,2312.83 2439.16,2312.67 2424.5,2311.5C 2427.47,2304.22 2430.97,2297.22 2435,2290.5C 2469.84,2232.16 2504.17,2173.5 2538,2114.5C 2542.71,2107.56 2549.21,2103.9 2557.5,2103.5 Z M 2550.5,2159.5 C 2551.46,2184.33 2552.13,2209.33 2552.5,2234.5C 2538.48,2234.83 2524.48,2234.5 2510.5,2233.5C 2520.32,2214.53 2530.15,2195.53 2540,2176.5C 2543.51,2170.81 2547.01,2165.14 2550.5,2159.5 Z"/></g>
<g><path style="opacity:0.989" fill="#3e4095" d="M 1360.5,2104.5 C 1400.84,2104.38 1441.17,2104.71 1481.5,2105.5C 1482.12,2125.04 1472.79,2136.21 1453.5,2139C 1447.17,2139.56 1440.84,2140.06 1434.5,2140.5C 1421.51,2139.48 1408.51,2139.31 1395.5,2140C 1389.11,2156.33 1384.45,2173.17 1381.5,2190.5C 1401.19,2190.23 1420.86,2190.56 1440.5,2191.5C 1437.97,2202.62 1434.97,2213.62 1431.5,2224.5C 1411.27,2225.17 1391.1,2225.84 1371,2226.5C 1362.85,2255.1 1355.02,2283.77 1347.5,2312.5C 1333.17,2312.5 1318.83,2312.5 1304.5,2312.5C 1323.37,2243.22 1342.04,2173.88 1360.5,2104.5 Z"/></g>
<g><path style="opacity:0.989" fill="#3e4095" d="M 2423.5,2103.5 C 2432.07,2103.17 2440.07,2105 2447.5,2109C 2449.1,2110.93 2450.27,2113.1 2451,2115.5C 2451.67,2120.17 2451.67,2124.83 2451,2129.5C 2434.76,2190.55 2417.92,2251.39 2400.5,2312C 2386.84,2312.5 2373.17,2312.67 2359.5,2312.5C 2361.2,2300.68 2363.7,2289.02 2367,2277.5C 2382.94,2219.84 2398.78,2162.18 2414.5,2104.5C 2417.71,2104.81 2420.71,2104.48 2423.5,2103.5 Z"/></g>
</svg>
