<?xml version="1.0" encoding="UTF-8"?>
<!DOCTYPE svg PUBLIC "-//W3C//DTD SVG 1.1//EN" "http://www.w3.org/Graphics/SVG/1.1/DTD/svg11.dtd">
<svg xmlns="http://www.w3.org/2000/svg" version="1.1" width="193px" height="68px"
    style="shape-rendering:geometricPrecision; text-rendering:geometricPrecision; image-rendering:optimizeQuality; fill-rule:evenodd; clip-rule:evenodd"
    xmlns:xlink="http://www.w3.org/1999/xlink">

    <g>
        <path style="opacity:0.924" fill="black"
            d="M 99.5,-0.5 C 105.167,-0.5 110.833,-0.5 116.5,-0.5C 116.5,5.5 116.5,11.5 116.5,17.5C 110.833,17.5 105.167,17.5 99.5,17.5C 99.5,11.5 99.5,5.5 99.5,-0.5 Z" />
    </g>
    <g>
        <path style="opacity:0.628" fill="black"
            d="M 0.5,5.5 C 1.5,5.5 2.5,5.5 3.5,5.5C 4.16667,10.8333 4.83333,10.8333 5.5,5.5C 6.5,5.5 7.5,5.5 8.5,5.5C 8.5,9.16667 8.5,12.8333 8.5,16.5C 7.5,16.5 6.5,16.5 5.5,16.5C 4.83333,11.1667 4.16667,11.1667 3.5,16.5C 2.5,16.5 1.5,16.5 0.5,16.5C 0.5,12.8333 0.5,9.16667 0.5,5.5 Z" />
    </g>
    <g>
        <path style="opacity:0.602" fill="black"
            d="M 12.5,5.5 C 15.368,5.08501 17.5347,6.08501 19,8.5C 20.8637,5.79283 23.3637,4.9595 26.5,6C 27.8333,7.33333 27.8333,8.66667 26.5,10C 27,10.5 27.5,11 28,11.5C 28.4955,9.5273 28.6621,7.5273 28.5,5.5C 31.6852,5.01964 34.5185,5.68631 37,7.5C 40.8362,5.61118 45.0029,4.94451 49.5,5.5C 49.5,6.5 49.5,7.5 49.5,8.5C 48.5,8.5 47.5,8.5 46.5,8.5C 46.5,11.1667 46.5,13.8333 46.5,16.5C 45.5,16.5 44.5,16.5 43.5,16.5C 43.5,13.8333 43.5,11.1667 43.5,8.5C 42.5,8.5 41.5,8.5 40.5,8.5C 40.5,11.1667 40.5,13.8333 40.5,16.5C 39.5,16.5 38.5,16.5 37.5,16.5C 37.6621,14.4727 37.4955,12.4727 37,10.5C 35.5993,12.1922 33.7659,12.8588 31.5,12.5C 31.5,13.8333 31.5,15.1667 31.5,16.5C 29.8762,16.6399 28.7096,15.9733 28,14.5C 25.0425,17.082 22.0425,17.082 19,14.5C 11.4784,18.3249 8.4784,15.9916 10,7.5C 10.9947,6.93406 11.828,6.26739 12.5,5.5 Z M 13.5,8.5 C 16.0838,9.0483 17.0838,10.715 16.5,13.5C 15.1667,13.5 13.8333,13.5 12.5,13.5C 12.366,11.7085 12.6993,10.0418 13.5,8.5 Z M 31.5,8.5 C 33.337,8.63945 33.6704,9.30612 32.5,10.5C 31.7025,10.0431 31.3691,9.37644 31.5,8.5 Z M 19.5,10.5 C 20.2891,10.7828 20.9558,11.2828 21.5,12C 20.184,12.5281 19.5173,12.0281 19.5,10.5 Z M 22.5,13.5 C 23.0768,12.2267 23.7435,12.2267 24.5,13.5C 24.0302,14.463 23.3635,14.463 22.5,13.5 Z" />
    </g>
    <g>
        <path style="opacity:0.666" fill="black"
            d="M 51.5,5.5 C 52.675,5.28099 53.675,5.61432 54.5,6.5C 55.5686,9.53937 56.7353,12.5394 58,15.5C 58.1764,12.1182 58.6764,8.78485 59.5,5.5C 60.48,8.08645 60.8134,10.7531 60.5,13.5C 62.1667,13.5 63.8333,13.5 65.5,13.5C 65.5,14.5 65.5,15.5 65.5,16.5C 61.1226,16.9459 56.9559,16.2792 53,14.5C 51.6667,15.1667 50.3333,15.8333 49,16.5C 48.5,16.1667 48,15.8333 47.5,15.5C 48.8489,12.141 50.1822,8.80769 51.5,5.5 Z" />
    </g>
    <g>
        <path style="opacity:0.917" fill="black"
            d="M 36.5,57.5 C 31.1667,57.5 25.8333,57.5 20.5,57.5C 13.2907,45.0798 6.62404,32.4131 0.5,19.5C 6.17645,19.3339 11.8431,19.5006 17.5,20C 21.0408,26.2493 24.7074,32.4159 28.5,38.5C 32.2926,32.4159 35.9592,26.2493 39.5,20C 45.5,19.3333 51.5,19.3333 57.5,20C 50.3612,32.4464 43.3612,44.9464 36.5,57.5 Z" />
    </g>
    <g>
        <path style="opacity:0.91" fill="black"
            d="M 77.5,57.5 C 71.5,57.5 65.5,57.5 59.5,57.5C 59.5,44.8333 59.5,32.1667 59.5,19.5C 65.5,19.5 71.5,19.5 77.5,19.5C 77.5,32.1667 77.5,44.8333 77.5,57.5 Z" />
    </g>
    <g>
        <path style="opacity:0.936" fill="black"
            d="M 116.5,57.5 C 110.833,57.5 105.167,57.5 99.5,57.5C 99.5,49.8333 99.5,42.1667 99.5,34.5C 92.8333,34.5 86.1667,34.5 79.5,34.5C 79.5,29.5 79.5,24.5 79.5,19.5C 98.5,19.5 117.5,19.5 136.5,19.5C 136.5,24.5 136.5,29.5 136.5,34.5C 129.833,34.5 123.167,34.5 116.5,34.5C 116.5,42.1667 116.5,49.8333 116.5,57.5 Z" />
    </g>
    <g>
        <path style="opacity:0.924" fill="black"
            d="M 182.5,55.5 C 182.5,56.1667 182.5,56.8333 182.5,57.5C 176.5,57.5 170.5,57.5 164.5,57.5C 161.698,51.2321 158.365,45.2321 154.5,39.5C 150.837,45.492 147.17,51.492 143.5,57.5C 137.5,57.5 131.5,57.5 125.5,57.5C 132.235,45.0316 139.235,32.6982 146.5,20.5C 151.833,19.1667 157.167,19.1667 162.5,20.5C 168.941,32.3921 175.608,44.0588 182.5,55.5 Z" />
    </g>
</svg>